<svg width="499" height="537" viewBox="0 0 499 537" fill="none" xmlns="http://www.w3.org/2000/svg">
<path opacity="0.3" d="M367.981 346.287C370.623 344.689 373.467 343.447 376.438 342.594L378.171 334.253L392.32 334L394.352 342.281C397.35 343.014 400.234 344.146 402.928 345.647L410.07 340.97L420.201 350.8L415.718 358.083C417.309 360.72 418.545 363.554 419.394 366.513L427.761 368.24L428 382.345L419.708 384.37C418.959 387.354 417.823 390.227 416.331 392.919L421.007 400.038L411.236 410.226L403.93 405.757C401.284 407.344 398.441 408.576 395.473 409.421L393.725 417.762L379.59 418L377.558 409.734C374.559 409.006 371.674 407.873 368.982 406.368L361.93 411.149L351.755 401.289L356.237 394.006C354.631 391.377 353.394 388.541 352.561 385.577L344.194 383.849L344 369.774L352.307 367.749C353.038 364.76 354.174 361.883 355.684 359.2L350.963 352.17L360.794 342.028L368.1 346.496L367.981 346.287ZM375.451 365.068C373.015 367.585 371.529 370.866 371.248 374.352C370.966 377.839 371.906 381.314 373.907 384.187C375.908 387.06 378.847 389.153 382.222 390.108C385.598 391.063 389.201 390.822 392.418 389.426C395.635 388.03 398.267 385.565 399.865 382.451C401.463 379.337 401.929 375.767 401.182 372.35C400.436 368.932 398.524 365.878 395.772 363.709C393.02 361.539 389.598 360.388 386.09 360.451C384.099 360.485 382.135 360.911 380.309 361.703C378.484 362.495 376.833 363.639 375.451 365.068Z" fill="#F4F1F9" fill-opacity="0.7"/>
<path opacity="0.2" d="M114.263 149.481C117.378 147.597 120.729 146.134 124.23 145.128L126.273 135.298L142.949 135L145.344 144.76C148.876 145.623 152.276 146.958 155.451 148.727L163.869 143.215L175.808 154.8L170.525 163.383C172.4 166.492 173.856 169.832 174.857 173.319L184.718 175.355L185 191.978L175.227 194.365C174.344 197.881 173.006 201.268 171.247 204.44L176.759 212.831L165.242 224.837L156.631 219.571C153.514 221.441 150.163 222.893 146.664 223.889L144.604 233.719L127.946 234L125.551 224.258C122.016 223.4 118.616 222.065 115.443 220.291L107.131 225.926L95.1393 214.305L100.422 205.722C98.529 202.623 97.0714 199.28 96.0902 195.787L86.2289 193.751L86 177.163L95.7908 174.776C96.6519 171.252 97.9908 167.863 99.7706 164.7L94.206 156.415L105.793 144.461L114.404 149.727L114.263 149.481ZM123.068 171.616C120.196 174.582 118.445 178.449 118.113 182.558C117.781 186.667 118.889 190.763 121.248 194.149C123.606 197.535 127.07 200.001 131.048 201.127C135.026 202.253 139.273 201.969 143.064 200.323C146.856 198.678 149.958 195.773 151.841 192.103C153.725 188.433 154.273 184.226 153.393 180.198C152.514 176.17 150.26 172.571 147.017 170.014C143.773 167.457 139.74 166.1 135.606 166.174C133.259 166.215 130.944 166.716 128.793 167.65C126.641 168.584 124.696 169.931 123.068 171.616Z" fill="#F4F1F9" fill-opacity="0.7"/>
<g filter="url(#filter0_d_868_2086)">
<path d="M174.133 12.8521H348.163C350.887 12.8638 353.582 13.4118 356.095 14.4647C358.607 15.5177 360.887 17.0551 362.805 18.989C364.723 20.9228 366.241 23.2153 367.272 25.7356C368.304 28.256 368.829 30.9548 368.817 33.6778V458.687C368.837 464.185 366.674 469.467 362.801 473.372C358.929 477.277 353.664 479.486 348.163 479.513H174.133C171.409 479.501 168.714 478.953 166.202 477.9C163.69 476.847 161.41 475.31 159.492 473.376C157.574 471.442 156.056 469.149 155.024 466.629C153.993 464.109 153.468 461.41 153.48 458.687V33.6778C153.466 30.9543 153.99 28.2547 155.021 25.7336C156.052 23.2125 157.57 20.9194 159.488 18.9852C161.406 17.051 163.687 15.5137 166.2 14.4613C168.713 13.4089 171.409 12.8621 174.133 12.8521Z" fill="#F9F6FF"/>
<path d="M368.817 15.4216H153.48V482.082H368.817V15.4216Z" fill="#F9F6FF"/>
<mask id="mask0_868_2086" style="mask-type:luminance" maskUnits="userSpaceOnUse" x="132" y="15" width="237" height="468">
<path d="M368.817 15.4216H132V482.082H368.817V15.4216Z" fill="white"/>
</mask>
<g mask="url(#mask0_868_2086)">
<path d="M369 15H134V482H369V15Z" fill="#F9F6FF"/>
<path d="M369 15H134V482H369V15Z" fill="#F9F6FF"/>
</g>
<path fill-rule="evenodd" clip-rule="evenodd" d="M154.321 4C146.544 4 139.086 6.84025 133.588 11.8959C128.089 16.9516 125 23.8086 125 30.9584V466.042C125 473.191 128.089 480.048 133.588 485.104C139.086 490.16 146.544 493 154.321 493H347.767C355.543 493 363.001 490.16 368.499 485.104C373.998 480.048 377.087 473.191 377.087 466.042V219.18H377.73C378.067 219.18 378.39 219.056 378.628 218.837C378.866 218.618 379 218.321 379 218.011V188.1C379 187.79 378.866 187.493 378.628 187.274C378.39 187.055 378.067 186.932 377.73 186.932H377.087V154.685H377.73C378.068 154.681 378.391 154.555 378.629 154.334C378.867 154.113 379 153.815 379 153.504V94.285C379 93.9752 378.866 93.6781 378.628 93.459C378.39 93.2399 378.067 93.1167 377.73 93.1167H377.087V30.9584C377.087 23.8086 373.998 16.9516 368.499 11.8959C363.001 6.84025 355.543 4 347.767 4H154.321ZM156.457 15.4124C150.502 15.4124 144.792 17.5872 140.581 21.4584C136.371 25.3297 134.006 30.5801 134.006 36.0548V459.905C134.006 465.38 136.371 470.631 140.581 474.502C144.792 478.373 150.502 480.548 156.457 480.548H345.631C351.585 480.548 357.295 478.373 361.506 474.502C365.716 470.631 368.082 465.38 368.082 459.905V36.0548C368.082 30.5801 365.716 25.3297 361.506 21.4584C357.295 17.5872 351.585 15.4124 345.631 15.4124H156.457Z" fill="#9B82CA"/>
<path d="M257.747 26.7658C257.749 27.9276 257.407 29.0639 256.763 30.0311C256.119 30.9984 255.203 31.753 254.13 32.1993C253.057 32.6457 251.876 32.7638 250.735 32.5387C249.595 32.3136 248.548 31.7554 247.725 30.9348C246.902 30.1142 246.341 29.0681 246.114 27.9288C245.886 26.7896 246.002 25.6083 246.446 24.5347C246.89 23.4611 247.643 22.5435 248.609 21.8978C249.575 21.2521 250.711 20.9072 251.873 20.9072C252.644 20.9056 253.408 21.0558 254.12 21.3495C254.833 21.6432 255.48 22.0746 256.026 22.6187C256.571 23.1629 257.004 23.8093 257.299 24.5209C257.595 25.2325 257.747 25.9954 257.747 26.7658Z" fill="#9B82CA"/>
<path d="M344.075 373H156.925C152.548 373 149 376.132 149 379.995V443.005C149 446.868 152.548 450 156.925 450H344.075C348.452 450 352 446.868 352 443.005V379.995C352 376.132 348.452 373 344.075 373Z" stroke="#8668BF" stroke-width="0.5" stroke-miterlimit="10" stroke-dasharray="3.98 3.98"/>
<path d="M344.153 67H158.847C154.513 67 151 70.1329 151 73.9976V172.002C151 175.867 154.513 179 158.847 179H344.153C348.487 179 352 175.867 352 172.002V73.9976C352 70.1329 348.487 67 344.153 67Z" fill="#E7E1F2"/>
<path d="M344.192 273H159.808C155.496 273 152 276.132 152 279.995V343.005C152 346.868 155.496 350 159.808 350H344.192C348.504 350 352 346.868 352 343.005V279.995C352 276.132 348.504 273 344.192 273Z" fill="white" stroke="#D4C9E8" stroke-width="0.75" stroke-miterlimit="10"/>
<path d="M158.82 272H345.166C347.244 272 349.236 272.754 350.706 274.097C352.175 275.44 353 277.261 353 279.159V288H151V279.199C150.994 278.256 151.192 277.322 151.583 276.45C151.973 275.578 152.548 274.784 153.274 274.115C154.001 273.447 154.865 272.916 155.816 272.552C156.768 272.189 157.788 272.002 158.82 272Z" fill="#8668BF"/>
<path d="M345.829 204H219.171C215.763 204 213 206.3 213 209.137V244.863C213 247.7 215.763 250 219.171 250H345.829C349.237 250 352 247.7 352 244.863V209.137C352 206.3 349.237 204 345.829 204Z" stroke="#8668BF" stroke-width="0.5" stroke-miterlimit="10" stroke-dasharray="2.99 2.99"/>
<path d="M198.758 204.062H156.141C153.302 204.062 151 206.363 151 209.201V244.943C151 247.781 153.302 250.082 156.141 250.082H198.758C201.598 250.082 203.899 247.781 203.899 244.943V209.201C203.899 206.363 201.598 204.062 198.758 204.062Z" stroke="#8668BF" stroke-width="0.5" stroke-miterlimit="10"/>
<path d="M184.814 220.031L191.857 227.071L184.814 234.112" stroke="#8668BF" stroke-width="0.5" stroke-linecap="round" stroke-linejoin="round"/>
<path d="M171.448 220.031L164.405 227.071L171.448 234.112" stroke="#8668BF" stroke-width="0.5" stroke-linecap="round" stroke-linejoin="round"/>
<path d="M181.588 220.031L174.866 234.112" stroke="#8668BF" stroke-width="0.5" stroke-linecap="round" stroke-linejoin="round"/>
<path d="M214.165 295.498H172.048C169.813 295.498 168 297.309 168 299.545V336.571C168 338.806 169.813 340.618 172.048 340.618H214.165C216.401 340.618 218.213 338.806 218.213 336.571V299.545C218.213 297.309 216.401 295.498 214.165 295.498Z" fill="#E7E1F2"/>
<path d="M234 300H336" stroke="#E7E1F2" stroke-width="3" stroke-miterlimit="10" stroke-linecap="round"/>
<path d="M234 309H336" stroke="#E7E1F2" stroke-width="3" stroke-miterlimit="10" stroke-linecap="round"/>
<path d="M234 319H336" stroke="#E7E1F2" stroke-width="3" stroke-miterlimit="10" stroke-linecap="round"/>
<path d="M234 328H336" stroke="#E7E1F2" stroke-width="3" stroke-miterlimit="10" stroke-linecap="round"/>
<path d="M234 338H276" stroke="#E7E1F2" stroke-width="3" stroke-miterlimit="10" stroke-linecap="round"/>
<path d="M267.245 179.291L220.232 97.5684C219.767 96.7625 219.099 96.0932 218.293 95.6278C217.488 95.1624 216.574 94.9175 215.643 94.9175C214.713 94.9175 213.799 95.1624 212.994 95.6278C212.188 96.0932 211.52 96.7625 211.055 97.5684L163.502 179.317L267.245 179.291Z" fill="white"/>
<path d="M297.576 179.292L264.944 122.544C264.478 121.739 263.808 121.07 263.001 120.605C262.195 120.14 261.28 119.895 260.349 119.895C259.418 119.895 258.504 120.14 257.697 120.605C256.891 121.07 256.221 121.739 255.755 122.544L222.699 179.317L297.576 179.292Z" fill="#F5F2FA"/>
<path d="M321.817 123.264C334.217 123.264 344.269 113.215 344.269 100.819C344.269 88.4233 334.217 78.3745 321.817 78.3745C309.416 78.3745 299.364 88.4233 299.364 100.819C299.364 113.215 309.416 123.264 321.817 123.264Z" fill="white"/>
</g>
<g filter="url(#filter1_d_868_2086)">
<path d="M476.391 160.612H325.96C321.55 160.612 317.975 164.746 317.975 169.844V179.657C317.975 184.756 321.55 188.89 325.96 188.89H476.391C480.801 188.89 484.376 184.756 484.376 179.657V169.844C484.376 164.746 480.801 160.612 476.391 160.612Z" fill="white" stroke="#D4C9E8" stroke-width="0.75" stroke-miterlimit="10"/>
<path d="M467.986 180.548C469.123 180.545 470.234 180.206 471.179 179.573C472.124 178.939 472.86 178.04 473.293 176.989C473.727 175.937 473.839 174.781 473.616 173.665C473.393 172.55 472.844 171.526 472.039 170.722C471.234 169.919 470.209 169.372 469.093 169.151C467.977 168.93 466.821 169.044 465.771 169.48C464.72 169.916 463.822 170.653 463.19 171.599C462.559 172.545 462.221 173.657 462.221 174.794C462.221 175.551 462.371 176.3 462.66 176.998C462.95 177.697 463.375 178.332 463.91 178.866C464.446 179.401 465.081 179.824 465.781 180.113C466.48 180.401 467.229 180.549 467.986 180.548Z" stroke="#8668BF" stroke-linecap="round" stroke-linejoin="round"/>
<path d="M472.053 178.862L475.381 182.201" stroke="#8668BF" stroke-linecap="round" stroke-linejoin="round"/>
</g>
<g filter="url(#filter2_d_868_2086)">
<rect x="24" y="233.661" width="149.813" height="182.585" rx="10" fill="white"/>
</g>
<circle cx="97.502" cy="301.545" r="37.4601" transform="rotate(-26.9104 97.502 301.545)" stroke="#DFDFDF"/>
<path d="M114.683 335.394C133.377 325.906 140.84 303.059 131.352 284.364C121.863 265.669 99.0161 258.206 80.3215 267.695" stroke="#B5A3D8" stroke-width="6" stroke-linecap="round" stroke-linejoin="round"/>
<line x1="139.478" y1="360.693" x2="55.5263" y2="360.693" stroke="#E7E1F2" stroke-width="5" stroke-linecap="round"/>
<line x1="139.478" y1="376.611" x2="55.5263" y2="376.611" stroke="#E7E1F2" stroke-width="5" stroke-linecap="round"/>
<line x1="139.478" y1="390.656" x2="55.5263" y2="390.656" stroke="#E7E1F2" stroke-width="5" stroke-linecap="round"/>
<defs>
<filter id="filter0_d_868_2086" x="101" y="0" width="302" height="537" filterUnits="userSpaceOnUse" color-interpolation-filters="sRGB">
<feFlood flood-opacity="0" result="BackgroundImageFix"/>
<feColorMatrix in="SourceAlpha" type="matrix" values="0 0 0 0 0 0 0 0 0 0 0 0 0 0 0 0 0 0 127 0" result="hardAlpha"/>
<feOffset dy="20"/>
<feGaussianBlur stdDeviation="12"/>
<feComposite in2="hardAlpha" operator="out"/>
<feColorMatrix type="matrix" values="0 0 0 0 0.282353 0 0 0 0 0.192157 0 0 0 0 0.45098 0 0 0 0.3 0"/>
<feBlend mode="normal" in2="BackgroundImageFix" result="effect1_dropShadow_868_2086"/>
<feBlend mode="normal" in="SourceGraphic" in2="effect1_dropShadow_868_2086" result="shape"/>
</filter>
<filter id="filter1_d_868_2086" x="303.6" y="160.237" width="195.151" height="57.0273" filterUnits="userSpaceOnUse" color-interpolation-filters="sRGB">
<feFlood flood-opacity="0" result="BackgroundImageFix"/>
<feColorMatrix in="SourceAlpha" type="matrix" values="0 0 0 0 0 0 0 0 0 0 0 0 0 0 0 0 0 0 127 0" result="hardAlpha"/>
<feOffset dy="14"/>
<feGaussianBlur stdDeviation="7"/>
<feComposite in2="hardAlpha" operator="out"/>
<feColorMatrix type="matrix" values="0 0 0 0 0.341176 0 0 0 0 0.231373 0 0 0 0 0.545098 0 0 0 0.15 0"/>
<feBlend mode="normal" in2="BackgroundImageFix" result="effect1_dropShadow_868_2086"/>
<feBlend mode="normal" in="SourceGraphic" in2="effect1_dropShadow_868_2086" result="shape"/>
</filter>
<filter id="filter2_d_868_2086" x="0" y="223.661" width="197.813" height="230.585" filterUnits="userSpaceOnUse" color-interpolation-filters="sRGB">
<feFlood flood-opacity="0" result="BackgroundImageFix"/>
<feColorMatrix in="SourceAlpha" type="matrix" values="0 0 0 0 0 0 0 0 0 0 0 0 0 0 0 0 0 0 127 0" result="hardAlpha"/>
<feOffset dy="14"/>
<feGaussianBlur stdDeviation="12"/>
<feComposite in2="hardAlpha" operator="out"/>
<feColorMatrix type="matrix" values="0 0 0 0 0.47451 0 0 0 0 0.341176 0 0 0 0 0.721569 0 0 0 0.24 0"/>
<feBlend mode="normal" in2="BackgroundImageFix" result="effect1_dropShadow_868_2086"/>
<feBlend mode="normal" in="SourceGraphic" in2="effect1_dropShadow_868_2086" result="shape"/>
</filter>
</defs>
</svg>
