<?xml version="1.0" encoding="utf-8"?>
<!-- Generator: Adobe Illustrator 27.5.0, SVG Export Plug-In . SVG Version: 6.00 Build 0)  -->
<svg version="1.1" xmlns="http://www.w3.org/2000/svg" xmlns:xlink="http://www.w3.org/1999/xlink" x="0px" y="0px"
	 viewBox="0 0 500 500" style="enable-background:new 0 0 500 500;" xml:space="preserve">
<g id="Floor">
	<ellipse id="Floor_18_" style="fill:#F5F5F5;" cx="249.049" cy="313.842" rx="211.54" ry="133.122"/>
</g>
<g id="Shadow">
	<ellipse id="XMLID_5454_" style="fill:#E0E0E0;" cx="322.648" cy="390.861" rx="46.652" ry="26.934"/>
</g>
<g id="Mesh">
	<g id="XMLID_5374_">
		<path id="XMLID_5965_" style="opacity:0.3;" d="M60.958,196.495l0.18,0.11c-0.08-0.05-0.16-0.09-0.23-0.13
			c-0.15-0.09-0.29-0.17-0.43-0.25L60.958,196.495z"/>
		<path id="XMLID_5948_" style="fill:#27DEBF;" d="M57.708,194.015c-0.04,0.12-0.04,0.25-0.01,0.36c-0.04-0.11-0.04-0.23,0-0.36
			l0.66-2.2L57.708,194.015z"/>
		<path id="XMLID_5939_" style="opacity:0.4;fill:#FFFFFF;" d="M57.708,194.015c-0.04,0.12-0.04,0.25-0.01,0.36
			c-0.04-0.11-0.04-0.23,0-0.36l0.66-2.2L57.708,194.015z"/>
		<g id="XMLID_5886_">
			<path id="XMLID_5887_" style="fill:#27DEBF;" d="M123.168,162.285l-12.29-7.12c-0.08-0.06-0.14-0.09-0.14-0.09
				c-0.07-0.03-0.15-0.04-0.23-0.04c-0.3-0.17-0.62-0.36-0.95-0.54c-0.42-0.24-0.86-0.5-1.31-0.76c-1.8-1.05-3.78-2.19-5.3-3.07
				c-0.29-0.17-0.57-0.33-0.82-0.48c-0.98-0.57-1.63-0.94-1.67-0.97c-0.15-0.09-0.36-0.14-0.61-0.11l-6.19,0.61
				c-0.37,0.04-0.76,0.23-1.03,0.49c-0.15,0.13-0.26,0.29-0.32,0.45l-3.36,9c-0.01,0.02-0.01,0.04-0.03,0.06
				c-0.03,0.06-0.06,0.11-0.09,0.17s-0.07,0.12-0.13,0.18c-0.07,0.09-0.15,0.18-0.23,0.26c-0.19,0.19-0.41,0.37-0.64,0.51
				c-0.08,0.05-0.15,0.09-0.23,0.13c-0.65,0.3-1.31,0.65-1.97,1.03l-6.49-3.76c-0.08-0.05-0.17-0.08-0.28-0.08
				c-0.23,0-0.49,0.13-0.72,0.38h-0.01l-4.06,4.29l-2.73,2.88c-0.23,0.24-0.39,0.55-0.48,0.85c-0.08,0.23-0.1,0.46-0.05,0.64
				l1.9,6.4c0.02,0.07,0.03,0.15,0.02,0.23c0.02,0.12,0.01,0.26-0.03,0.41c-0.01,0.08-0.03,0.17-0.06,0.26c0,0.03,0,0.05-0.01,0.06
				c-0.01,0.04-0.02,0.08-0.04,0.11c-0.02,0.07-0.04,0.14-0.08,0.2c-0.04,0.1-0.09,0.19-0.15,0.28c-1.16,1.75-2.21,3.58-3.12,5.43
				c-0.04,0.07-0.08,0.14-0.15,0.21c-0.05,0.07-0.12,0.14-0.19,0.21c-0.31,0.32-0.73,0.57-1.14,0.67l-5.81,1.4
				c-0.43,0.1-0.85,0.38-1.11,0.71c-0.1,0.13-0.17,0.26-0.21,0.39l-0.36,1.22l-1.91,6.43l-0.65,2.2c-0.04,0.12-0.04,0.25-0.01,0.36
				c0.02,0.07,0.04,0.13,0.08,0.19c0.04,0.06,0.09,0.12,0.15,0.16c0.01,0.01,0.04,0.03,0.1,0.07l0.98,0.57l0.27,0.15v0.01l0.78,0.45
				l0.42,0.25l0.48,0.27l0.18,0.11l0.51,0.29l2.83,1.63c0.02,0.01,0.03,0.02,0.03,0.02c-0.01,0.9,0.03,1.78,0.11,2.64
				c0.02,0.2-0.03,0.45-0.12,0.72c-0.1,0.3-0.26,0.61-0.45,0.84l-5.93,7.18c-0.18,0.21-0.31,0.48-0.37,0.74
				c-0.01,0.07-0.03,0.14-0.04,0.21c-0.03,0.2-0.02,0.38,0.05,0.52l2.82,6.23c0.02,0.04,0.04,0.08,0.08,0.12
				c0.02,0.03,0.06,0.06,0.1,0.08l0.02,0.02c0.23,0.13,2.04,1.17,4.21,2.44c0.36,0.2,0.73,0.42,1.11,0.64
				c1.4,0.81,2.87,1.65,4.1,2.37c0.16,0.09,0.32,0.19,0.48,0.28c1.35,0.78,2.35,1.36,2.55,1.47c-0.07-0.05-0.12-0.1-0.16-0.19
				l-2.81-6.22c-0.09-0.19-0.09-0.47-0.01-0.75c0.07-0.25,0.19-0.51,0.37-0.72l5.92-7.18c0.2-0.24,0.36-0.55,0.47-0.86
				c0.09-0.26,0.13-0.51,0.11-0.71c-0.15-1.62-0.15-3.34,0.01-5.11c0.04-0.45-0.35-0.84-0.89-0.87l-5.32-0.3
				c-0.16-0.01-0.3-0.05-0.42-0.12c-0.01,0-0.02-0.01-0.03-0.02c-0.25-0.16-0.36-0.44-0.27-0.74l2.57-8.65l0.36-1.21
				c0.04-0.14,0.13-0.28,0.24-0.41c0.25-0.31,0.66-0.58,1.07-0.68l5.82-1.4c0.41-0.1,0.85-0.37,1.16-0.69
				c0.13-0.13,0.24-0.27,0.31-0.41c0.93-1.85,1.97-3.67,3.13-5.42c0.25-0.39,0.41-0.94,0.37-1.34v-0.01c0-0.08-0.01-0.14-0.03-0.2
				l-1.89-6.4c-0.05-0.19-0.03-0.44,0.06-0.7c0.09-0.28,0.26-0.57,0.47-0.79l0.09-0.09l6.7-7.09c0.31-0.32,0.68-0.44,0.94-0.33
				l0.05,0.03c0.06,0.03,0.12,0.08,0.16,0.15l3.16,4.83c0.23,0.35,0.81,0.32,1.33-0.03c1.28-0.88,2.56-1.62,3.83-2.22
				c0.55-0.26,1.15-0.81,1.33-1.26c0.01-0.01,0.02-0.03,0.02-0.04l3.36-9c0.06-0.17,0.18-0.33,0.33-0.47
				c0.27-0.25,0.65-0.44,1.02-0.47l6.19-0.62c0.21-0.02,0.4,0.01,0.54,0.08c0.02,0.01,0.03,0.01,0.04,0.02
				c0.22,0.13,0.33,0.36,0.27,0.63l-1.95,8.85c-0.1,0.46,0.2,0.94,0.64,1.11c0.98,0.38,1.88,0.9,2.7,1.57
				c0.33,0.27,0.94,0.18,1.39-0.23l6.32-5.78C122.618,162.295,122.938,162.195,123.168,162.285z"/>
			<path id="XMLID_5934_" style="fill:#27DEBF;" d="M119.478,181.595c0,0.81-0.05,1.64-0.12,2.48c-0.04,0.45,0.36,0.83,0.89,0.87
				l5.31,0.3c0.15,0,0.28,0.04,0.39,0.09C125.578,185.125,122.488,183.335,119.478,181.595z"/>
			<path id="XMLID_5936_" style="fill:#27DEBF;" d="M101.538,216.935c-0.22-0.35-0.8-0.32-1.32,0.03c-0.62,0.42-1.25,0.82-1.86,1.18
				l6.51,3.78v-0.01c-0.06-0.03-0.11-0.08-0.16-0.14L101.538,216.935z"/>
			<path id="XMLID_5937_" style="fill:#27DEBF;" d="M84.599,220.355c-0.98-0.38-1.88-0.9-2.71-1.58c-0.33-0.27-0.93-0.17-1.38,0.24
				l-6.32,5.78c-0.24,0.21-0.49,0.32-0.69,0.32c3.53,2.05,9.65,5.59,10.04,5.81c-0.21-0.13-0.31-0.34-0.26-0.6l1.95-8.87
				C85.339,221.005,85.038,220.525,84.599,220.355z"/>
		</g>
		<g id="XMLID_5908_">
			<path id="XMLID_5979_" style="fill:#27DEBF;" d="M102.998,204.205c-2.65,2.8-5.48,4.55-8.05,5.22c-0.11,0.03-0.22,0.06-0.34,0.08
				c-0.08,0.03-0.16,0.04-0.24,0.06c-0.19,0.03-0.37,0.06-0.55,0.09c-0.22,0.03-0.43,0.05-0.64,0.06c-0.14,0.01-0.27,0.01-0.4,0.01
				c-0.06,0.01-0.12,0.01-0.19,0c-2.54-0.02-4.65-1.31-5.83-3.91c-0.44-0.98-0.72-2.07-0.85-3.25c0.48-0.22,0.97-0.48,1.47-0.76
				c6.87-3.97,12.43-13.6,12.43-21.53c0-0.6-0.02-1.16-0.07-1.69c1.54-0.68,3.03-1,4.39-0.93h0.05c0.07,0,0.14,0.01,0.22,0.01
				c0.08,0.01,0.15,0.02,0.22,0.03c0.08,0,0.16,0.01,0.24,0.03c2.11,0.31,3.84,1.58,4.87,3.84
				C112.348,187.375,109.338,197.515,102.998,204.205z"/>
			<path id="XMLID_5885_" style="opacity:0.4;" d="M102.998,204.205c-2.65,2.8-5.48,4.55-8.05,5.22c-0.11,0.03-0.22,0.06-0.34,0.08
				c-0.08,0.03-0.16,0.04-0.24,0.06c-0.19,0.03-0.37,0.06-0.55,0.09c-0.22,0.03-0.43,0.05-0.64,0.06c-0.14,0.01-0.27,0.01-0.4,0.01
				c-0.06,0.01-0.12,0.01-0.19,0c-2.54-0.02-4.65-1.31-5.83-3.91c-0.44-0.98-0.72-2.07-0.85-3.25c0.48-0.22,0.97-0.48,1.47-0.76
				c6.87-3.97,12.43-13.6,12.43-21.53c0-0.6-0.02-1.16-0.07-1.69c1.54-0.68,3.03-1,4.39-0.93h0.05c0.07,0,0.14,0.01,0.22,0.01
				c0.08,0.01,0.15,0.02,0.22,0.03c0.08,0,0.16,0.01,0.24,0.03c2.11,0.31,3.84,1.58,4.87,3.84
				C112.348,187.375,109.338,197.515,102.998,204.205z"/>
			<g id="XMLID_5931_">
				<path id="XMLID_5935_" style="fill:#27DEBF;" d="M125.974,185.356c-0.006-0.006-0.018-0.012-0.031-0.018
					c-0.104-0.055-0.239-0.092-0.386-0.098l-5.306-0.3c-0.539-0.031-0.936-0.416-0.894-0.863c0.073-0.838,0.116-1.671,0.122-2.479
					c0.006-0.9-0.031-1.781-0.116-2.638c-0.037-0.422,0.214-1.12,0.581-1.567l5.924-7.173c0.367-0.447,0.526-1.108,0.361-1.475
					l-2.815-6.224c-0.037-0.086-0.098-0.153-0.171-0.196c-0.012-0.006-0.025-0.012-0.037-0.018
					c-0.233-0.116-0.582-0.018-0.906,0.282l-6.328,5.777c-0.447,0.41-1.053,0.502-1.383,0.233c-0.82-0.673-1.726-1.193-2.705-1.573
					c-0.435-0.171-0.735-0.649-0.637-1.108l1.952-8.856c0.061-0.269-0.049-0.496-0.269-0.624c-0.153-0.086-0.355-0.122-0.588-0.104
					l-6.188,0.618c-0.575,0.055-1.181,0.477-1.353,0.943l-3.354,8.997c-0.171,0.465-0.783,1.034-1.353,1.304
					c-1.267,0.6-2.546,1.34-3.831,2.222c-0.52,0.349-1.102,0.373-1.328,0.031l-3.164-4.835c-0.227-0.343-0.734-0.269-1.145,0.153
					l-6.793,7.179c-0.41,0.428-0.643,1.096-0.526,1.487l1.891,6.408c0.116,0.392-0.043,1.083-0.343,1.542
					c-1.163,1.757-2.203,3.574-3.127,5.423c-0.233,0.465-0.887,0.961-1.475,1.102l-5.814,1.402c-0.588,0.141-1.175,0.63-1.316,1.089
					l-2.925,9.854c-0.141,0.459,0.19,0.857,0.722,0.887l5.313,0.3c0.538,0.031,0.93,0.416,0.894,0.863
					c-0.159,1.775-0.165,3.495-0.012,5.117c0.043,0.428-0.208,1.126-0.575,1.567l-5.924,7.179c-0.367,0.441-0.526,1.102-0.361,1.475
					l2.815,6.218c0.037,0.092,0.098,0.153,0.171,0.196c0,0.006,0,0.006,0.006,0.006c0.006,0.006,0.012,0.006,0.018,0.006
					c0.067,0.037,0.141,0.055,0.22,0.055h0.006c0.208,0,0.453-0.11,0.692-0.324l6.322-5.784c0.447-0.404,1.053-0.502,1.383-0.233
					c0.826,0.673,1.732,1.193,2.705,1.573c0.441,0.171,0.741,0.655,0.636,1.108l-1.952,8.862c-0.055,0.263,0.049,0.477,0.257,0.606
					c0.006,0.006,0.012,0.006,0.018,0.012c0.147,0.086,0.349,0.129,0.581,0.104l6.187-0.612c0.575-0.061,1.181-0.484,1.353-0.943
					l3.36-8.997c0.172-0.465,0.784-1.034,1.353-1.31c0.649-0.306,1.31-0.655,1.965-1.034c0.618-0.361,1.242-0.759,1.867-1.181
					c0.514-0.355,1.101-0.379,1.322-0.037l3.17,4.841c0.043,0.061,0.092,0.11,0.153,0.141c0.257,0.159,0.655,0.049,0.985-0.3
					l6.8-7.179c0.404-0.422,0.636-1.096,0.52-1.487l-1.891-6.402c-0.116-0.398,0.049-1.089,0.349-1.542
					c1.163-1.757,2.203-3.58,3.121-5.429c0.232-0.465,0.887-0.955,1.481-1.095l5.808-1.402c0.594-0.141,1.181-0.63,1.316-1.096
					l2.932-9.847C126.379,185.809,126.25,185.516,125.974,185.356z M94.951,209.421c-0.116,0.031-0.226,0.061-0.343,0.086
					c-0.086,0.025-0.165,0.037-0.245,0.055c-0.184,0.037-0.367,0.067-0.551,0.092c-0.216,0.031-0.428,0.048-0.639,0.062
					c-0.133,0.008-0.265,0.012-0.396,0.014c-0.062,0.001-0.124,0.001-0.186,0c-2.541-0.028-4.655-1.316-5.83-3.92
					c-0.441-0.973-0.722-2.069-0.851-3.244c-0.073-0.581-0.104-1.181-0.098-1.799c0.037-5.612,2.919-12.565,7.675-17.589
					c1.536-1.622,3.121-2.889,4.688-3.801c0.52-0.306,1.047-0.575,1.561-0.796c1.542-0.679,3.03-0.992,4.388-0.93
					c0.018,0,0.031,0,0.049,0.006c0.073,0,0.147,0.006,0.22,0.012c0.08,0.006,0.153,0.012,0.227,0.024
					c0.079,0.006,0.159,0.012,0.239,0.031c2.111,0.306,3.837,1.579,4.866,3.843c2.625,5.808-0.386,15.943-6.726,22.633
					C100.343,207.003,97.522,208.76,94.951,209.421z"/>
			</g>
			<line id="XMLID_5929_" style="fill:none;" x1="110.733" y1="155.081" x2="123.243" y2="162.324"/>
		</g>
		<path id="XMLID_5910_" style="opacity:0.2;" d="M81.418,188.215c-0.31,0.32-0.75,0.59-1.16,0.69l-5.82,1.4
			c-0.41,0.1-0.82,0.37-1.07,0.68l-12.53-7.21c0.26-0.33,0.68-0.61,1.11-0.71l5.81-1.4c0.41-0.1,0.83-0.35,1.14-0.67h0.01
			L81.418,188.215z"/>
		<path id="XMLID_5959_" style="opacity:0.3;" d="M85.228,181.035l-12.5-7.21c0.01-0.08,0-0.16-0.02-0.23l-1.9-6.4
			c-0.05-0.18-0.03-0.41,0.05-0.64l9.55,5.48l2.96,1.7c-0.09,0.26-0.11,0.51-0.06,0.7l1.89,6.4
			C85.218,180.895,85.228,180.955,85.228,181.035z"/>
		<path id="XMLID_5940_" style="opacity:0.3;" d="M105.138,157.425c-0.15,0.14-0.27,0.3-0.33,0.47l-3.36,9
			c0,0.01-0.01,0.03-0.02,0.04l-12.51-7.22c0.02-0.02,0.02-0.04,0.03-0.06l3.36-9c0.06-0.16,0.17-0.32,0.32-0.45L105.138,157.425z"
			/>
		<path id="XMLID_5906_" style="opacity:0.3;" d="M123.168,162.285c-0.23-0.09-0.55,0.01-0.87,0.3l-6.32,5.78
			c-0.45,0.41-1.06,0.5-1.39,0.23c-0.82-0.67-1.72-1.19-2.7-1.57c-0.44-0.17-0.74-0.65-0.64-1.11l1.95-8.85
			c0.06-0.27-0.05-0.5-0.27-0.63c-0.01-0.01-0.02-0.01-0.04-0.02c-0.18-0.11-1.11-0.64-2.38-1.38c0.08,0,0.16,0.01,0.23,0.04
			c0,0,0.06,0.03,0.14,0.09L123.168,162.285z"/>
		<path id="XMLID_5905_" style="opacity:0.3;" d="M125.948,185.335c-0.11-0.05-0.24-0.09-0.39-0.09l-5.31-0.3
			c-0.53-0.04-0.93-0.42-0.89-0.87c0.07-0.84,0.12-1.67,0.12-2.48C122.488,183.335,125.578,185.125,125.948,185.335z"/>
		<path id="XMLID_5933_" style="opacity:0.4;" d="M104.868,221.915v0.01l-6.51-3.78c0.61-0.36,1.24-0.76,1.86-1.18
			c0.52-0.35,1.1-0.38,1.32-0.03l3.17,4.84C104.758,221.835,104.809,221.885,104.868,221.915z"/>
		<path id="XMLID_5930_" style="opacity:0.4;" d="M85.228,221.455l-1.95,8.87c-0.05,0.26,0.05,0.47,0.26,0.6
			c-0.39-0.22-6.51-3.76-10.04-5.81c0.2,0,0.45-0.11,0.69-0.32l6.32-5.78c0.45-0.41,1.05-0.51,1.38-0.24
			c0.83,0.68,1.73,1.2,2.71,1.58C85.038,220.525,85.339,221.005,85.228,221.455z"/>
		<path id="XMLID_5938_" style="opacity:0.2;" d="M77.008,209.125c-0.11,0.31-0.27,0.62-0.47,0.86l-5.92,7.18
			c-0.18,0.21-0.3,0.47-0.37,0.72l-12.5-7.22c0.06-0.26,0.19-0.53,0.37-0.74l5.93-7.18c0.19-0.23,0.35-0.54,0.45-0.84
			L77.008,209.125z"/>
		<path id="XMLID_5953_" style="opacity:0.1;" d="M101.428,166.935c-0.18,0.45-0.78,1-1.33,1.26c-1.27,0.6-2.55,1.34-3.83,2.22
			c-0.52,0.35-1.1,0.38-1.33,0.03l-3.16-4.83c-0.04-0.07-0.1-0.12-0.16-0.15l-0.05-0.03l-5.94-3.44c0.66-0.38,1.32-0.73,1.97-1.03
			c0.08-0.04,0.15-0.08,0.23-0.13c0.23-0.14,0.45-0.32,0.64-0.51c0.08-0.08,0.16-0.17,0.23-0.26c0.06-0.06,0.1-0.12,0.13-0.18
			s0.06-0.11,0.09-0.17L101.428,166.935z"/>
		<path id="XMLID_5949_" style="opacity:0.4;" d="M77.118,208.415c0.02,0.2-0.02,0.45-0.11,0.71l-12.51-7.22
			c0.09-0.27,0.14-0.52,0.12-0.72c-0.08-0.86-0.12-1.74-0.11-2.64l5.96,3.45c0.01,0.01,0.02,0.02,0.03,0.02
			c0.12,0.07,0.26,0.11,0.42,0.12l5.32,0.3c0.54,0.03,0.93,0.42,0.89,0.87C76.968,205.075,76.968,206.795,77.118,208.415z"/>
		<path id="XMLID_5942_" style="opacity:0.1;" d="M85.228,181.035v0.01c0.04,0.4-0.12,0.95-0.37,1.34c-1.16,1.75-2.2,3.57-3.13,5.42
			c-0.07,0.14-0.18,0.28-0.31,0.41l-12.51-7.22c0.07-0.06,0.14-0.14,0.18-0.21c0.07-0.07,0.11-0.14,0.15-0.21
			c0.91-1.85,1.96-3.68,3.12-5.43c0.06-0.09,0.11-0.18,0.15-0.28c0.04-0.06,0.06-0.13,0.08-0.2c0.02-0.03,0.03-0.07,0.04-0.11
			c0.01-0.01,0.01-0.03,0.01-0.06c0.03-0.09,0.05-0.18,0.06-0.26c0.04-0.15,0.05-0.29,0.03-0.41L85.228,181.035z"/>
		<path id="XMLID_5925_" style="opacity:0.3;" d="M69.089,180.785c-0.04,0.07-0.11,0.15-0.18,0.21h-0.01
			C68.968,180.925,69.038,180.855,69.089,180.785z"/>
		<path id="XMLID_5932_" style="opacity:0.4;" d="M73.228,225.045c-0.2-0.11-1.2-0.69-2.55-1.47c-0.16-0.09-0.32-0.19-0.48-0.28
			c-1.23-0.72-2.7-1.56-4.1-2.37c-0.38-0.22-0.75-0.44-1.11-0.64c-2.17-1.27-3.98-2.31-4.21-2.44l-0.02-0.02
			c-0.04-0.02-0.08-0.05-0.1-0.08c-0.04-0.04-0.06-0.08-0.08-0.12l-2.82-6.23c-0.07-0.14-0.08-0.32-0.05-0.52
			c0.01-0.07,0.03-0.14,0.04-0.21l12.5,7.22c-0.08,0.28-0.08,0.56,0.01,0.75l2.81,6.22
			C73.108,224.945,73.158,224.995,73.228,225.045z"/>
		<path id="XMLID_5379_" style="opacity:0.3;" d="M60.839,183.775c-0.1,0.13-0.17,0.26-0.21,0.39l-0.36,1.22l-1.91,6.43l-0.65,2.2
			c-0.04,0.12-0.04,0.25-0.01,0.36c0.02,0.07,0.04,0.13,0.08,0.19c0.04,0.06,0.09,0.12,0.15,0.16c0.01,0.01,0.04,0.03,0.1,0.07
			l0.98,0.57l0.27,0.15v0.01l0.78,0.45l0.42,0.25l0.48,0.27l0.18,0.11l0.51,0.29l2.83,1.63c0.02,0.01,0.03,0.02,0.03,0.02l5.96,3.45
			c-0.25-0.16-0.36-0.44-0.27-0.74l2.57-8.65l0.36-1.21c0.04-0.14,0.13-0.28,0.24-0.41L60.839,183.775z"/>
		<path id="XMLID_5378_" style="opacity:0.5;fill:#FFFFFF;" d="M85.629,161.995l-6.49-3.76c-0.08-0.05-0.17-0.08-0.28-0.08
			c-0.23,0-0.49,0.13-0.72,0.38h-0.01l-4.06,4.29l-2.73,2.88c-0.23,0.24-0.39,0.55-0.48,0.85l9.55,5.48l2.96,1.7
			c0.09-0.28,0.26-0.57,0.47-0.79l0.09-0.09l6.7-7.09c0.31-0.32,0.68-0.44,0.94-0.33L85.629,161.995z"/>
		<path id="XMLID_5941_" style="opacity:0.5;fill:#FFFFFF;" d="M112.888,156.415c-0.14-0.07-0.33-0.1-0.54-0.08l-6.19,0.62
			c-0.37,0.03-0.75,0.22-1.02,0.47l-12.51-7.22c0.27-0.26,0.66-0.45,1.03-0.49l6.19-0.61c0.25-0.03,0.46,0.02,0.61,0.11
			c0.04,0.03,0.69,0.4,1.67,0.97c0.25,0.15,0.53,0.31,0.82,0.48c1.52,0.88,3.5,2.02,5.3,3.07c0.45,0.26,0.89,0.52,1.31,0.76
			c0.33,0.18,0.65,0.37,0.95,0.54C111.779,155.775,112.708,156.305,112.888,156.415z"/>
		<line id="XMLID_5926_" style="fill:none;" x1="110.878" y1="155.165" x2="110.728" y2="155.085"/>
	</g>
</g>
<g id="Device">
	<g id="Device_1_">
		<path id="XMLID_5657_" style="fill:#37474F;" d="M263.793,76.388c-0.274-2.01-1.888-2.741-3.827-1.614l-106.479,61.467
			c-2.132,1.239-3.868,4.243-3.868,6.71v234.961c0,2.274,1.472,3.309,3.38,2.477c-2.142,0.985-5.268,0.904-7.258-0.244l-4.435-2.554
			c-2.142-1.228-3.878-4.233-3.878-6.71V135.931c0-2.477,1.736-5.482,3.878-6.71l106.469-61.477c2.132-1.238,5.604-1.238,7.745,0
			l4.446,2.554C261.925,71.434,263.549,74.053,263.793,76.388z"/>
		<path id="XMLID_5667_" style="fill:#455A64;" d="M259.965,74.774l-106.479,61.467c-2.132,1.239-3.868,4.243-3.868,6.71v234.961
			c0,2.467,1.736,3.472,3.868,2.233l106.479-61.467c2.132-1.238,3.868-4.243,3.868-6.71V77.007
			C263.833,74.54,262.097,73.535,259.965,74.774z M258.26,289.842c0,2.112-1.482,3.457-3.319,4.513l-96.814,55.894
			c-1.827,1.056-3.32,0.203-3.32-1.919V165.396c0-2.122,1.492-4.69,3.32-5.756l96.814-55.884c1.837-1.066,3.319-0.203,3.319,1.909
			V289.842z"/>
		<path id="XMLID_5659_" style="fill:#263238;" d="M152.999,380.389c-2.142,0.985-5.268,0.904-7.258-0.244l-4.435-2.554
			c-2.142-1.238-3.878-4.233-3.878-6.71V135.931c0-1.238,0.437-2.609,1.137-3.827l12.191,7.03c-0.7,1.218-1.137,2.589-1.137,3.817
			v234.961C149.619,380.186,151.091,381.221,152.999,380.389z"/>
		<path id="XMLID_5598_" style="fill:#263238;" d="M206.725,111.717c1.434-0.828,2.596-0.157,2.596,1.499
			c0,1.655-1.162,3.669-2.596,4.496c-1.434,0.828-2.596,0.157-2.596-1.499C204.13,114.558,205.292,112.545,206.725,111.717z"/>
		<g id="XMLID_5595_">
			<path id="XMLID_5597_" style="fill:#263238;" d="M199.229,124.684c5.274-2.916,14.684-8.516,19.884-11.574
				c0.883-0.519,1.598-0.162,1.598,0.799s-0.719,2.155-1.606,2.667l-19.917,11.504c-0.887,0.512-1.606,0.148-1.606-0.813
				C197.582,126.306,198.333,125.18,199.229,124.684z"/>
			<path id="XMLID_5596_" style="fill:#263238;" d="M194.197,127.592c0.805-0.465,1.458-0.088,1.458,0.841
				c0,0.93-0.653,2.06-1.458,2.525c-0.805,0.465-1.458,0.088-1.458-0.842C192.74,129.187,193.392,128.057,194.197,127.592z"/>
		</g>
		<path id="XMLID_5594_" style="fill:none;stroke:#E6E6E6;stroke-miterlimit:10;" d="M207.647,328.31
			c3.376-1.949,6.113-0.369,6.113,3.529c0,3.898-2.737,8.639-6.113,10.588c-3.376,1.949-6.113,0.369-6.113-3.529
			C201.534,335,204.27,330.259,207.647,328.31z"/>
		<path id="XMLID_5723_" style="fill:#37474F;" d="M258.258,105.665v184.18c0,2.11-1.48,4.69-3.32,5.74l-96.81,55.9
			c-1.83,1.05-3.32,0.2-3.32-1.92v-11.49l87.91-50.75c1.84-1.06,3.32-2.4,3.32-4.51v-173.92l8.9-5.14
			C256.779,102.695,258.258,103.555,258.258,105.665z"/>
		<path id="XMLID_5718_" style="fill:#263238;" d="M254.938,103.755l-8.9,5.14v173.92c0,1.686-0.951,2.876-2.269,3.828l12.859,7.424
			c0.974-1.229,1.63-2.825,1.63-4.223v-184.18C258.258,103.555,256.779,102.695,254.938,103.755z"/>
	</g>
</g>
<g id="Speach_Bubbles">
	<g id="XMLID_5904_">
		<g id="XMLID_5754_">
			<g id="XMLID_5758_">
				<g id="XMLID_5805_">
					<path id="XMLID_5806_" style="fill:#E0E0E0;" d="M163.665,292.406l-5.54-3.2c-0.11-0.05-0.2-0.12-0.26-0.23l-1.02-1.78
						l3.29-1.9l-0.1,0.29L163.665,292.406z"/>
				</g>
				<path id="XMLID_5775_" style="fill:#EBEBEB;" d="M159.633,285.567l3.834,6.641c0.245,0.425,0.876,0.364,1.036-0.099
					l4.052-11.698L159.633,285.567z"/>
				<path id="XMLID_5769_" style="fill:#EBEBEB;" d="M177.719,250.141c0-1.709-1.199-3.786-2.679-4.641l-2.182-1.26
					c-1.48-0.854-3.879-0.854-5.359,0l-43.386,25.025c-1.48,0.854-2.679,2.932-2.679,4.641v21.971c0,1.709,1.2,3.786,2.679,4.641
					l2.182,1.259c1.48,0.854,3.879,0.854,5.359,0l43.635-25.207c2.407-1.372,2.429-2.75,2.429-4.459L177.719,250.141z"/>
				<path id="XMLID_5768_" style="fill:#E0E0E0;" d="M121.435,295.877c0,1.709,1.2,3.786,2.679,4.641l2.182,1.259
					c1.338,0.772,3.419,0.848,4.901,0.225c-1.261,0.477-2.221-0.243-2.221-1.772l0-21.971c0-0.854,0.3-1.801,0.785-2.641
					l-7.54-4.353c-0.485,0.84-0.785,1.786-0.785,2.641V295.877z"/>
				<path id="XMLID_5759_" style="fill:#FAFAFA;" d="M177.632,249.379c-0.313-1.138-1.35-1.5-2.587-0.788l-43.391,25.03
					c-0.737,0.425-1.412,1.15-1.887,2l-7.537-4.35c0.487-0.85,1.15-1.575,1.887-2l43.379-25.03c1.488-0.85,3.887-0.85,5.363,0
					l2.188,1.263C176.307,246.229,177.369,247.854,177.632,249.379z"/>
			</g>
			<g id="XMLID_5755_">
				<path id="XMLID_5757_" style="fill:#455A64;" d="M136.176,279.85l30.991-17.979c0.897-0.518,1.624-0.281,1.624,0.528
					s-0.727,1.886-1.624,2.403l-30.991,17.978c-0.897,0.518-1.624,0.281-1.624-0.528
					C134.552,281.444,135.279,280.368,136.176,279.85z"/>
				<path id="XMLID_5756_" style="fill:#455A64;" d="M136.176,287.209l30.991-17.973c0.897-0.518,1.624-0.281,1.624,0.528
					c0,0.81-0.727,1.886-1.624,2.403l-30.991,17.973c-0.897,0.518-1.624,0.281-1.624-0.528
					C134.552,288.803,135.279,287.727,136.176,287.209z"/>
			</g>
		</g>
		<g id="XMLID_5807_">
			<g id="XMLID_5812_">
				<g id="XMLID_5817_">
					<path id="XMLID_5851_" style="fill:#27DEBF;" d="M92.742,300.516l-5.54-3.2c-0.11-0.05-0.2-0.12-0.26-0.23l-1.02-1.78l3.29-1.9
						l-0.1,0.29L92.742,300.516z"/>
					<path id="XMLID_5850_" style="opacity:0.2;" d="M92.742,300.516l-5.54-3.2c-0.11-0.05-0.2-0.12-0.26-0.23l-1.02-1.78l3.29-1.9
						l-0.1,0.29L92.742,300.516z"/>
				</g>
				<path id="XMLID_5816_" style="fill:#27DEBF;" d="M88.71,293.677l3.834,6.641c0.245,0.425,0.876,0.364,1.036-0.099l4.052-11.698
					L88.71,293.677z"/>
				<path id="XMLID_5815_" style="fill:#27DEBF;" d="M134.188,239.049c0-1.709-1.199-3.786-2.679-4.641l-2.182-1.26
					c-1.48-0.854-3.879-0.854-5.359,0l-51.507,29.75c-1.48,0.855-2.679,2.932-2.679,4.641v25.281c0,1.709,1.2,3.786,2.679,4.641
					l2.182,1.259c1.48,0.854,3.879,0.854,5.359,0l51.757-29.932c2.407-1.372,2.429-2.75,2.429-4.459L134.188,239.049z"/>
				<path id="XMLID_5814_" style="opacity:0.2;" d="M69.782,292.821c0,1.709,1.2,3.786,2.679,4.641l2.182,1.259
					c1.338,0.772,3.419,0.848,4.901,0.225c-1.261,0.477-2.221-0.243-2.221-1.772l0-25.281c0-0.855,0.3-1.801,0.785-2.641
					l-7.54-4.353c-0.485,0.84-0.785,1.786-0.785,2.641V292.821z"/>
				<path id="XMLID_5813_" style="opacity:0.4;fill:#FFFFFF;" d="M134.1,238.288c-0.313-1.137-1.35-1.5-2.587-0.788L80,267.255
					c-0.737,0.425-1.412,1.15-1.888,2l-7.537-4.35c0.487-0.85,1.15-1.575,1.887-2l51.501-29.755c1.488-0.85,3.887-0.85,5.363,0
					l2.188,1.262C132.775,235.138,133.838,236.763,134.1,238.288z"/>
			</g>
			<g id="XMLID_5808_">
				<path id="XMLID_5811_" style="fill:#FFFFFF;" d="M84.522,278.991l27.851-16.132c0.897-0.518,1.624-0.281,1.624,0.528
					s-0.727,1.886-1.624,2.403l-27.851,16.131c-0.897,0.518-1.624,0.281-1.624-0.528C82.899,280.585,83.626,279.509,84.522,278.991z
					"/>
				<path id="XMLID_5810_" style="fill:#FFFFFF;" d="M84.522,286.35l39.113-22.698c0.897-0.518,1.624-0.281,1.624,0.529
					c0,0.81-0.727,1.886-1.624,2.403l-39.113,22.697c-0.897,0.518-1.624,0.281-1.624-0.528
					C82.899,287.944,83.626,286.868,84.522,286.35z"/>
				<path id="XMLID_5809_" style="fill:#FFFFFF;" d="M84.522,271.266l39.113-22.698c0.897-0.518,1.624-0.281,1.624,0.529
					c0,0.81-0.727,1.886-1.624,2.403l-39.113,22.697c-0.897,0.518-1.624,0.281-1.624-0.528
					C82.899,272.86,83.626,271.784,84.522,271.266z"/>
			</g>
		</g>
	</g>
	<g id="XMLID_6023_">
		<path id="XMLID_5920_" style="fill:#E0E0E0;" d="M439.669,108.881l-4.055-2.341v0.001c-0.471-0.277-1.123-0.241-1.844,0.176
			l-88.23,50.94c-1.435,0.829-2.598,2.843-2.598,4.5l0,45.593c0,0.843,0.303,1.428,0.789,1.692l-0.003,0.002l4.045,2.336v-3.82
			l85.998-49.65c1.435-0.829,2.598-2.843,2.598-4.5v-43.247L439.669,108.881z"/>
		<path id="XMLID_5918_" style="fill:#FAFAFA;" d="M351.063,163.848l85.304-49.25v-4.034l3.302-1.682l-4.055-2.341v0.001
			c-0.471-0.277-1.123-0.241-1.844,0.176l-88.23,50.94c-0.717,0.414-1.367,1.125-1.837,1.94L351.063,163.848z"/>
		<path id="XMLID_5914_" style="fill:#F5F5F5;" d="M349.6,160.002l88.23-50.94c1.435-0.828,2.598-0.157,2.598,1.5v45.593
			c0,1.657-1.163,3.672-2.598,4.5l-88.231,50.94c-1.435,0.828-2.598,0.157-2.598-1.5l0-45.593
			C347.002,162.846,348.165,160.831,349.6,160.002z"/>
		<g id="XMLID_5750_">
			<g id="XMLID_5915_">
				<path id="XMLID_5884_" style="fill:#27DEBF;" d="M354.095,164.443l26.434-15.262c1.674-0.966,3.031-0.183,3.031,1.75l0,30.524
					c0,1.933-1.357,4.283-3.031,5.25l-26.434,15.262c-1.674,0.966-3.031,0.183-3.031-1.75l0-30.523
					C351.064,167.76,352.421,165.41,354.095,164.443z"/>
				<g id="XMLID_5751_">
					<path id="XMLID_5753_" style="fill:#FAFAFA;" d="M367.088,163.324c2.804-1.619,5.077-0.307,5.077,2.931
						c0,3.238-2.273,7.175-5.077,8.794c-2.804,1.619-5.077,0.306-5.077-2.931S364.284,164.943,367.088,163.324z"/>
					<path id="XMLID_5752_" style="fill:#FAFAFA;" d="M377.093,180.64c0-5.319-3.735-7.681-8.341-5.021l-2.88,1.662
						c-4.606,2.66-8.341,9.128-8.341,14.447v1.432l19.561-11.286V180.64z"/>
				</g>
			</g>
		</g>
		<path id="XMLID_5883_" style="fill:#E0E0E0;" d="M393.85,143.835l36.289-20.952c1.196-0.69,2.165-0.2,2.166,1.095
			c0,1.295-0.969,2.905-2.165,3.596l-36.29,20.952c-1.196,0.69-2.165,0.2-2.165-1.096
			C391.685,146.135,392.655,144.526,393.85,143.835z"/>
		<path id="XMLID_5917_" style="fill:#E0E0E0;" d="M393.85,153.216l36.289-20.952c1.196-0.69,2.165-0.2,2.166,1.096
			c0,1.295-0.969,2.905-2.165,3.596l-36.29,20.952c-1.196,0.69-2.165,0.2-2.165-1.096
			C391.685,155.516,392.655,153.907,393.85,153.216z"/>
		<path id="XMLID_5919_" style="fill:#E0E0E0;" d="M393.85,162.597l36.289-20.952c1.196-0.69,2.165-0.2,2.166,1.096
			c0,1.295-0.969,2.905-2.165,3.596l-36.29,20.952c-1.196,0.69-2.165,0.2-2.165-1.096
			C391.685,164.898,392.655,163.288,393.85,162.597z"/>
		<path id="XMLID_5921_" style="fill:#E0E0E0;" d="M393.85,171.978l36.289-20.952c1.196-0.69,2.165-0.2,2.166,1.096
			c0,1.295-0.969,2.905-2.165,3.596l-36.29,20.952c-1.196,0.69-2.165,0.2-2.165-1.096
			C391.685,174.279,392.655,172.669,393.85,171.978z"/>
	</g>
</g>
<g id="Window">
	<g id="XMLID_5528_">
		<path id="XMLID_5380_" style="opacity:0.2;fill:#27DEBF;" d="M291.791,283.402c0,2.111-1.482,3.457-3.319,4.513l-96.814,55.894
			c-1.827,1.056-3.319,0.203-3.319-1.919V158.956c0-2.122,1.492-4.69,3.319-5.756l96.814-55.884
			c1.837-1.066,3.319-0.203,3.319,1.909V283.402z"/>
		<path id="XMLID_5628_" style="fill:#27DEBF;" d="M190.176,344.764c-0.403,0-0.779-0.097-1.115-0.291
			c-0.789-0.455-1.224-1.372-1.224-2.583V158.956c0-2.304,1.567-5.021,3.568-6.188l96.816-55.885
			c1.047-0.608,2.059-0.691,2.847-0.238c0.789,0.454,1.223,1.37,1.223,2.579v184.178c0,2.596-2.037,4.066-3.57,4.947l-96.813,55.893
			C191.307,344.589,190.718,344.764,190.176,344.764z M289.957,97.358c-0.365,0-0.786,0.131-1.233,0.391l-96.815,55.884
			c-1.692,0.986-3.07,3.375-3.07,5.323V341.89c0,0.838,0.257,1.448,0.724,1.717c0.466,0.271,1.124,0.188,1.847-0.23l96.814-55.894
			c2.123-1.221,3.069-2.478,3.069-4.081V99.224c0-0.837-0.256-1.444-0.722-1.713C290.391,97.409,290.185,97.358,289.957,97.358z"/>
	</g>
</g>
<g id="Character">
	<g id="Character_12_">
		<g id="XMLID_6008_">
			<path id="XMLID_6009_" style="fill:#FFA8A7;" d="M344.464,273.802c0.701-26.045-1.387-32.287-8.321-37.059l-2.686,15.092
				c0,0,3.159,17.785,2.82,23.708c-0.298,5.203-0.804,11.714-2.035,15.921c-0.218,0.745-0.721,1.373-1.379,1.784
				c-1.766,1.105-2.478,2.238-3.808,3.631c-1.041,1.09-1.928,1.361-1.791,1.708c0.176,0.446,0.919,1.167,2.195,0.778
				c0.642-0.196,1.471-0.698,2.505-1.359c0,0-0.739,2.17-2.566,4.41c-2.476,3.035-2.585,4.9,2.414,4.944
				c3.133,0.028,5.632-1.904,7.989-8.807c0.679-1.988,1.742-5.128,2.202-7.751C343.201,283.97,344.351,277.994,344.464,273.802z"/>
		</g>
		<path id="XMLID_6007_" style="fill:#37474F;" d="M330.308,234.764c3.31-0.479,7.809,0.214,10.715,5.412
			c2.906,5.198,3.619,14.139,3.95,23.029c0,0-5.773,4.828-12.698,2.454L330.308,234.764z"/>
		<g id="XMLID_5972_">
			<g id="XMLID_5994_">
				<g id="XMLID_6005_">
					<path id="XMLID_6006_" style="fill:#263238;" d="M340.046,378.017c0.526,0.199,0.659,1.2,0.738,3.191
						c0.06,1.506,0.383,4.135-1.381,4.66c-1.764,0.525-4.349,0.257-5.479-1.163c-1.411-1.772-2.365-3.332-4.379-5.494
						c-1.747-1.875-3.637-3.626-4.342-6.256c-0.637-2.377-0.107-3.408,1.515-4.099c2.23-0.95,5.733,2.155,7.48,2.644
						C335.703,371.921,339.521,377.818,340.046,378.017z"/>
				</g>
				<g id="XMLID_6003_">
					<path id="XMLID_6004_" style="fill:#FFA8A7;" d="M340.046,376.174v2.444c0,0-2.541,1.953-6.176,0.167
						c-0.107-0.236-0.641-3.496-0.641-3.496L340.046,376.174z"/>
				</g>
				<g id="XMLID_6001_">
					<path id="XMLID_6002_" style="fill:#263238;" d="M320.254,392.101c0,0,0.701,2.125,1.079,3.984
						c0.3,1.477,0.731,3.947,0.213,5.059c-0.518,1.111-2.536,1.829-5.665,1.805c-2.027-0.015-5.185,1.361-7.347,2.567
						c-2.233,1.246-6.878,1.743-9.24,1.465c-2.784-0.327-5.668-1.941-6.118-3.094c-0.45-1.153,0.148-2.35,6.709-5.146
						c0.06-0.026,9.12-2.972,12.295-6.475L320.254,392.101z"/>
				</g>
				<g id="XMLID_5999_">
					<path id="XMLID_6000_" style="fill:#FFA8A7;" d="M320.254,389.459c0,0-0.009,1.814,0,2.85c0.009,1.036-1.215,2.581-4.384,2.468
						c-2.226-0.079-3.779-0.678-3.691-2.511v-2.642L320.254,389.459z"/>
				</g>
				<g id="XMLID_5997_">
					<path id="XMLID_5998_" style="fill:#37474F;" d="M341.635,343.742c-1.119-7.985-2.886-12.728-2.886-12.728
						s0.872-10.982,1.291-21.394c0.452-11.246-0.024-25.383,0.19-28.189c0,0-36.29-7.343-36.938,5.658
						c-0.647,13.001,1.433,46.095,1.862,51.806c0.429,5.712,1.416,10.762,2.596,20.019c1.164,9.136,4.429,30.71,4.429,30.71
						c4.146,2.241,8.075-0.165,8.075-0.165s2.554-25.995,2.286-32.585c-0.327-8.047-2.499-14.384-2.499-14.384
						s0.688-10.72,1.296-20.044c0.607-9.324,1.251-13.803,1.392-17.859l0.781-0.387c0,0,0.796,16.086,1.225,21.798
						c0.429,5.711,1.337,11.187,2.99,21.796c1.433,9.203,5.702,28.674,5.702,28.674c4.146,2.242,6.619-0.293,6.619-0.293
						S342.754,351.727,341.635,343.742z"/>
				</g>
				<g id="XMLID_5995_">
					<path id="XMLID_5996_" style="fill:#263238;" d="M322.729,304.587c0,0,8.803-4.338,13.21-8.251c0,0-4.091,5.765-9.461,8.32
						c0,0-1.91,19.983-1.9,19.587l-1.103-19.686L322.729,304.587z"/>
				</g>
			</g>
			<g id="XMLID_5991_">
				<g id="XMLID_5992_">
					<polygon id="XMLID_5993_" style="fill:#FFA8A7;" points="314.893,230.647 317.04,242.466 327.717,241.686 325.475,228.288 
											"/>
				</g>
			</g>
			<g id="XMLID_5988_">
				<g id="XMLID_5989_">
					<path id="XMLID_5990_" style="fill:#27DEBF;" d="M338.992,240.823c-1.057-3.214-5.134-6.711-9.214-5.954
						c-7.495,1.392-13.44,2.881-17.867,4.462c-3.735,1.334-7.138,4.562-7.447,16.848c0,0-1.251,28.642-1.273,34.182
						c9.379,3.712,19.134,3.597,24.526,2.419c11.224-2.452,12.578-7.108,12.578-7.108s0.145-20.597-0.191-29.493
						C339.818,248.622,339.718,243.029,338.992,240.823z"/>
				</g>
			</g>
			<g id="XMLID_5983_">
				<g id="XMLID_5986_">
					<path id="XMLID_5987_" style="fill:#F28F8F;" d="M306.656,216.271c0,0-2.707,4.316-2.379,4.727
						c0.329,0.411,2.4,0.741,2.4,0.741L306.656,216.271z"/>
				</g>
				<g id="XMLID_5984_">
					<path id="XMLID_5985_" style="fill:#FFA8A7;" d="M314.174,204.329c-5.646,1.324-7.227,3.855-7.559,12.878
						c-0.346,9.428,0.682,12.366,1.947,13.606c0.855,0.837,5.498,0.887,7.824,0.189c2.912-0.874,9.48-3.369,12.474-8.175
						c3.522-5.654,4.31-13.228,0.335-16.238C323.603,202.352,316.472,203.79,314.174,204.329z"/>
				</g>
			</g>
			<g id="XMLID_5974_">
				<g id="XMLID_5980_">
					<g id="XMLID_5981_">
						<path id="XMLID_5982_" style="fill:#263238;" d="M306.678,206.676c1.656,2.837,5.253,4.193,5.253,4.193
							c1.082,1.233,0.486,6.043,2.391,6.806c0,0,0.818-3.501,3.761-3.129c2.963,0.374,3.446,4.129,1.637,6.457
							c-1.81,2.328-3.564,1.491-3.564,1.491s0.203,4.973,2.47,7.739c0,0,2.527,0.755,7.118-0.332
							c2.822-0.668,6.752-4.303,8.353-8.094c3.387-8.02,3.475-15.169-1.642-17.196c-0.63-3.646-3.548-5.221-6.849-5.902
							c-7.105-1.464-11.685,2.97-17.154,2.585C305.322,201.074,304.737,203.353,306.678,206.676z"/>
					</g>
				</g>
				<g id="XMLID_5976_">
					<g id="XMLID_5977_">
						<path id="XMLID_5978_" style="fill:#263238;" d="M332.572,205.834l3.349-2.077c-0.574-0.925-1.789-1.209-2.713-0.636
							C332.283,203.694,331.998,204.909,332.572,205.834z"/>
					</g>
				</g>
			</g>
		</g>
		<path id="XMLID_5964_" style="fill:#FFA8A7;" d="M266.767,260.607c1.756,0.781,22.44,16.068,25.665,14.287
			c3.225-1.78,19.771-21.111,19.771-21.111c4.805-7.961,0-14.502,0-14.502s-5.306,0.98-8.079,5.177
			c-2.773,4.197-14.766,19.236-14.766,19.236c-2.962-1.482-5.913-2.986-8.855-4.508c-2.424-1.255-4.852-2.508-7.225-3.858
			c-0.592-0.337-1.374-0.664-1.865-1.15c-1.17-1.157-0.969-3.956-0.947-5.478c0.01-0.712,0.02-1.425,0.103-2.132
			c0.101-0.869,0.267-2.998-1.298-2.322c-0.302,0.13-0.547,0.367-0.747,0.628c-0.246,0.32-0.437,0.683-0.56,1.067
			c-0.295,0.92-0.2,1.927-0.471,2.855c-0.039,0.135-0.09,0.274-0.192,0.37c-0.128,0.122-0.317,0.157-0.494,0.151
			c-2.28-0.069-4.437-3.263-5.484-4.959c-0.466-0.755-0.925-1.595-1.729-1.971c-1.247-0.583-2.746,0.252-3.549,1.37
			c-1.024,1.426-1.332,3.278-1.13,5.022c0.28,2.417,1.207,4.653,2.972,6.298C260.562,257.573,263.466,259.139,266.767,260.607z"/>
		<path id="XMLID_5963_" style="fill:#37474F;" d="M313.889,238.657c-2.282,0.263-6.072,0.435-9.785,4.64
			c-4.341,4.917-10.059,12.944-10.059,12.944s1.552,7.784,10.004,9.418c0,0,7.827-8.019,10.004-12.434
			C316.229,248.81,316.576,241.637,313.889,238.657z"/>
	</g>
</g>
<g id="Chart">
	<g id="XMLID_5627_">
		<g id="XMLID_5633_">
			<path id="XMLID_15747_" style="fill:#455A64;" d="M353.796,136.794v-31.53l18.623,12.308
				C367.026,126.05,360.909,132.364,353.796,136.794z"/>
			<polygon id="XMLID_5634_" style="fill:#37474F;" points="353.796,105.263 346.348,100.963 346.348,132.494 353.796,136.794 			
				"/>
		</g>
		<g id="XMLID_1331_">
			<polygon id="XMLID_15744_" style="fill:#27DEBF;" points="383.232,81.381 355.318,101.455 347.87,97.155 375.784,77.081 			"/>
			<polygon id="XMLID_1328_" style="opacity:0.5;" points="383.232,81.381 355.318,101.455 347.87,97.155 375.784,77.081 			"/>
			<path id="XMLID_15743_" style="fill:#27DEBF;" d="M383.232,81.381c0.757,10.18-2.245,21.433-8.734,32.751l-11.643-7.695
				l-7.538-4.982L383.232,81.381z"/>
			<path id="XMLID_1327_" style="opacity:0.3;" d="M383.232,81.381c0.757,10.18-2.245,21.433-8.734,32.751l-11.643-7.695
				l-7.538-4.982L383.232,81.381z"/>
			<polygon id="XMLID_15742_" style="fill:#27DEBF;" points="374.498,114.132 367.05,109.832 347.87,97.155 355.318,101.455 			"/>
			<polygon id="XMLID_1329_" style="opacity:0.7;" points="374.498,114.132 367.05,109.832 347.87,97.155 355.318,101.455 			"/>
		</g>
		<g id="XMLID_1330_">
			<path id="XMLID_15741_" style="fill:#27DEBF;" d="M344.149,87.679l-5.322-21.574c0.748-0.607,1.466-1.153,2.329-1.773
				c9.824-7.071,19.16-8.344,25.672-4.579c1.551,0.897,7.367,4.253,7.367,4.253c2.197,2.673,0.525,5.557,1.239,10.018
				l-29.141,20.956l-0.292,0.21L344.149,87.679z"/>
			<path id="XMLID_5636_" style="opacity:0.7;fill:#FFFFFF;" d="M344.149,87.679l-5.322-21.574c0.748-0.607,1.466-1.153,2.329-1.773
				c9.824-7.071,19.16-8.344,25.672-4.579c1.551,0.897,7.367,4.253,7.367,4.253c2.197,2.673,0.525,5.557,1.239,10.018
				l-29.141,20.956l-0.292,0.21L344.149,87.679z"/>
			<path id="XMLID_15740_" style="fill:#27DEBF;" d="M351.597,91.979l-5.322-21.574c0.748-0.608,1.467-1.153,2.329-1.773
				c16.453-11.843,31.538-7.422,34.278,9.692l-29.141,20.956l-0.292,0.21L351.597,91.979z"/>
			<path id="XMLID_5635_" style="opacity:0.5;fill:#FFFFFF;" d="M351.597,91.979l-5.322-21.574c0.748-0.608,1.467-1.153,2.329-1.773
				c16.453-11.843,31.538-7.422,34.278,9.692l-29.141,20.956l-0.292,0.21L351.597,91.979z"/>
			<polygon id="XMLID_5632_" style="fill:#27DEBF;" points="338.827,66.105 346.275,70.405 353.45,99.491 346.002,95.191 			"/>
			<polygon id="XMLID_5637_" style="opacity:0.1;" points="338.827,66.105 346.275,70.405 353.45,99.491 346.002,95.191 			"/>
		</g>
		<g id="XMLID_15736_">
			<path id="XMLID_15738_" style="fill:#27DEBF;" d="M343.506,134.132c-4.813,2.539-8.953,6.05-12.942,5.9l-7.448-4.3
				c-3.896-2.224-6.776-6.316-8.213-12.137c-2-8.106-0.756-18.429,3.501-29.067c4.012-10.026,10.248-19.201,17.667-26.033l7.448,4.3
				l-2.762,14.696l2.75,11.147L343.506,134.132z"/>
			<path id="XMLID_5638_" style="opacity:0.2;" d="M343.506,134.132c-4.813,2.539-8.953,6.05-12.942,5.9l-7.448-4.3
				c-3.896-2.224-6.776-6.316-8.213-12.137c-2-8.106-0.756-18.429,3.501-29.067c4.012-10.026,10.248-19.201,17.667-26.033l7.448,4.3
				l-2.762,14.696l2.75,11.147L343.506,134.132z"/>
			<path id="XMLID_5631_" style="fill:#27DEBF;" d="M350.954,138.432c-13.824,7.292-25.219,3.176-28.603-10.537
				c-2-8.106-0.756-18.429,3.501-29.067c4.012-10.026,10.248-19.201,17.667-26.032l4.686,18.996l2.75,11.147V138.432z"/>
		</g>
	</g>
</g>
<g id="Envelope">
	<g id="XMLID_16503_">
		<g id="XMLID_16505_">
			<path id="XMLID_16727_" style="fill:#27DEBF;" d="M367.673,221.707c0-0.824,0.579-1.827,1.293-2.239l66.127-38.178
				c0.714-0.412,1.871-0.412,2.585,0l1.457,0.841c0.714,0.412,1.293,1.414,1.293,2.239v50.688c0,0.821-0.582,1.828-1.293,2.239
				l-66.127,38.178c-0.711,0.411-1.874,0.411-2.585,0l-1.457-0.841c-0.711-0.41-1.293-1.418-1.293-2.239L367.673,221.707z"/>
			<path id="XMLID_5927_" style="opacity:0.4;fill:#FFFFFF;" d="M367.673,221.707c0-0.824,0.579-1.827,1.293-2.239l66.127-38.178
				c0.714-0.412,1.871-0.412,2.585,0l1.457,0.841c0.714,0.412,1.293,1.414,1.293,2.239v50.688c0,0.821-0.582,1.828-1.293,2.239
				l-66.127,38.178c-0.711,0.411-1.874,0.411-2.585,0l-1.457-0.841c-0.711-0.41-1.293-1.418-1.293-2.239L367.673,221.707z"/>
			<path id="XMLID_16531_" style="fill:#27DEBF;" d="M373.735,223.716l-5.684-3.282c-0.234,0.405-0.378,0.861-0.378,1.273l0,50.688
				c0,0.821,0.582,1.828,1.293,2.239l1.457,0.841c0.711,0.411,1.875,0.411,2.585,0l0.727-0.42V223.716z"/>
			<path id="XMLID_5928_" style="opacity:0.3;" d="M373.735,223.716l-5.684-3.282c-0.234,0.405-0.378,0.861-0.378,1.273l0,50.688
				c0,0.821,0.582,1.828,1.293,2.239l1.457,0.841c0.711,0.411,1.875,0.411,2.585,0l0.727-0.42V223.716z"/>
			<path id="XMLID_5916_" style="fill:#27DEBF;" d="M440.429,184.372v50.687c0,0.423-0.154,0.896-0.403,1.309
				c-0.204,0.338-0.463,0.642-0.756,0.846l-0.049,0.03c-0.03,0.02-0.055,0.04-0.085,0.055l-66.125,38.175l-0.01,0.005
				c-0.343,0.194-0.652,0.219-0.881,0.099c-0.249-0.129-0.403-0.423-0.403-0.851v-50.687c0-0.821,0.647-1.338,1.453-1.144
				l27.806,6.612l3.642,0.866c0.806,0.189,1.846-0.199,2.323-0.871l4.219-5.876l28.399-39.538
				C440.036,183.422,440.429,183.546,440.429,184.372z"/>
			<path id="XMLID_16549_" style="fill:#27DEBF;" d="M439.135,237.298c0.03-0.015,0.055-0.035,0.085-0.055l0.049-0.03
				c0.293-0.204,0.552-0.507,0.756-0.846c0.245-0.406,0.396-0.869,0.401-1.287l-29.267-11.454l19.599,18.508L439.135,237.298z"/>
			<path id="XMLID_5924_" style="opacity:0.2;" d="M439.135,237.298c0.03-0.015,0.055-0.035,0.085-0.055l0.049-0.03
				c0.293-0.204,0.552-0.507,0.756-0.846c0.245-0.406,0.396-0.869,0.401-1.287l-29.267-11.454l19.599,18.508L439.135,237.298z"/>
			<path id="XMLID_16548_" style="fill:#27DEBF;" d="M371.716,274.727c0,0.428,0.154,0.721,0.403,0.851
				c0.229,0.119,0.537,0.095,0.881-0.099l0.01-0.005l22.766-13.143l5.199-32.823l-29.259,44.378V274.727z"/>
			<path id="XMLID_5923_" style="opacity:0.2;" d="M371.716,274.727c0,0.428,0.154,0.721,0.403,0.851
				c0.229,0.119,0.537,0.095,0.881-0.099l0.01-0.005l22.766-13.143l5.199-32.823l-29.259,44.378V274.727z"/>
			<path id="XMLID_16533_" style="fill:#27DEBF;" d="M440.026,236.368c-0.204,0.338-0.463,0.642-0.756,0.846l-0.049,0.03
				l-66.21,38.229l-0.01,0.005c-0.343,0.194-0.652,0.219-0.881,0.099l31.665-50.55c1.312-2.095,3.964-2.909,6.225-1.91
				L440.026,236.368z"/>
		</g>
		<path id="XMLID_16530_" style="fill:#27DEBF;" d="M371.716,222.548l30.412,13.427c2.263,0.999,4.917,0.184,6.229-1.915
			l31.936-51.105L371.716,222.548z"/>
		<path id="XMLID_5922_" style="opacity:0.3;" d="M371.716,222.548l30.412,13.427c2.263,0.999,4.917,0.184,6.229-1.915
			l31.936-51.105L371.716,222.548z"/>
		<path id="XMLID_16506_" style="fill:#27DEBF;" d="M371.716,222.548l30.626,11.441c2.181,0.815,4.635,0.008,5.907-1.941
			l32.044-49.093L371.716,222.548z"/>
	</g>
</g>
</svg>
