<svg xmlns="http://www.w3.org/2000/svg" xmlns:xlink="http://www.w3.org/1999/xlink" width="567.708" height="467.219" viewBox="0 0 567.708 467.219">
    <defs>
        <style>
            .cls-1,.cls-10,.cls-11,.cls-9{fill:none}.cls-2{clip-path:url(#clip-path)}.cls-3{fill:#e9f6ff}.cls-4{fill:#f0f2f5}.cls-5{fill:#2a94f4}.cls-6{fill:#62b4f8}.cls-7{opacity:.2;isolation:isolate}.cls-8{fill:#fff}.cls-9{stroke:#82d67c}.cls-10,.cls-11,.cls-9{stroke-linecap:round;stroke-linejoin:round;stroke-width:1.884px}.cls-10{stroke:#e2e2e2}.cls-11{stroke:#57b1f5}.cls-12{fill:#f2f2f2}.cls-13{fill:#e2f3ff}.cls-14{fill:#dfdfdf}.cls-15{fill:#4eadff}.cls-16{fill:#fcd2b1}.cls-17{fill:#ffe1bd}.cls-18{fill:#0b4870}.cls-19{fill:#df4dc0}.cls-20{fill:#f7b094}.cls-21{fill:#a8a7a5}.cls-22{fill:url(#radial-gradient)}.cls-23{fill:url(#radial-gradient-2)}.cls-24{fill:#ffbe55}.cls-25{fill:#f2a940}.cls-26{fill:#e8987c}.cls-27{fill:#6d4b35}.cls-28{fill:#ccc}.cls-29{fill:#bcbfc3}.cls-30{fill:#e0932d}
        </style>
        <clipPath id="clip-path">
            <path id="SVGID" d="M1788.984 614.66c47.271-24.358 72.758-52.983 89.035-102.264 12.393-37.526 21.542-77.963-15.782-117.637-56.957-60.535-120.34-8.572-185.307-47.9-55.86-33.823-33.409-93.809-89.485-136.563-29.271-22.321-79.732-21.819-142.637 6.124-110.915 49.267-191.251 228.833-41.956 351.5 108.675 89.29 287.61 97.513 386.132 46.74z" class="cls-1"/>
        </clipPath>
        <radialGradient id="radial-gradient" cx="-345.355" cy=".5" r=".531" gradientTransform="matrix(-.891 0 0 -1 256.963 -804.138)">
            <stop offset="0" stop-color="#ffc8af"/>
            <stop offset="1" stop-color="#ffbb9c"/>
        </radialGradient>
        <radialGradient id="radial-gradient-2" cx="-419.278" cy=".5" r=".511" gradientTransform="matrix(-.958 0 0 -1 296.795 -853.357)" xlink:href="#radial-gradient"/>
    </defs>
    <g id="Group_58569" data-name="Group 58569" transform="translate(-1321.149 -191.497)">
        <g id="Group_58570" data-name="Group 58570">
            <g id="Group_58569-2" class="cls-2" data-name="Group 58569">
                <path id="Union_16" d="M1839.089 781.564l1.655-4.236 4.054 1.584-1.656 4.236zm-16.188-6.327l1.655-4.236 4.046 1.582-1.655 4.235zm-16.188-6.327l1.655-4.235 4.047 1.581-1.656 4.236zm-16.188-6.327l1.656-4.235 4.047 1.582-1.656 4.235zm-16.188-6.326l1.656-4.236 4.047 1.582-1.655 4.235zm-16.187-6.327l1.655-4.236 4.046 1.582-1.655 4.235zm-16.188-6.327l1.655-4.236 4.047 1.582-1.656 4.235zm-16.188-6.327l1.656-4.235 4.047 1.581-1.656 4.236zm-16.188-6.327l1.656-4.235 4.047 1.582-1.655 4.235zm-16.187-6.326l1.656-4.236 4.046 1.582-1.655 4.235zm-16.187-6.327l1.655-4.235 4.046 1.581-1.655 4.236zm-16.188-6.327l1.655-4.235 4.047 1.581-1.656 4.236zm-15.908-6.217l1.656-4.236 4.061 1.588-1.656 4.235zm-16.187-6.326l1.656-4.236 4.046 1.581-1.655 4.236zm-16.188-6.327l1.656-4.236 4.046 1.582-1.655 4.235zm-16.187-6.327l1.655-4.236 4.047 1.582-1.655 4.236zm-16.188-6.327l1.655-4.235 4.047 1.581-1.655 4.236zm-16.187-6.326l1.655-4.236 4.047 1.582-1.656 4.235zm-16.188-6.327l1.656-4.236 4.046 1.582-1.656 4.235zm-16.188-6.327l1.656-4.235 4.06 1.586-1.656 4.236zm-16.187-6.327l1.655-4.235 4.047 1.582-1.655 4.235zm-16.188-6.327l1.655-4.235 4.047 1.582-1.655 4.235zm-16.187-6.326l1.655-4.236 4.047 1.582-1.656 4.235zm-16.188-6.327l1.656-4.235 4.046 1.581-1.656 4.236zm-16.188-6.327l1.656-4.235 4.048 1.582-1.656 4.236zm-16.187-6.326l1.655-4.236 4.047 1.582-1.655 4.235zm-16.187-6.327l1.655-4.235 4.059 1.586-1.655 4.236zm-16.188-6.327l1.655-4.235 4.047 1.581-1.656 4.236zm-16.188-6.326l1.656-4.236 4.046 1.581-1.656 4.236zm-16.188-6.327l1.656-4.236 4.047 1.582-1.655 4.236zm-16.187-6.327l1.655-4.236 4.047 1.582-1.655 4.236zm-16.187-6.326l1.655-4.236 4.046 1.581-1.655 4.236zm-16.188-6.327l1.655-4.236 4.047 1.582-1.656 4.235zm-16.188-6.327l1.656-4.236 4.047 1.582-1.656 4.236zm-16.188-6.327l1.656-4.235 4.047 1.581-1.656 4.236zm-16.187-6.327l1.655-4.235 4.065 1.588-1.656 4.236zm-16.188-6.326l1.655-4.236 4.046 1.581-1.655 4.236zm-16.169-6.32l1.656-4.235 4.046 1.581-1.655 4.236zm605.266 217.029l1.655-4.235 4.054 1.584-1.656 4.236zm-16.188-6.326l1.655-4.236 4.046 1.582-1.655 4.235zm-16.188-6.327l1.655-4.236 4.047 1.582-1.656 4.235zm-16.188-6.327l1.656-4.236 4.047 1.582-1.656 4.236zm-16.188-6.327l1.656-4.235 4.047 1.581-1.655 4.236zm-16.187-6.327l1.655-4.235 4.046 1.581-1.655 4.236zm-16.188-6.326l1.655-4.236 4.047 1.582-1.656 4.235zm-16.188-6.327l1.656-4.236 4.047 1.582-1.656 4.236zm-16.188-6.327l1.656-4.235 4.047 1.581-1.655 4.236zm-16.186-6.326l1.655-4.236 4.046 1.582-1.655 4.235zm-16.188-6.327l1.655-4.236 4.046 1.582-1.655 4.235zm-16.188-6.327l1.655-4.235 4.047 1.581-1.656 4.235zm-15.908-6.217l1.656-4.236 4.061 1.587-1.655 4.24zm-16.187-6.327l1.656-4.235 4.046 1.581-1.655 4.236zm-16.187-6.327l1.655-4.235 4.046 1.581-1.655 4.236zm-16.188-6.326l1.655-4.236 4.047 1.582-1.655 4.235zm-16.188-6.327l1.655-4.236 4.048 1.582-1.656 4.236zm-16.187-6.327l1.655-4.235 4.047 1.581-1.656 4.236zm-16.188-6.326l1.656-4.236 4.046 1.582-1.655 4.235zm-16.188-6.327l1.656-4.236 4.06 1.587-1.655 4.236zm-16.187-6.327l1.655-4.236 4.047 1.582-1.655 4.236zm-16.188-6.327l1.655-4.235 4.047 1.581-1.655 4.236zm-16.187-6.326l1.655-4.236 4.047 1.582-1.656 4.235zm-16.188-6.327l1.656-4.236 4.046 1.582-1.656 4.235zm-16.188-6.327l1.656-4.235 4.048 1.582-1.655 4.235zm-16.187-6.327l1.655-4.235 4.047 1.582-1.655 4.235zm-16.187-6.326l1.655-4.236 4.059 1.587-1.655 4.235zm-16.188-6.327l1.655-4.235 4.047 1.581-1.656 4.236zm-16.188-6.327l1.656-4.235 4.046 1.581-1.656 4.236zm-16.188-6.326l1.656-4.236 4.047 1.582-1.655 4.235zm-16.187-6.327l1.655-4.236 4.047 1.582-1.655 4.236zm-16.187-6.327l1.655-4.235 4.046 1.581-1.655 4.236zm-16.188-6.326l1.655-4.236 4.047 1.581-1.656 4.236zm-16.188-6.327l1.656-4.236 4.047 1.582-1.656 4.236zm-16.188-6.327l1.656-4.236 4.047 1.582-1.655 4.236zm-16.187-6.327l1.655-4.235 4.065 1.588-1.656 4.236zm-16.188-6.327l1.655-4.235 4.046 1.581-1.655 4.236zm-16.169-6.319l1.656-4.235 4.046 1.581-1.655 4.236zm605.265 217.03l1.656-4.236 4.054 1.584-1.656 4.236zm-16.187-6.327l1.655-4.236 4.047 1.581-1.656 4.237zm-16.188-6.326l1.656-4.237 4.046 1.581-1.659 4.237zm-16.188-6.327l1.656-4.237 4.047 1.582-1.656 4.237zm-16.188-6.327l1.656-4.237 4.047 1.582-1.656 4.237zm-16.188-6.327l1.656-4.236 4.046 1.581-1.655 4.237zm-16.187-6.327l1.655-4.236 4.047 1.581-1.656 4.237zm-16.188-6.326l1.656-4.237 4.047 1.582-1.656 4.236zm-16.188-6.327l1.656-4.237 4.047 1.582-1.656 4.237zm-16.187-6.327l1.656-4.236 4.046 1.581-1.656 4.237zm-16.188-6.326l1.656-4.237 4.046 1.581-1.655 4.237zm-16.187-6.327l1.655-4.237 4.047 1.582-1.656 4.236zm-15.908-6.218l1.656-4.236 4.061 1.587-1.656 4.237zm-16.187-6.326l1.656-4.237 4.046 1.582-1.656 4.236zm-16.188-6.327l1.656-4.236 4.046 1.581-1.655 4.237zm-16.188-6.327l1.656-4.236 4.047 1.582-1.655 4.236zm-16.187-6.326l1.655-4.237 4.048 1.582-1.656 4.236zm-16.187-6.327l1.656-4.236 4.046 1.581-1.656 4.237zm-16.188-6.327l1.656-4.236 4.046 1.581-1.656 4.237zm-16.188-6.326l1.656-4.237 4.06 1.587-1.656 4.236zm-16.188-6.327l1.656-4.237 4.047 1.582-1.655 4.237zm-16.187-6.327l1.655-4.237 4.048 1.582-1.656 4.237zm-16.187-6.327l1.655-4.236 4.047 1.581-1.656 4.237zm-16.188-6.326l1.656-4.237 4.046 1.582-1.656 4.236zm-16.188-6.327l1.656-4.237 4.048 1.582-1.656 4.237zm-16.188-6.327l1.656-4.236 4.047 1.581-1.655 4.237zm-16.187-6.326l1.656-4.237 4.059 1.587-1.655 4.236zm-16.187-6.327l1.655-4.237 4.047 1.582-1.656 4.236zm-16.188-6.327l1.656-4.236 4.046 1.581-1.656 4.236zm-16.188-6.327l1.656-4.236 4.047 1.581-1.656 4.237zm-16.188-6.327l1.656-4.236 4.047 1.582-1.656 4.236zm-16.187-6.326l1.656-4.237L1356.5 549l-1.655 4.236zm-16.187-6.327l1.655-4.236 4.047 1.581-1.656 4.237zm-16.188-6.327l1.656-4.236 4.047 1.582-1.656 4.236zm-16.188-6.326l1.656-4.237 4.047 1.582-1.656 4.236zm-16.188-6.327l1.656-4.237 4.065 1.589-1.656 4.236zm-16.188-6.327l1.656-4.237 4.047 1.582-1.656 4.236zm-16.168-6.319l1.656-4.237 4.046 1.582-1.656 4.236zm605.265 217.029l1.656-4.237 4.054 1.585-1.656 4.236zm-16.187-6.327l1.655-4.236 4.047 1.581-1.656 4.237zm-16.188-6.327l1.656-4.236 4.046 1.581-1.656 4.237zm-16.188-6.327l1.656-4.236 4.047 1.582-1.656 4.236zm-16.188-6.326l1.656-4.237 4.047 1.582-1.656 4.236zm-16.188-6.327l1.656-4.237 4.047 1.582-1.656 4.236zm-16.187-6.327l1.656-4.236 4.046 1.581-1.656 4.237zm-16.188-6.327l1.656-4.236 4.047 1.582-1.656 4.236zm-16.188-6.326l1.656-4.237 4.047 1.582-1.655 4.234zm-16.187-6.327l1.656-4.236 4.046 1.581-1.655 4.237zm-16.188-6.327l1.656-4.236 4.047 1.581-1.656 4.237zm-16.187-6.327l1.655-4.236 4.047 1.581-1.656 4.237zm-15.908-6.217l1.656-4.236 4.061 1.587-1.656 4.236zM1648.8 648.6l1.656-4.237 4.046 1.582-1.656 4.236zm-16.188-6.327l1.656-4.237 4.046 1.582-1.655 4.236zm-16.187-6.327l1.655-4.236 4.047 1.581-1.655 4.237zm-16.188-6.327l1.656-4.236 4.047 1.582-1.656 4.236zm-16.187-6.326l1.656-4.237 4.046 1.582-1.656 4.236zm-16.188-6.327l1.656-4.236 4.046 1.581-1.656 4.237zm-16.188-6.327l1.656-4.236 4.06 1.587-1.656 4.236zm-16.188-6.327l1.656-4.236 4.047 1.582-1.655 4.236zm-16.187-6.326l1.655-4.237 4.048 1.582-1.656 4.236zm-16.187-6.327l1.656-4.236 4.046 1.581-1.656 4.237zm-16.188-6.327l1.656-4.236 4.046 1.581-1.656 4.237zM1470.731 579l1.656-4.237 4.048 1.582-1.656 4.237zm-16.188-6.327l1.656-4.237 4.047 1.582-1.655 4.237zm-16.186-6.327l1.655-4.236 4.06 1.586-1.656 4.237zm-16.188-6.326l1.656-4.237 4.046 1.581-1.656 4.237zm-16.188-6.327l1.656-4.237 4.046 1.582-1.656 4.236zm-16.188-6.327l1.656-4.237 4.047 1.582-1.656 4.237zm-16.188-6.327l1.656-4.236 4.047 1.581-1.655 4.237zm-16.187-6.326l1.656-4.237 4.047 1.582-1.656 4.236zm-16.187-6.327l1.656-4.237 4.046 1.582-1.656 4.236zm-16.188-6.327l1.656-4.236 4.047 1.581-1.656 4.237zm-16.188-6.327l1.656-4.236 4.047 1.582-1.656 4.236zm-16.188-6.326l1.656-4.237 4.065 1.589-1.656 4.242zm-16.187-6.327l1.655-4.237 4.047 1.582-1.656 4.236zm-16.169-6.319l1.656-4.237 4.046 1.581-1.656 4.237zm605.265 217.029l1.655-4.235 4.054 1.584-1.655 4.235zm-16.187-6.327l1.655-4.235 4.046 1.582-1.655 4.234zm-16.188-6.327l1.655-4.235 4.046 1.582-1.655 4.234zm-16.188-6.327l1.655-4.234 4.047 1.581-1.655 4.235zm-16.188-6.327l1.655-4.234 4.048 1.582-1.656 4.234zm-16.187-6.326l1.655-4.235 4.046 1.581-1.655 4.235zm-16.188-6.327l1.655-4.235 4.046 1.582-1.655 4.234zm-16.188-6.327l1.655-4.235 4.047 1.582-1.655 4.235zm-16.188-6.327l1.655-4.234 4.047 1.581-1.655 4.235zm-16.187-6.326l1.655-4.235 4.047 1.582-1.655 4.234zm-16.187-6.327l1.655-4.235 4.046 1.582-1.655 4.234zm-16.188-6.327l1.655-4.234 4.046 1.581-1.655 4.235zm-15.912-6.214l1.655-4.235 4.061 1.587-1.655 4.235zm-16.187-6.327l1.655-4.234 4.046 1.581-1.655 4.235zm-16.188-6.326l1.655-4.235 4.047 1.581-1.655 4.235zM1623.042 619l1.655-4.235 4.047 1.582-1.655 4.235zm-16.188-6.327l1.655-4.235 4.047 1.582-1.655 4.235zm-16.187-6.326l1.655-4.235 4.046 1.581-1.655 4.235zm-16.188-6.327l1.655-4.235 4.046 1.582-1.655 4.234zm-16.188-6.327l1.655-4.235 4.06 1.587-1.655 4.235zm-16.188-6.327l1.656-4.234 4.047 1.581-1.655 4.235zm-16.187-6.327l1.655-4.234 4.047 1.582-1.655 4.234zm-16.187-6.326l1.655-4.235 4.046 1.582-1.655 4.234zm-16.188-6.327l1.655-4.234 4.046 1.581-1.655 4.235zm-16.188-6.327l1.655-4.234 4.048 1.582-1.655 4.235zm-16.188-6.326l1.656-4.235 4.047 1.582-1.655 4.234zm-16.186-6.327l1.655-4.234 4.059 1.586-1.655 4.235zm-16.188-6.327l1.655-4.234 4.046 1.581-1.655 4.235zm-16.188-6.326l1.655-4.235 4.046 1.581-1.655 4.235zm-16.188-6.327l1.655-4.235 4.047 1.582-1.655 4.235zm-16.188-6.327l1.655-4.235 4.048 1.582-1.655 4.235zm-16.186-6.326l1.655-4.235 4.046 1.581-1.655 4.235zm-16.188-6.327l1.655-4.235 4.046 1.582-1.655 4.234zm-16.188-6.327l1.655-4.235 4.047 1.582-1.655 4.235zm-16.188-6.327l1.655-4.234 4.047 1.581-1.655 4.235zm-16.188-6.327l1.655-4.234 4.065 1.588-1.655 4.235zm-16.187-6.326l1.655-4.235 4.046 1.581-1.655 4.235zm-16.169-6.32l1.655-4.234 4.046 1.581-1.655 4.235zm605.267 217.03l1.655-4.236 4.048 1.582-1.655 4.236zm-16.188-6.327l1.656-4.236 4.046 1.582-1.656 4.235zm-16.188-6.327l1.656-4.235 4.046 1.581-1.655 4.236zm-16.187-6.327l1.655-4.235 4.047 1.582-1.655 4.235zm-16.188-6.326l1.655-4.236 4.047 1.582-1.655 4.235zm-16.188-6.327l1.656-4.236 4.046 1.582-1.656 4.235zm-16.188-6.327l1.656-4.236 4.046 1.582-1.655 4.235zm-16.187-6.327l1.655-4.235 4.047 1.581-1.655 4.236zm-16.188-6.327l1.655-4.235 4.047 1.582-1.655 4.235zm-16.187-6.326l1.655-4.236 4.047 1.582-1.656 4.235zm-16.188-6.327l1.656-4.235 4.046 1.581-1.656 4.236zm-16.18-6.324l1.656-4.235 4.046 1.581-1.655 4.236zm-15.907-6.217l1.655-4.235 4.047 1.581-1.655 4.236zm-16.187-6.326l1.655-4.236 4.046 1.582-1.655 4.235zm-16.188-6.327l1.655-4.236 4.047 1.582-1.656 4.235zm-16.188-6.327l1.656-4.235 4.047 1.581-1.656 4.236zm-16.188-6.327l1.656-4.235 4.047 1.582-1.655 4.235zm-16.187-6.326l1.656-4.236 4.046 1.582-1.655 4.235zm-16.187-6.327l1.655-4.236 4.046 1.582-1.655 4.235zm-16.188-6.327l1.655-4.235 4.047 1.581-1.656 4.236zm-16.188-6.327l1.655-4.235 4.048 1.582-1.656 4.235zm-16.188-6.326l1.656-4.236 4.047 1.582-1.656 4.235zm-16.187-6.327l1.656-4.235 4.046 1.581-1.655 4.236zm-16.187-6.327l1.655-4.235 4.046 1.581-1.655 4.236zm-16.188-6.326l1.655-4.236 4.048 1.582-1.655 4.236zm-16.188-6.327l1.655-4.236 4.048 1.582-1.656 4.236zm-16.187-6.327l1.656-4.235 4.045 1.581-1.655 4.235zm-16.188-6.326l1.656-4.236 4.046 1.581-1.655 4.236zm-16.187-6.327l1.655-4.236 4.046 1.582-1.655 4.235zm-16.188-6.327l1.655-4.236 4.047 1.582-1.655 4.236zm-16.188-6.327l1.655-4.235 4.048 1.581-1.656 4.236zm-16.187-6.326l1.656-4.236 4.046 1.582-1.656 4.235zm-16.188-6.327l1.656-4.236 4.046 1.582-1.655 4.235zm-16.187-6.327l1.655-4.235 4.047 1.581-1.655 4.236zm-16.188-6.327l1.655-4.235 4.047 1.582-1.655 4.235zm-16.188-6.326l1.655-4.236 4.051 1.583-1.655 4.236zm-16.188-6.327l1.656-4.236 4.046 1.582-1.656 4.235zm-16.182-6.325l1.655-4.235 4.047 1.581-1.656 4.236zm605.269 217.032l1.656-4.236 4.054 1.584-1.656 4.236zm-16.188-6.327l1.656-4.236 4.046 1.581-1.655 4.237zm-16.187-6.327l1.655-4.236 4.047 1.581-1.656 4.237zm-16.188-6.326l1.656-4.237 4.047 1.582-1.656 4.236zm-16.188-6.327l1.656-4.237 4.047 1.582-1.656 4.237zm-16.188-6.327l1.656-4.236 4.046 1.581-1.655 4.237zm-16.187-6.327l1.655-4.236 4.047 1.581-1.656 4.237zm-16.188-6.326l1.656-4.237 4.047 1.582-1.656 4.236zm-16.188-6.327l1.656-4.237 4.047 1.582-1.656 4.237zm-16.187-6.327l1.656-4.236 4.046 1.581-1.656 4.237zm-16.188-6.327l1.656-4.236 4.046 1.581-1.655 4.237zm-16.188-6.326l1.656-4.237 4.047 1.582-1.656 4.236zm-15.907-6.218l1.656-4.236 4.061 1.587-1.656 4.237zm-16.187-6.326l1.656-4.237 4.046 1.582-1.656 4.236zm-16.188-6.327l1.656-4.236 4.046 1.581-1.656 4.237zm-16.188-6.327l1.656-4.236 4.047 1.582-1.656 4.236zm-16.187-6.326l1.655-4.237 4.047 1.582-1.655 4.236zm-16.187-6.327l1.655-4.236 4.047 1.581-1.656 4.236zm-16.188-6.327l1.656-4.236 4.046 1.581-1.656 4.237zm-16.188-6.327l1.656-4.236 4.06 1.587-1.656 4.236zm-16.188-6.326l1.656-4.237 4.047 1.582-1.656 4.236zm-16.188-6.327l1.656-4.237 4.047 1.582-1.655 4.237zm-16.186-6.327l1.655-4.236 4.047 1.581-1.656 4.237zm-16.188-6.326l1.656-4.237 4.046 1.582-1.656 4.236zm-16.188-6.327l1.656-4.237 4.048 1.582-1.656 4.237zm-16.188-6.327l1.656-4.236 4.047 1.581-1.656 4.237zm-16.187-6.326l1.656-4.237 4.059 1.587-1.655 4.236zm-16.187-6.327l1.655-4.237 4.047 1.582-1.656 4.236zm-16.188-6.327l1.656-4.237 4.046 1.582-1.656 4.236zm-16.188-6.327l1.656-4.236 4.047 1.581-1.656 4.237zm-16.188-6.327l1.656-4.236 4.047 1.582-1.656 4.236zm-16.187-6.326l1.656-4.237 4.046 1.582-1.655 4.236zm-16.184-6.327l1.655-4.236 4.047 1.581-1.656 4.237zm-16.188-6.327l1.656-4.236 4.047 1.582-1.656 4.236zm-16.188-6.326l1.656-4.237 4.047 1.582-1.656 4.236zm-16.188-6.327l1.656-4.237 4.065 1.589-1.656 4.236zm-16.188-6.327l1.656-4.237 4.046 1.582-1.655 4.236zm-16.168-6.319l1.656-4.237 4.046 1.582-1.656 4.236zm605.27 217.034l1.656-4.237 4.048 1.582-1.656 4.237zm-16.188-6.327l1.656-4.236 4.046 1.581-1.656 4.237zm-16.188-6.327l1.656-4.236 4.046 1.581-1.655 4.237zm-16.187-6.326l1.655-4.237 4.047 1.582-1.655 4.236zm-16.188-6.327l1.656-4.237 4.047 1.582-1.656 4.237zm-16.188-6.327l1.656-4.237 4.046 1.582-1.656 4.236zm-16.188-6.327l1.656-4.236 4.046 1.581-1.656 4.237zm-16.188-6.327l1.656-4.236 4.047 1.582-1.655 4.236zm-16.187-6.326l1.655-4.237 4.048 1.582-1.656 4.236zm-16.187-6.327l1.656-4.236 4.046 1.581-1.656 4.237zm-16.191-6.327l1.656-4.236 4.046 1.581-1.656 4.237zm-16.18-6.323l1.656-4.237 4.046 1.582-1.656 4.236zm-15.908-6.218l1.656-4.236 4.047 1.582-1.655 4.236zm-16.186-6.326l1.655-4.237 4.047 1.582-1.656 4.236zm-16.188-6.327l1.656-4.236 4.046 1.581-1.656 4.237zm-16.188-6.327l1.656-4.236 4.047 1.582-1.656 4.236zm-16.188-6.327l1.656-4.236 4.047 1.582-1.656 4.236zm-16.187-6.326l1.656-4.236 4.046 1.581-1.655 4.236zm-16.187-6.327l1.655-4.236 4.047 1.581-1.656 4.237zm-16.188-6.327l1.656-4.236 4.046 1.581-1.656 4.237zm-16.188-6.326l1.656-4.237 4.047 1.582-1.656 4.236zm-16.188-6.327l1.656-4.237 4.047 1.582-1.656 4.237zm-16.187-6.327l1.656-4.236 4.046 1.581-1.655 4.237zm-16.188-6.326l1.656-4.237 4.047 1.582-1.656 4.236zm-16.187-6.327l1.655-4.237 4.049 1.582-1.656 4.237zm-16.188-6.327l1.656-4.237 4.047 1.582-1.656 4.237zm-16.187-6.326l1.656-4.237 4.045 1.581-1.656 4.237zm-16.188-6.327l1.656-4.237 4.046 1.582-1.656 4.236zm-16.188-6.327l1.656-4.237 4.047 1.582-1.656 4.236zm-16.187-6.327l1.655-4.236 4.051 1.581-1.656 4.237zm-16.188-6.327l1.656-4.236 4.047 1.582-1.656 4.236zm-16.187-6.326l1.656-4.237 4.046 1.582-1.656 4.236zm-16.188-6.327l1.656-4.236 4.046 1.581-1.656 4.237zm-16.188-6.327l1.656-4.236 4.047 1.582-1.655 4.236zm-16.187-6.326l1.655-4.237 4.048 1.582-1.656 4.236zm-16.188-6.327l1.656-4.237 4.051 1.583-1.656 4.237zm-16.188-6.327l1.656-4.237 4.046 1.582-1.656 4.236zm-16.182-6.325l1.656-4.236 4.046 1.581-1.656 4.237zm605.265 217.029l1.656-4.235 4.053 1.584-1.655 4.236zm-16.188-6.326l1.656-4.236 4.046 1.581-1.655 4.236zm-16.187-6.327l1.655-4.236 4.046 1.582-1.655 4.235zm-16.188-6.327l1.655-4.236 4.047 1.582-1.655 4.236zm-16.188-6.327l1.655-4.235 4.048 1.581-1.656 4.236zm-16.188-6.327l1.656-4.235 4.046 1.581-1.655 4.236zm-16.187-6.326l1.655-4.236 4.046 1.582-1.655 4.235zm-16.188-6.327l1.655-4.236 4.047 1.582-1.655 4.236zm-16.188-6.327l1.655-4.235 4.048 1.581-1.656 4.236zm-16.187-6.326l1.656-4.236 4.046 1.582-1.656 4.235zm-16.188-6.327l1.656-4.236 4.046 1.582-1.655 4.235zM1714 576.428l1.655-4.236 4.046 1.582-1.655 4.235zm-15.908-6.217l1.655-4.236 4.061 1.587-1.655 4.236zm-16.187-6.327l1.655-4.235 4.047 1.581-1.656 4.236zm-16.188-6.327l1.656-4.235 4.046 1.581-1.656 4.236zm-16.188-6.326l1.656-4.236 4.047 1.582-1.655 4.235zm-16.187-6.327l1.655-4.236 4.047 1.582-1.655 4.236zm-16.187-6.327l1.655-4.235 4.046 1.581-1.655 4.236zm-16.188-6.326l1.655-4.236 4.047 1.581-1.656 4.236zm-16.188-6.327l1.655-4.236 4.061 1.587-1.656 4.236zm-16.189-6.324l1.656-4.236 4.047 1.582-1.656 4.236zm-16.19-6.33l1.656-4.235 4.047 1.581-1.655 4.236zm-16.186-6.326l1.655-4.236 4.046 1.582-1.655 4.235zm-16.188-6.327l1.655-4.236 4.046 1.582-1.655 4.235zm-16.188-6.327l1.655-4.235 4.048 1.582-1.655 4.235zm-16.188-6.327l1.656-4.235 4.047 1.582-1.656 4.235zm-16.187-6.326l1.656-4.236 4.059 1.587-1.655 4.235zm-16.187-6.327l1.655-4.235 4.046 1.581-1.655 4.236zm-16.188-6.327l1.655-4.235 4.046 1.581-1.655 4.236zm-16.188-6.326l1.655-4.236L1428.6 460l-1.656 4.235zm-16.188-6.327l1.656-4.236 4.047 1.582-1.656 4.236zm-16.185-6.33l1.656-4.235 4.046 1.581-1.655 4.236zm-16.187-6.326l1.655-4.236 4.046 1.581-1.655 4.236zm-16.188-6.327l1.655-4.236 4.047 1.582-1.655 4.236zm-16.188-6.327l1.655-4.236 4.048 1.582-1.656 4.236zm-16.188-6.327l1.656-4.235 4.064 1.588-1.655 4.236zm-16.188-6.327l1.656-4.235 4.046 1.581-1.655 4.236zm-16.167-6.322l1.655-4.235 4.047 1.581-1.656 4.236zm605.265 217.029l1.656-4.235 4.053 1.584-1.655 4.236zm-16.187-6.327l1.655-4.235 4.046 1.581-1.655 4.236zm-16.188-6.326l1.655-4.236 4.046 1.582-1.655 4.234zm-16.188-6.327l1.655-4.236 4.048 1.582-1.656 4.236zm-16.188-6.327l1.656-4.235 4.047 1.581-1.656 4.236zm-16.188-6.327l1.656-4.235 4.046 1.581-1.655 4.236zm-16.187-6.326l1.655-4.236 4.046 1.581-1.655 4.236zm-16.188-6.327l1.655-4.236 4.048 1.582-1.656 4.236zm-16.188-6.327l1.656-4.236 4.047 1.582-1.656 4.236zM1753 572.136l1.656-4.236 4.046 1.581-1.655 4.236zm-16.188-6.327l1.656-4.236 4.046 1.582-1.655 4.235zm-16.187-6.327l1.655-4.236 4.046 1.582-1.655 4.235zm-15.908-6.217l1.655-4.236 4.061 1.587-1.655 4.236zm-16.187-6.327l1.656-4.235 4.046 1.581-1.656 4.236zm-16.188-6.327l1.656-4.235 4.046 1.581-1.655 4.236zm-16.187-6.326l1.655-4.236 4.047 1.582-1.655 4.235zm-16.188-6.327l1.655-4.236 4.047 1.582-1.655 4.236zm-16.187-6.327l1.655-4.235 4.047 1.581-1.656 4.236zm-16.188-6.327l1.655-4.235 4.047 1.581-1.656 4.236zm-16.188-6.326l1.656-4.236 4.06 1.587-1.656 4.236zm-16.188-6.327l1.656-4.236 4.047 1.582-1.655 4.236zm-16.187-6.327l1.655-4.235 4.047 1.581-1.655 4.236zm-16.19-6.324l1.655-4.236 4.046 1.582-1.655 4.235zm-16.188-6.327l1.655-4.236 4.047 1.582-1.656 4.235zm-16.188-6.327l1.656-4.236 4.048 1.583-1.656 4.235zm-16.188-6.327l1.656-4.235 4.047 1.581-1.655 4.236zm-16.186-6.326l1.655-4.236 4.059 1.587-1.655 4.235zm-16.188-6.327l1.655-4.236 4.046 1.582-1.655 4.235zm-16.188-6.327l1.655-4.235 4.047 1.581-1.656 4.236zm-16.188-6.327l1.656-4.235 4.047 1.582-1.656 4.235zm-16.188-6.326l1.656-4.236 4.047 1.582-1.655 4.235zm-16.187-6.327l1.656-4.235 4.046 1.581-1.655 4.236zm-16.187-6.327l1.655-4.235 4.046 1.581-1.655 4.236zm-16.188-6.326l1.655-4.236 4.048 1.582-1.656 4.235zm-16.188-6.327l1.656-4.236 4.047 1.582-1.656 4.236zm-16.187-6.329l1.656-4.236 4.064 1.589-1.655 4.236zm-16.187-6.327l1.655-4.235 4.046 1.581-1.655 4.236zm-16.169-6.319l1.655-4.236 4.047 1.582-1.656 4.235zm605.265 217.029l1.656-4.236 4.054 1.585-1.656 4.235zm-16.187-6.327l1.655-4.235 4.046 1.581-1.655 4.236zm-16.188-6.327l1.655-4.235 4.047 1.581-1.656 4.236zm-16.188-6.326l1.656-4.236 4.047 1.582-1.656 4.235zm-16.188-6.327l1.656-4.236 4.047 1.582-1.656 4.236zm-16.188-6.326l1.655-4.236 4.046 1.582-1.655 4.235zm-16.188-6.327l1.655-4.235 4.046 1.581-1.655 4.236zm-16.188-6.327l1.655-4.235 4.048 1.582-1.656 4.235zm-16.188-6.326l1.656-4.236 4.047 1.582-1.656 4.235zm-16.187-6.327l1.656-4.235 4.046 1.581-1.655 4.236zm-16.187-6.327l1.655-4.235 4.046 1.581-1.655 4.236zm-16.188-6.326l1.655-4.236 4.046 1.581-1.655 4.236zm-15.908-6.218l1.655-4.235 4.061 1.587-1.655 4.235zm-16.187-6.326l1.656-4.236 4.046 1.582-1.656 4.235zm-16.188-6.327l1.656-4.236 4.046 1.582-1.655 4.235zm-16.187-6.327l1.655-4.235 4.047 1.581-1.655 4.236zm-16.188-6.327l1.655-4.235 4.047 1.582-1.655 4.235zm-16.187-6.326l1.655-4.236 4.047 1.582-1.656 4.235zm-16.188-6.327l1.656-4.235 4.046 1.581-1.656 4.236zm-16.188-6.327l1.656-4.235 4.06 1.587-1.656 4.235zm-16.188-6.326l1.656-4.236 4.047 1.582-1.655 4.235zm-16.187-6.327l1.655-4.236 4.047 1.582-1.655 4.236zm-16.187-6.327l1.655-4.235 4.047 1.581-1.656 4.236zm-16.188-6.326l1.655-4.236 4.047 1.581-1.656 4.236zm-16.188-6.327l1.656-4.236 4.048 1.582-1.656 4.236zm-16.188-6.327l1.656-4.236 4.047 1.582-1.655 4.236zm-16.186-6.326l1.655-4.236 4.059 1.586-1.655 4.236zm-16.188-6.327l1.655-4.236 4.046 1.582-1.655 4.232zm-16.188-6.327l1.655-4.236 4.047 1.582-1.656 4.235zm-16.188-6.327l1.656-4.235 4.047 1.581-1.656 4.236zm-16.188-6.327l1.656-4.235 4.047 1.582-1.655 4.235zm-16.186-6.326l1.655-4.236 4.046 1.582-1.655 4.235zm-16.188-6.327l1.655-4.235 4.046 1.581-1.655 4.236zm-16.185-6.328l1.655-4.235 4.048 1.582-1.656 4.235zm-16.188-6.326l1.656-4.236 4.047 1.582-1.656 4.235zm-16.188-6.327l1.656-4.236 4.064 1.589-1.655 4.235zm-16.187-6.327l1.655-4.236 4.046 1.582-1.655 4.235zm-16.169-6.319l1.656-4.236 4.046 1.582-1.656 4.235zm604.785 218.289l1.656-4.237 4.04 1.58-1.655 4.236zm-16.188-6.327l1.656-4.236 4.046 1.581-1.656 4.236zm-16.188-6.327l1.656-4.236 4.046 1.581-1.655 4.237zm-16.187-6.327l1.655-4.236 4.048 1.582-1.656 4.236zm-16.187-6.326l1.655-4.237 4.048 1.582-1.656 4.237zm-16.188-6.327l1.656-4.236 4.046 1.581-1.656 4.237zm-16.188-6.327l1.656-4.236 4.046 1.581-1.656 4.237zm-16.188-6.326l1.656-4.237 4.047 1.582-1.655 4.236zm-16.187-6.327l1.655-4.237 4.048 1.582-1.655 4.237zm-16.187-6.327l1.656-4.236 4.046 1.581-1.656 4.237zm-16.188-6.326l1.656-4.237 4.046 1.582-1.656 4.236zm-16.188-6.327l1.656-4.237 4.046 1.582-1.656 4.236zm-15.908-6.218l1.656-4.236 4.047 1.582-1.655 4.236zm-16.187-6.326l1.656-4.237 4.047 1.582-1.656 4.236zm-16.187-6.327l1.655-4.236 4.047 1.581-1.656 4.237zm-16.188-6.327l1.656-4.236 4.047 1.582-1.656 4.236zm-16.188-6.326l1.656-4.237 4.047 1.582-1.656 4.236zm-16.187-6.327l1.656-4.236 4.046 1.581-1.656 4.237zm-16.188-6.327l1.656-4.236 4.046 1.581-1.655 4.237zm-16.187-6.326l1.655-4.237 4.047 1.581-1.656 4.237zm-16.188-6.327l1.656-4.237 4.047 1.582-1.656 4.237zm-16.188-6.327l1.656-4.237 4.047 1.582-1.656 4.237zm-16.187-6.326l1.656-4.237 4.046 1.581-1.656 4.237zm-16.182-6.325l1.656-4.237 4.046 1.582-1.656 4.236zm-16.188-6.327l1.656-4.236 4.048 1.582-1.656 4.236zm-16.188-6.327l1.656-4.236 4.047 1.582-1.655 4.236zm-16.187-6.326l1.656-4.237 4.04 1.579-1.656 4.237zm-16.187-6.327l1.655-4.236 4.047 1.581-1.656 4.236zm-16.188-6.327l1.656-4.236 4.046 1.581-1.656 4.237zm-16.188-6.327l1.656-4.236 4.047 1.582-1.656 4.236zm-16.188-6.326l1.656-4.237 4.047 1.582-1.656 4.236zm-16.187-6.327l1.656-4.236 4.046 1.581-1.655 4.237zm-16.187-6.327l1.655-4.236 4.047 1.581-1.656 4.237zm-16.19-6.327l1.656-4.237 4.047 1.582-1.656 4.237zm-16.188-6.327l1.656-4.236 4.047 1.581-1.656 4.237zm-16.188-6.327l1.656-4.236 4.047 1.582-1.655 4.236zm-16.187-6.326l1.655-4.237 4.047 1.581-1.656 4.237zm-16.186-6.327l1.655-4.236 4.047 1.581-1.656 4.237zM1918.062 579.5l1.656-4.237 4.054 1.584-1.656 4.237zm-16.188-6.327l1.656-4.237 4.046 1.582-1.655 4.236zm-16.188-6.327l1.656-4.237 4.047 1.582-1.656 4.236zm-16.187-6.327l1.656-4.236 4.047 1.581-1.656 4.237zm-16.188-6.327l1.656-4.236 4.047 1.582-1.656 4.236zm-16.188-6.326l1.656-4.237 4.046 1.581-1.656 4.237zm-16.188-6.327l1.656-4.237 4.046 1.582-1.655 4.236zm-16.187-6.327l1.655-4.237 4.048 1.582-1.651 4.243zm-16.188-6.327l1.656-4.236 4.047 1.581-1.656 4.237zm-16.187-6.326l1.656-4.237 4.046 1.582-1.656 4.236zm-16.188-6.327l1.656-4.237 4.046 1.582-1.656 4.236zM1740 509.907l1.656-4.236 4.046 1.581-1.655 4.237zm-15.907-6.217l1.655-4.237 4.061 1.587-1.655 4.237zm-16.187-6.327l1.656-4.236 4.046 1.581-1.656 4.237zm-16.188-6.326l1.656-4.237 4.046 1.581-1.656 4.237zm-16.188-6.327l1.656-4.237 4.047 1.582-1.656 4.237zm-16.188-6.327l1.656-4.237 4.047 1.582-1.655 4.237zm-16.186-6.326l1.655-4.237 4.047 1.581-1.656 4.237zm-16.188-6.327l1.656-4.237 4.046 1.582-1.656 4.236zm-16.188-6.327l1.656-4.237 4.06 1.587-1.656 4.237zm-16.188-6.327l1.656-4.236 4.047 1.581-1.656 4.237zm-16.188-6.327l1.656-4.236 4.047 1.582-1.656 4.236zm-16.187-6.326l1.656-4.237 4.046 1.582-1.658 4.232zm-16.187-6.327l1.655-4.236 4.047 1.581-1.656 4.237zm-16.188-6.327l1.656-4.236 4.048 1.582-1.656 4.236zm-16.188-6.327l1.656-4.236 4.047 1.582-1.656 4.236zm-16.187-6.326l1.656-4.236 4.059 1.586-1.656 4.237zm-16.188-6.327l1.656-4.236 4.046 1.581-1.655 4.237zm-16.187-6.327l1.655-4.236 4.047 1.581-1.656 4.237zm-16.188-6.326l1.656-4.237 4.047 1.582-1.656 4.236zm-16.188-6.327l1.656-4.237 4.047 1.582-1.656 4.237zm-16.187-6.327l1.656-4.236 4.046 1.581-1.656 4.237zm-16.188-6.326l1.656-4.237 4.046 1.582-1.655 4.236zm-16.187-6.327l1.655-4.237 4.048 1.582-1.656 4.237zm-16.188-6.327l1.656-4.236 4.047 1.581-1.656 4.237zm-16.188-6.327l1.656-4.236 4.064 1.588-1.655 4.237zm-16.188-6.327l1.656-4.236 4.046 1.581-1.656 4.237zm-16.169-6.318l1.656-4.236 4.046 1.581-1.655 4.237zm605.266 217.029l1.655-4.235 4.054 1.584-1.656 4.236zm-16.188-6.327l1.655-4.235 4.047 1.581-1.656 4.236zm-16.188-6.326l1.656-4.236 4.046 1.581-1.656 4.236zm-16.188-6.327l1.656-4.236 4.047 1.582-1.655 4.236zm-16.187-6.327l1.655-4.236 4.047 1.582-1.655 4.236zm-16.188-6.327l1.655-4.235 4.047 1.581-1.656 4.236zm-16.188-6.327l1.656-4.235 4.046 1.581-1.656 4.236zm-16.188-6.326l1.656-4.236 4.047 1.582-1.656 4.235zm-16.187-6.327l1.655-4.236 4.047 1.582-1.655 4.236zm-16.187-6.327l1.655-4.235 4.046 1.581-1.655 4.236zm-16.188-6.326l1.655-4.236 4.047 1.581-1.656 4.236zm-16.188-6.327l1.655-4.236 4.047 1.582-1.656 4.235zm-15.908-6.217l1.656-4.236 4.061 1.587-1.656 4.236zm-16.187-6.327l1.656-4.236 4.046 1.582-1.658 4.233zm-16.187-6.327l1.655-4.235 4.046 1.581-1.655 4.236zm-16.188-6.327l1.655-4.235 4.047 1.582-1.655 4.235zm-16.188-6.326l1.656-4.236 4.047 1.582-1.656 4.235zm-16.187-6.327l1.656-4.235 4.046 1.581-1.656 4.236zm-16.188-6.327l1.656-4.235 4.046 1.581-1.655 4.236zm-16.187-6.326l1.655-4.236 4.06 1.587-1.655 4.235zm-16.188-6.327l1.655-4.236 4.047 1.582-1.655 4.236zm-16.188-6.327l1.655-4.236 4.048 1.582-1.656 4.236zm-16.187-6.326l1.656-4.236 4.046 1.581-1.656 4.236zm-16.188-6.327l1.656-4.236 4.046 1.582-1.655 4.235zm-16.187-6.327l1.655-4.236 4.048 1.583-1.655 4.235zm-16.188-6.327l1.655-4.235 4.047 1.581-1.655 4.236zm-16.187-6.326l1.655-4.236 4.06 1.587-1.656 4.235zm-16.188-6.327l1.656-4.236 4.046 1.582-1.656 4.235zm-16.188-6.327l1.656-4.235 4.046 1.581-1.655 4.236zm-16.187-6.327l1.655-4.235 4.047 1.582-1.655 4.235zm-16.188-6.326l1.655-4.236 4.047 1.582-1.655 4.235zm-16.187-6.327l1.655-4.235 4.047 1.581-1.656 4.236zm-16.188-6.327l1.656-4.235 4.046 1.581-1.656 4.236zm-16.188-6.326l1.656-4.236 4.047 1.582-1.656 4.235zm-16.187-6.327l1.655-4.236 4.047 1.582-1.655 4.236zm-16.188-6.327l1.655-4.236 4.065 1.589-1.656 4.236zm-16.188-6.327l1.655-4.235 4.047 1.581-1.656 4.236zm-16.168-6.32l1.655-4.236 4.046 1.582-1.655 4.235zm605.265 217.029l1.657-4.238 4.053 1.584-1.655 4.235zm-16.188-6.327l1.657-4.238 4.046 1.581-1.655 4.236zm-16.187-6.327l1.656-4.238 4.046 1.581-1.655 4.236zm-16.188-6.326l1.656-4.239 4.048 1.582-1.656 4.236zm-16.188-6.327l1.657-4.239 4.047 1.582-1.656 4.236zm-16.188-6.327l1.657-4.238 4.046 1.581-1.655 4.236zm-16.187-6.327l1.656-4.238 4.046 1.581-1.655 4.236zm-16.188-6.327l1.656-4.238 4.047 1.582-1.655 4.235zM1801.8 495l1.657-4.239 4.047 1.582-1.656 4.236zm-16.187-6.327l1.657-4.238 4.046 1.581-1.656 4.236zm-16.188-6.327l1.657-4.238 4.046 1.581-1.655 4.236zm-16.187-6.326l1.656-4.239 4.046 1.582-1.655 4.235zm-15.908-6.218l1.656-4.238 4.061 1.587-1.655 4.236zm-16.187-6.326l1.656-4.239 4.047 1.582-1.656 4.235zm-16.188-6.327l1.657-4.238 4.046 1.581-1.655 4.236zm-16.188-6.327l1.657-4.238 4.047 1.582-1.655 4.235zm-16.187-6.327l1.656-4.238 4.047 1.582-1.655 4.235zm-16.18-6.325l1.656-4.238 4.046 1.581-1.655 4.236zm-16.188-6.327l1.656-4.238 4.047 1.581-1.656 4.236zm-16.188-6.327l1.657-4.238 4.06 1.587-1.656 4.235zm-16.188-6.326l1.657-4.239 4.047 1.582-1.655 4.236zm-16.188-6.327l1.657-4.239 4.047 1.582-1.655 4.236zm-16.186-6.327l1.656-4.238 4.046 1.581-1.655 4.236zm-16.188-6.326l1.656-4.239 4.047 1.582-1.656 4.235zm-16.188-6.327l1.657-4.239 4.048 1.582-1.656 4.236zm-16.188-6.327l1.657-4.238 4.047 1.581-1.655 4.236zm-16.187-6.326l1.657-4.239 4.059 1.587-1.655 4.235zm-16.187-6.327l1.656-4.239 4.046 1.582-1.655 4.235zm-16.188-6.327l1.656-4.239 4.047 1.582-1.656 4.235zm-16.188-6.327l1.657-4.238 4.047 1.581-1.656 4.236zm-16.188-6.327l1.657-4.238 4.047 1.582-1.656 4.235zm-16.19-6.322l1.657-4.239 4.046 1.582-1.655 4.235zm-16.187-6.327l1.656-4.238 4.046 1.581-1.655 4.236zm-16.188-6.327l1.656-4.238 4.047 1.582-1.655 4.235zm-16.188-6.326l1.656-4.239 4.048 1.582-1.656 4.235zm-16.188-6.327l1.657-4.239 4.064 1.589-1.655 4.235zm-16.188-6.327l1.657-4.239 4.046 1.582-1.655 4.235zm-16.169-6.318l1.657-4.24 4.047 1.582-1.656 4.235zm605.266 217.029l1.656-4.237 4.053 1.584-1.655 4.236zm-16.188-6.327l1.656-4.237 4.046 1.582-1.655 4.235zm-16.188-6.327l1.656-4.236 4.046 1.581-1.654 4.232zm-16.187-6.327l1.655-4.236 4.047 1.582-1.655 4.235zm-16.188-6.326l1.656-4.237 4.047 1.582-1.656 4.235zm-16.188-6.327l1.656-4.237 4.046 1.582-1.655 4.235zm-16.188-6.327l1.656-4.237 4.046 1.582-1.655 4.235zm-16.188-6.327l1.656-4.236 4.047 1.581-1.655 4.236zm-16.187-6.327l1.655-4.236 4.048 1.582-1.656 4.235zm-16.187-6.326l1.656-4.237 4.046 1.582-1.656 4.235zm-16.188-6.327l1.656-4.236 4.046 1.581-1.655 4.236zm-16.188-6.327l1.656-4.236 4.046 1.581-1.655 4.236zm-15.908-6.217l1.656-4.237 4.061 1.588-1.655 4.235zm-16.186-6.326l1.655-4.237 4.047 1.581-1.656 4.236zm-16.188-6.327l1.656-4.237 4.046 1.582-1.656 4.235zm-16.188-6.327l1.656-4.237 4.047 1.582-1.655 4.236zm-16.188-6.327l1.656-4.236 4.047 1.581-1.655 4.236zm-16.187-6.326l1.656-4.237 4.046 1.582-1.655 4.235zm-16.187-6.327l1.655-4.237 4.047 1.582-1.656 4.235zm-16.188-6.327l1.656-4.236 4.06 1.586-1.656 4.236zm-16.188-6.327l1.656-4.236 4.047 1.582-1.656 4.235zm-16.188-6.326l1.656-4.237 4.047 1.582-1.655 4.235zm-16.187-6.327l1.656-4.236 4.046 1.581-1.655 4.236zm-16.188-6.327l1.656-4.236 4.047 1.581-1.656 4.236zm-16.192-6.331l1.655-4.236 4.049 1.582-1.656 4.236zm-16.188-6.326l1.656-4.237 4.047 1.582-1.656 4.235zm-16.187-6.327l1.656-4.236 4.059 1.586-1.655 4.236zm-16.188-6.327l1.656-4.236 4.046 1.581-1.655 4.236zm-16.188-6.326l1.656-4.237 4.047 1.582-1.652 4.235zm-16.187-6.327l1.655-4.237 4.048 1.582-1.656 4.236zm-16.188-6.327l1.656-4.237 4.047 1.582-1.656 4.236zm-16.187-6.326l1.656-4.237 4.046 1.581-1.655 4.236zm-16.188-6.327l1.656-4.237 4.046 1.582-1.655 4.235zM1404.016 320l1.656-4.237 4.047 1.582-1.655 4.236zm-16.187-6.327l1.655-4.236 4.048 1.581-1.656 4.236zm-16.188-6.327l1.656-4.236 4.064 1.588-1.655 4.236zm-16.188-6.326l1.656-4.237 4.046 1.582-1.655 4.235zm-16.168-6.321l1.655-4.235 4.047 1.581-1.656 4.236zm605.265 217.03l1.655-4.233 4.053 1.584-1.655 4.237zm-16.188-6.326l1.655-4.234 4.046 1.581-1.656 4.237zm-16.188-6.327l1.655-4.234 4.046 1.582-1.655 4.236zm-16.187-6.327l1.654-4.234 4.047 1.582-1.655 4.237zm-16.188-6.327l1.655-4.233 4.047 1.581-1.656 4.237zm-16.188-6.327l1.655-4.233 4.046 1.581-1.656 4.237zm-16.188-6.326l1.655-4.234 4.046 1.581-1.656 4.237zm-16.187-6.327l1.654-4.234 4.047 1.582-1.655 4.237zm-16.188-6.327l1.654-4.234 4.048 1.582-1.656 4.237zm-16.187-6.326l1.655-4.234 4.046 1.581-1.656 4.237zm-16.188-6.327l1.655-4.234 4.046 1.582-1.656 4.236zm-16.188-6.327l1.655-4.234 4.046 1.582-1.656 4.236zm-15.907-6.217l1.654-4.234 4.061 1.587-1.656 4.237zm-16.187-6.327l1.654-4.233 4.047 1.581-1.656 4.237zm-16.188-6.327l1.655-4.233 4.046 1.581-1.656 4.237zm-16.188-6.326l1.655-4.234 4.047 1.582-1.656 4.236zm-16.188-6.327l1.655-4.234 4.047 1.582-1.656 4.237zm-16.187-6.327l1.655-4.233 4.046 1.581-1.655 4.237zm-16.187-6.326l1.654-4.234 4.047 1.581-1.656 4.237zm-16.188-6.327l1.654-4.234 4.061 1.587-1.656 4.237zm-16.188-6.327l1.655-4.234 4.047 1.582-1.656 4.237zm-16.188-6.327l1.655-4.233 4.047 1.581-1.656 4.237zm-16.187-6.326l1.655-4.234L1594.4 370l-1.656 4.236zm-16.187-6.327l1.654-4.234 4.046 1.582-1.655 4.236zM1556.327 360l1.654-4.233 4.049 1.582-1.656 4.236zm-16.188-6.327l1.655-4.233 4.047 1.582-1.656 4.236zm-16.187-6.326l1.655-4.234 4.059 1.587-1.656 4.236zm-16.188-6.327l1.655-4.234 4.046 1.582-1.656 4.236zm-16.187-6.327l1.654-4.233 4.046 1.581-1.655 4.237zm-16.188-6.326l1.654-4.234 4.048 1.582-1.656 4.236zm-16.188-6.327l1.655-4.234 4.047 1.582-1.656 4.236zm-16.187-6.327l1.655-4.233 4.046 1.581-1.656 4.237zm-16.188-6.326l1.655-4.234 4.046 1.581-1.656 4.237zm-16.188-6.327l1.655-4.234 4.047 1.582-1.655 4.236zm-16.187-6.327l1.654-4.234 4.048 1.582-1.656 4.237zm-16.188-6.327l1.655-4.234 4.064 1.589-1.656 4.237zm-16.188-6.327l1.655-4.233 4.046 1.581-1.656 4.237zm-16.169-6.318l1.655-4.235 4.047 1.582-1.656 4.236zm605.266 217.029l1.655-4.236 4.054 1.584-1.656 4.236zm-16.188-6.327l1.656-4.236 4.046 1.581-1.656 4.237zm-16.188-6.326l1.656-4.237 4.046 1.581-1.656 4.237zm-16.188-6.327l1.656-4.237 4.047 1.582-1.656 4.237zm-16.187-6.327l1.655-4.237 4.047 1.582-1.655 4.237zm-16.188-6.327l1.656-4.236 4.046 1.581-1.656 4.237zm-16.188-6.327l1.656-4.236 4.046 1.581-1.656 4.237zm-16.188-6.326l1.656-4.237 4.047 1.582-1.656 4.236zm-16.188-6.327l1.656-4.237 4.047 1.582-1.655 4.237zm-16.186-6.327l1.655-4.236 4.047 1.581-1.656 4.237zm-16.183-6.329l1.656-4.237 4.046 1.581-1.656 4.237zm-16.188-6.327l1.656-4.237 4.046 1.582-1.656 4.236zm-15.908-6.218l1.656-4.236 4.061 1.587-1.656 4.237zm-16.187-6.326l1.656-4.237 4.046 1.582-1.655 4.236zm-16.187-6.327l1.655-4.236 4.047 1.581-1.656 4.237zm-16.188-6.327l1.656-4.236 4.047 1.582-1.656 4.236zm-16.188-6.326l1.656-4.237 4.047 1.582-1.656 4.236zm-16.187-6.327l1.656-4.236 4.046 1.581-1.656 4.237zm-16.188-6.327l1.656-4.236 4.046 1.581-1.655 4.237zm-16.188-6.326l1.656-4.237 4.06 1.587-1.655 4.236zm-16.187-6.327l1.655-4.237 4.048 1.582-1.656 4.237zm-16.188-6.327l1.656-4.237 4.047 1.582-1.656 4.237zm-16.187-6.327l1.656-4.236 4.046 1.581-1.656 4.237zm-16.188-6.326l1.656-4.237 4.046 1.582-1.656 4.236zm-16.188-6.327l1.656-4.237 4.048 1.583-1.657 4.236zm-16.187-6.327l1.655-4.236 4.048 1.581-1.656 4.237zm-16.187-6.326l1.656-4.237 4.059 1.587-1.656 4.236zm-16.188-6.327l1.656-4.237 4.046 1.582-1.656 4.236zm-16.188-6.327l1.656-4.236 4.046 1.581-1.656 4.237zm-16.188-6.327l1.656-4.236 4.047 1.582-1.66 4.233zm-16.187-6.327l1.655-4.236 4.048 1.582-1.656 4.236zm-16.187-6.326l1.656-4.236 4.046 1.581-1.656 4.236zm-16.188-6.327l1.656-4.236 4.046 1.581-1.656 4.237zm-16.188-6.327l1.656-4.236 4.047 1.582-1.656 4.236zm-16.188-6.326l1.656-4.237 4.047 1.582-1.655 4.236zm-16.187-6.327l1.655-4.237 4.065 1.589-1.656 4.236zm-16.188-6.327l1.656-4.236 4.046 1.581-1.656 4.236zm-16.168-6.32l1.655-4.237 4.047 1.582-1.656 4.236zm605.265 217.029l1.655-4.236 4.054 1.585-1.655 4.235zm-16.188-6.327l1.656-4.235 4.046 1.581-1.655 4.236zm-16.188-6.327l1.656-4.235 4.046 1.581-1.655 4.236zm-16.187-6.326l1.655-4.236 4.047 1.582-1.655 4.235zm-16.188-6.327l1.655-4.236 4.048 1.582-1.656 4.236zm-16.188-6.327l1.656-4.236 4.046 1.582-1.656 4.235zm-16.188-6.327l1.656-4.235 4.046 1.581-1.655 4.236zm-16.187-6.327l1.655-4.235 4.047 1.582-1.655 4.235zm-16.188-6.326l1.655-4.236 4.047 1.582-1.655 4.235zM1812.1 420.9l1.655-4.235 4.047 1.581-1.656 4.236zm-16.188-6.327l1.656-4.235 4.046 1.581-1.656 4.236zm-16.188-6.326l1.656-4.236 4.046 1.581-1.655 4.236zm-15.907-6.218l1.655-4.235 4.061 1.587-1.655 4.235zm-16.187-6.326l1.655-4.236 4.046 1.582-1.655 4.235zm-16.188-6.327l1.655-4.236 4.047 1.582-1.656 4.235zm-16.188-6.327l1.656-4.235 4.047 1.581-1.656 4.236zm-16.188-6.327l1.656-4.235 4.047 1.582-1.655 4.235zm-16.186-6.326l1.655-4.236 4.046 1.582-1.655 4.235zm-16.188-6.327l1.655-4.235 4.046 1.581-1.655 4.236zm-16.188-6.327l1.655-4.235 4.06 1.587-1.655 4.235zm-16.188-6.326l1.656-4.236 4.047 1.582-1.651 4.238zm-16.188-6.327l1.656-4.236 4.047 1.582-1.656 4.236zm-16.187-6.327l1.656-4.235 4.046 1.581-1.655 4.236zm-16.187-6.327l1.655-4.235 4.046 1.581-1.655 4.236zm-16.188-6.326l1.655-4.236 4.048 1.582-1.655 4.236zm-16.188-6.327l1.656-4.236 4.047 1.582-1.656 4.236zm-16.187-6.327l1.656-4.235 4.059 1.586-1.656 4.236zm-16.188-6.326l1.656-4.236 4.046 1.582-1.655 4.235zm-16.187-6.327l1.655-4.236 4.046 1.582-1.655 4.235zm-16.188-6.327l1.655-4.235 4.047 1.581-1.655 4.236zm-16.188-6.327l1.655-4.235 4.048 1.581-1.656 4.236zm-16.187-6.326l1.656-4.236 4.046 1.582-1.655 4.232zm-16.183-6.322l1.656-4.236 4.046 1.582-1.655 4.235zm-16.187-6.327l1.655-4.235 4.047 1.581-1.655 4.236zm-16.188-6.327l1.655-4.235 4.047 1.582-1.655 4.235zm-16.188-6.326l1.655-4.236 4.065 1.589-1.655 4.235zm-16.188-6.327l1.656-4.236 4.046 1.582-1.655 4.235zm-16.168-6.319l1.655-4.236 4.046 1.581-1.655 4.236zM1964.416 460.9l1.655-4.235 4.054 1.584-1.656 4.236zm-16.188-6.327l1.655-4.235 4.047 1.582-1.656 4.235zm-16.187-6.327l1.655-4.235 4.046 1.582-1.656 4.235zm-16.188-6.327l1.655-4.234 4.047 1.581-1.655 4.234zm-16.188-6.327l1.655-4.234 4.047 1.582-1.655 4.235zm-16.188-6.326l1.655-4.235 4.047 1.582-1.656 4.235zm-16.188-6.327l1.656-4.235 4.046 1.582-1.656 4.235zm-16.187-6.327l1.655-4.235 4.047 1.582-1.656 4.236zm-16.188-6.327l1.655-4.234 4.047 1.581-1.655 4.236zm-16.187-6.326l1.655-4.235 4.046 1.582-1.655 4.235zm-16.188-6.327l1.655-4.235 4.047 1.582-1.656 4.235zm-16.188-6.327l1.655-4.234 4.047 1.581-1.656 4.236zm-15.907-6.217l1.655-4.235 4.061 1.587-1.656 4.236zm-16.187-6.326l1.655-4.235 4.046 1.581-1.655 4.236zm-16.188-6.327l1.655-4.235 4.046 1.582-1.655 4.235zm-16.188-6.327l1.655-4.235 4.047 1.582-1.655 4.236zm-16.188-6.327l1.656-4.235 4.047 1.582-1.656 4.236zm-16.186-6.326l1.655-4.235 4.046 1.581-1.656 4.236zm-16.188-6.327l1.655-4.235 4.046 1.582-1.655 4.235zm-16.188-6.327l1.655-4.235 4.06 1.587-1.655 4.236zm-16.188-6.327l1.655-4.234 4.047 1.581-1.655 4.236zm-16.188-6.327l1.655-4.234 4.048 1.582-1.656 4.235zm-16.186-6.326l1.655-4.235 4.046 1.582-1.656 4.235zm-16.188-6.327l1.655-4.234 4.046 1.581-1.655 4.236zm-16.188-6.327l1.655-4.234 4.048 1.582-1.655 4.236zm-16.188-6.326l1.655-4.235 4.047 1.582-1.655 4.235zm-16.187-6.327l1.655-4.234 4.06 1.586-1.656 4.236zm-16.188-6.327l1.656-4.234 4.046 1.581-1.656 4.236zm-16.187-6.326l1.655-4.235 4.046 1.581-1.655 4.236zm-16.188-6.327l1.655-4.235 4.047 1.582-1.655 4.236zm-16.188-6.327l1.655-4.235 4.047 1.582-1.655 4.236zm-16.187-6.326l1.655-4.235 4.047 1.581-1.656 4.236zm-16.188-6.327l1.656-4.235 4.046 1.582-1.656 4.235zm-16.187-6.327l1.655-4.235 4.047 1.582-1.656 4.236zm-16.188-6.327l1.655-4.234 4.047 1.581-1.655 4.236zm-16.188-6.327l1.655-4.234 4.065 1.588-1.656 4.236zm-16.188-6.326l1.655-4.235 4.047 1.581-1.656 4.236zm-16.168-6.32l1.655-4.234 4.046 1.581-1.655 4.236zm605.265 217.029l1.656-4.236 4.054 1.584-1.656 4.237zm-16.188-6.326l1.656-4.237 4.046 1.582-1.655 4.236zm-16.187-6.327l1.655-4.237 4.047 1.582-1.656 4.236zm-16.188-6.327l1.656-4.237 4.047 1.582-1.656 4.237zm-16.188-6.327l1.656-4.236 4.047 1.581-1.656 4.237zm-16.188-6.327l1.656-4.236 4.046 1.581-1.655 4.237zM1873.912 406l1.655-4.237 4.047 1.582-1.656 4.236zm-16.188-6.327l1.656-4.237 4.047 1.582-1.656 4.237zm-16.188-6.327l1.656-4.236 4.047 1.581-1.656 4.237zm-16.187-6.326l1.656-4.237 4.046 1.582-1.651 4.235zm-16.188-6.327l1.656-4.237 4.046 1.582-1.655 4.236zm-16.187-6.327l1.655-4.237 4.047 1.582-1.656 4.236zm-15.908-6.217l1.656-4.237 4.061 1.587-1.656 4.237zm-16.187-6.327l1.656-4.236 4.046 1.581-1.656 4.237zm-16.188-6.327l1.656-4.236 4.046 1.581-1.656 4.237zm-16.188-6.326l1.656-4.237 4.047 1.582-1.655 4.236zm-16.187-6.327l1.655-4.237 4.048 1.582-1.656 4.237zm-16.187-6.327l1.655-4.236 4.047 1.581-1.656 4.237zm-16.188-6.326l1.656-4.237 4.046 1.582-1.656 4.236zm-16.188-6.327l1.656-4.237 4.06 1.587-1.656 4.237zm-16.188-6.327l1.656-4.237 4.047 1.582-1.656 4.237zm-16.188-6.327l1.656-4.236 4.047 1.581-1.655 4.237zm-16.186-6.326l1.655-4.237 4.047 1.582-1.656 4.236zM1599 298.551l1.656-4.237 4.046 1.582-1.656 4.236zm-16.188-6.327l1.656-4.236 4.048 1.582-1.656 4.236zm-16.188-6.327l1.656-4.236 4.047 1.582-1.656 4.236zm-16.187-6.326l1.656-4.237 4.059 1.587-1.655 4.236zm-16.187-6.327l1.655-4.236 4.047 1.581-1.656 4.237zm-16.188-6.327l1.656-4.236 4.046 1.581-1.656 4.237zm-16.188-6.326l1.656-4.237 4.047 1.582-1.656 4.236zm-16.188-6.327l1.656-4.237 4.047 1.582-1.656 4.237zm-16.187-6.327l1.656-4.236 4.046 1.581-1.655 4.237zm-16.187-6.326l1.655-4.237 4.047 1.581-1.656 4.237zm-16.188-6.327l1.656-4.237 4.047 1.582-1.656 4.236zm-16.188-6.327l1.656-4.237 4.047 1.582-1.656 4.237zm-16.188-6.327l1.656-4.236 4.065 1.588-1.656 4.237zm-16.188-6.327l1.656-4.236 4.046 1.581-1.655 4.237zm-16.168-6.318l1.655-4.237 4.047 1.582-1.656 4.236zm605.264 217.03l1.656-4.236 4.054 1.584-1.656 4.236zm-16.187-6.327l1.655-4.236 4.047 1.581-1.656 4.237zm-16.188-6.327l1.656-4.236 4.046 1.581-1.656 4.237zm-16.188-6.326l1.656-4.237 4.047 1.582-1.656 4.236zm-16.188-6.327l1.656-4.237 4.047 1.582-1.655 4.237zm-16.187-6.327l1.655-4.236 4.047 1.581-1.656 4.237zm-16.188-6.327l1.656-4.236 4.046 1.581-1.656 4.237zm-16.188-6.326l1.656-4.237 4.047 1.582-1.656 4.236zm-16.188-6.327l1.656-4.237 4.047 1.582-1.656 4.237zm-16.187-6.327l1.656-4.236 4.046 1.581-1.655 4.237zm-16.187-6.327l1.655-4.236 4.047 1.581-1.656 4.237zm-16.188-6.326l1.656-4.237 4.046 1.582-1.653 4.234zm-15.908-6.218l1.656-4.236 4.061 1.587-1.656 4.237zm-16.187-6.326l1.656-4.237 4.046 1.582-1.655 4.236zm-16.188-6.327l1.656-4.236 4.046 1.581-1.655 4.237zm-16.187-6.327l1.655-4.236 4.048 1.582-1.656 4.236zm-16.188-6.326l1.656-4.237 4.047 1.582-1.656 4.236zm-16.187-6.327l1.656-4.236 4.046 1.581-1.656 4.236zm-16.188-6.327l1.656-4.236 4.046 1.581-1.656 4.237zm-16.188-6.327l1.656-4.236 4.06 1.587-1.656 4.236zm-16.187-6.326l1.655-4.237 4.048 1.582-1.656 4.236zM1638 294.263l1.656-4.237 4.047 1.582-1.656 4.237zm-16.187-6.327l1.656-4.236 4.046 1.581-1.656 4.237zm-16.188-6.326l1.656-4.237 4.046 1.582-1.656 4.236zm-16.188-6.327l1.656-4.237 4.048 1.582-1.656 4.237zm-16.187-6.327l1.655-4.236 4.048 1.581-1.656 4.237zm-16.187-6.326l1.655-4.237 4.06 1.587-1.656 4.236zm-16.188-6.327l1.656-4.237 4.046 1.582-1.656 4.236zm-16.188-6.327l1.656-4.237 4.046 1.582-1.656 4.236zm-16.188-6.327l1.656-4.236 4.047 1.581-1.656 4.237zm-16.187-6.327l1.655-4.236 4.047 1.582-1.655 4.236zM1476.124 231l1.655-4.237 4.047 1.582-1.656 4.236zm-16.188-6.327l1.656-4.236 4.046 1.581-1.656 4.237zm-16.188-6.327l1.656-4.236 4.047 1.582-1.656 4.236zm-16.188-6.326l1.656-4.237 4.047 1.582-1.656 4.236zm-16.188-6.327l1.656-4.237 4.065 1.589-1.656 4.236zm-16.187-6.327l1.655-4.237 4.047 1.582-1.656 4.236zm-16.168-6.32l1.655-4.237 4.047 1.582-1.656 4.236zm605.265 217.029l1.655-4.236 4.054 1.585-1.655 4.235zm-16.188-6.327l1.656-4.236 4.046 1.582-1.656 4.235zm-16.188-6.327l1.656-4.235 4.046 1.581-1.655 4.233zm-16.187-6.327l1.655-4.235 4.047 1.582-1.655 4.235zm-16.188-6.326l1.655-4.236 4.047 1.582-1.655 4.235zm-16.188-6.327L1905 374.2l4.047 1.582-1.656 4.235zm-16.188-6.327l1.656-4.235 4.046 1.581-1.655 4.236zm-16.187-6.327l1.655-4.235 4.047 1.581-1.655 4.236zm-16.188-6.326l1.655-4.236 4.047 1.582-1.655 4.235zm-16.187-6.327l1.655-4.236 4.047 1.582-1.656 4.235zm-16.188-6.327l1.655-4.235 4.047 1.581-1.656 4.236zm-16.188-6.327l1.656-4.235 4.046 1.581-1.655 4.236zm-15.907-6.217l1.655-4.235 4.061 1.587-1.656 4.235zm-16.187-6.326l1.655-4.236 4.046 1.582-1.655 4.235zm-16.188-6.327l1.655-4.236 4.047 1.582-1.656 4.235zm-16.188-6.327l1.656-4.235 4.047 1.581-1.656 4.236zm-16.188-6.327l1.656-4.235 4.047 1.581-1.656 4.236zm-16.187-6.326l1.656-4.236 4.046 1.582-1.655 4.235zm-16.187-6.327l1.655-4.236 4.046 1.582-1.655 4.235zM1677 289.972l1.655-4.235 4.06 1.586-1.655 4.236zm-16.188-6.327l1.655-4.235 4.048 1.582-1.656 4.235zm-16.188-6.326l1.656-4.236 4.047 1.582-1.656 4.235zm-16.187-6.327l1.656-4.235 4.046 1.581-1.655 4.236zm-16.187-6.327l1.655-4.235 4.046 1.581-1.655 4.236zm-16.188-6.326l1.655-4.236 4.048 1.582-1.655 4.236zm-16.188-6.327l1.655-4.236 4.048 1.582-1.656 4.236zm-16.187-6.327l1.656-4.235 4.059 1.586-1.656 4.236zm-16.188-6.326l1.656-4.236 4.046 1.581-1.655 4.236zm-16.187-6.327l1.655-4.236 4.046 1.582-1.655 4.235zm-16.188-6.327l1.655-4.236 4.047 1.582-1.655 4.236zm-16.188-6.327l1.655-4.235 4.048 1.581-1.656 4.236zm-16.187-6.326l1.655-4.236 4.047 1.582-1.656 4.235zm-16.188-6.327l1.656-4.236 4.046 1.582-1.655 4.235zm-16.191-6.325l1.656-4.235 4.047 1.581-1.655 4.236zm-16.187-6.327l1.655-4.235 4.047 1.582-1.655 4.235zm-16.188-6.326l1.655-4.236 4.065 1.589-1.655 4.235zm-16.188-6.327l1.656-4.236 4.046 1.582-1.656 4.234zm-16.168-6.32l1.655-4.235 4.046 1.581-1.655 4.236zM1990.9 393.128l1.655-4.236 4.054 1.584-1.655 4.236zm-16.188-6.327l1.656-4.236 4.046 1.582-1.656 4.235zm-16.188-6.327l1.656-4.236 4.046 1.582-1.655 4.235zm-16.187-6.327l1.655-4.235 4.047 1.581-1.655 4.236zm-16.188-6.327l1.655-4.235 4.047 1.582-1.651 4.233zm-16.188-6.326l1.656-4.236 4.046 1.581-1.656 4.236zm-16.188-6.327l1.656-4.236 4.046 1.582-1.655 4.235zm-16.187-6.327l1.655-4.236 4.047 1.582-1.655 4.236zm-16.188-6.327l1.655-4.235 4.047 1.581-1.655 4.236zm-16.187-6.326l1.655-4.236 4.047 1.582-1.656 4.235zm-16.188-6.327l1.656-4.236 4.046 1.582-1.656 4.235zm-16.188-6.327l1.656-4.235 4.046 1.581-1.655 4.236zm-15.907-6.217l1.655-4.236 4.061 1.587-1.655 4.236zm-16.187-6.327l1.655-4.235 4.046 1.581-1.655 4.236zm-16.188-6.326l1.655-4.236 4.047 1.581-1.656 4.236zm-16.188-6.327l1.656-4.236 4.047 1.582-1.656 4.236zm-16.188-6.327l1.656-4.236 4.047 1.582-1.655 4.236zm-16.187-6.326l1.656-4.236 4.046 1.581-1.655 4.236zm-16.187-6.327l1.655-4.236 4.046 1.582-1.655 4.235zm-16.188-6.327l1.655-4.236 4.06 1.587-1.655 4.236zm-16.188-6.327l1.655-4.235 4.048 1.581-1.656 4.236zm-16.188-6.327l1.656-4.235 4.047 1.582-1.656 4.235zm-16.187-6.326l1.656-4.236 4.046 1.582-1.655 4.235zm-16.187-6.327l1.655-4.235 4.046 1.581-1.655 4.236zm-16.188-6.327l1.655-4.235 4.048 1.582-1.655 4.235zm-16.188-6.326l1.655-4.236 4.048 1.582-1.656 4.235zm-16.187-6.327l1.656-4.235 4.059 1.586-1.656 4.236zm-16.188-6.327l1.656-4.235 4.046 1.581-1.651 4.239zm-16.187-6.326l1.655-4.236 4.046 1.581-1.655 4.236zm-16.188-6.327l1.655-4.236 4.047 1.582-1.655 4.235zm-16.188-6.327l1.655-4.236 4.048 1.582-1.656 4.236zm-16.187-6.327l1.656-4.235 4.046 1.581-1.656 4.236zm-16.188-6.326l1.656-4.236 4.046 1.582-1.655 4.235zm-16.187-6.327l1.655-4.236 4.047 1.582-1.655 4.236zm-16.188-6.327l1.655-4.235 4.047 1.581-1.655 4.236zm-16.188-6.327l1.655-4.235 4.065 1.588-1.655 4.236zm-16.188-6.327l1.656-4.235 4.046 1.581-1.656 4.236zm-16.169-6.318l1.656-4.235 4.046 1.581-1.655 4.236zm605.266 217.029l1.655-4.235 4.054 1.584-1.656 4.236zm-16.188-6.327l1.655-4.235 4.047 1.581-1.656 4.236zm-16.188-6.326l1.656-4.236 4.046 1.582-1.656 4.235zm-16.188-6.327l1.656-4.236 4.047 1.582-1.655 4.236zm-16.187-6.327l1.655-4.235 4.047 1.581-1.655 4.236zm-16.188-6.327l1.655-4.235 4.046 1.581-1.655 4.236zm-16.188-6.326l1.655-4.236 4.047 1.581-1.656 4.236zm-16.188-6.327l1.656-4.236 4.047 1.582-1.656 4.236zm-16.188-6.327l1.656-4.236 4.047 1.582-1.655 4.236zm-16.186-6.327l1.655-4.235 4.046 1.581-1.655 4.236zm-16.188-6.326l1.655-4.236 4.047 1.582-1.656 4.235zm-16.188-6.327l1.655-4.236 4.047 1.582-1.656 4.235zm-15.908-6.217l1.656-4.236 4.061 1.587-1.656 4.236zm-16.187-6.327l1.656-4.235 4.046 1.581-1.655 4.236zm-16.187-6.327l1.655-4.235 4.046 1.581-1.655 4.236zm-16.188-6.326l1.655-4.236 4.047 1.582-1.655 4.235zm-16.188-6.327l1.655-4.236 4.048 1.582-1.656 4.236zm-16.187-6.327l1.656-4.235 4.046 1.581-1.656 4.236zm-16.188-6.327l1.656-4.235 4.046 1.581-1.655 4.236zm-16.187-6.326l1.655-4.236 4.06 1.587-1.655 4.235zm-16.188-6.327l1.655-4.236 4.047 1.582-1.655 4.236zm-16.188-6.327l1.655-4.236 4.048 1.582-1.656 4.236zm-16.187-6.326l1.656-4.236 4.046 1.581-1.656 4.236zm-16.188-6.327l1.656-4.236 4.046 1.582-1.655 4.235zm-16.187-6.327l1.655-4.236 4.048 1.583-1.655 4.235zm-16.188-6.327l1.655-4.235 4.047 1.581-1.655 4.236zm-16.187-6.326l1.655-4.236 4.059 1.587-1.655 4.235zm-16.188-6.327l1.655-4.236 4.047 1.582-1.656 4.235zm-16.188-6.327l1.656-4.235 4.046 1.581-1.655 4.236zm-16.188-6.327l1.656-4.235 4.047 1.582-1.655 4.235zm-16.187-6.326l1.655-4.236 4.047 1.582-1.655 4.235zm-16.187-6.327l1.655-4.235 4.047 1.581-1.656 4.236zm-16.188-6.327l1.655-4.235 4.047 1.581-1.656 4.236zm-16.188-6.326l1.656-4.236 4.047 1.582-1.656 4.235zm-16.188-6.327l1.656-4.236 4.047 1.582-1.655 4.236zm-16.187-6.327l1.655-4.236 4.065 1.589-1.656 4.236zm-16.188-6.327l1.655-4.235 4.047 1.581-1.656 4.236zm-16.168-6.32l1.655-4.236 4.046 1.582-1.655 4.235zm605.265 217.029l1.656-4.236 4.054 1.584-1.656 4.236zm-16.188-6.327l1.656-4.236 4.046 1.581-1.655 4.237zm-16.187-6.327l1.655-4.236 4.047 1.581-1.656 4.237zm-16.188-6.326l1.656-4.237 4.047 1.582-1.656 4.236zm-16.188-6.327l1.656-4.237 4.047 1.582-1.656 4.237zm-16.188-6.327l1.656-4.236 4.046 1.581-1.655 4.237zm-16.188-6.327l1.656-4.236 4.047 1.581-1.656 4.237zm-16.187-6.326l1.655-4.237 4.048 1.582-1.656 4.236zm-16.188-6.327l1.656-4.237 4.047 1.582-1.656 4.237zm-16.187-6.327l1.656-4.236 4.046 1.581-1.656 4.237zm-16.188-6.327l1.656-4.236 4.046 1.581-1.655 4.237zm-16.188-6.326l1.656-4.237 4.047 1.582-1.656 4.236zm-15.907-6.218l1.656-4.236 4.06 1.587-1.655 4.237zm-16.187-6.326l1.656-4.237 4.046 1.582-1.656 4.236zm-16.188-6.327l1.656-4.236 4.046 1.581-1.656 4.237zm-16.188-6.327l1.656-4.236 4.047 1.582-1.656 4.236zm-16.188-6.326l1.656-4.237 4.047 1.582-1.655 4.236zm-16.186-6.327l1.655-4.236 4.047 1.581-1.656 4.236zm-16.188-6.327l1.656-4.236 4.046 1.581-1.656 4.237zm-16.188-6.327l1.656-4.236 4.06 1.587-1.656 4.236zm-16.188-6.326l1.656-4.237 4.047 1.582-1.656 4.236zm-16.188-6.327l1.656-4.237 4.047 1.582-1.655 4.237zm-16.186-6.327l1.655-4.236 4.047 1.581-1.656 4.237zm-16.188-6.326l1.656-4.237 4.046 1.582-1.656 4.236zm-16.188-6.327l1.656-4.237 4.048 1.582-1.656 4.237zm-16.188-6.327l1.656-4.236 4.047 1.581-1.656 4.237zm-16.187-6.326l1.656-4.237 4.059 1.587-1.656 4.236zm-16.188-6.327l1.656-4.237 4.047 1.582-1.656 4.236zm-16.187-6.327l1.656-4.237 4.046 1.582-1.656 4.236zm-16.188-6.327l1.656-4.236 4.047 1.581-1.656 4.237zm-16.188-6.327l1.656-4.236 4.047 1.582-1.656 4.236zm-16.187-6.326l1.656-4.237 4.046 1.582-1.655 4.236zm-16.188-6.327l1.656-4.236 4.047 1.581-1.656 4.237zm-16.187-6.327l1.655-4.236 4.048 1.582-1.656 4.236zm-16.188-6.326l1.656-4.237 4.047 1.582-1.656 4.236zm-16.188-6.327l1.656-4.237 4.065 1.589-1.656 4.236zm-16.188-6.327l1.656-4.237 4.046 1.582-1.655 4.236zm-16.169-6.318l1.656-4.237 4.047 1.582-1.656 4.236zm605.27 217.03l1.656-4.237 4.053 1.585-1.655 4.236zm-16.188-6.327l1.656-4.237 4.046 1.582-1.656 4.236zm-16.188-6.327l1.656-4.236 4.046 1.581-1.655 4.237zm-16.188-6.327l1.656-4.236 4.047 1.582-1.655 4.236zm-16.187-6.326l1.656-4.237 4.047 1.582-1.656 4.236zm-16.188-6.327l1.656-4.237 4.046 1.582-1.656 4.236zm-16.188-6.327l1.656-4.237 4.046 1.582-1.656 4.236zm-16.188-6.327l1.656-4.236 4.047 1.581-1.655 4.237zm-16.187-6.327l1.655-4.236 4.048 1.582-1.656 4.236zm-16.187-6.326l1.656-4.237 4.046 1.582-1.656 4.236zm-16.188-6.327l1.656-4.236 4.046 1.581-1.656 4.237zM1832.7 272.7l1.656-4.236 4.046 1.581-1.656 4.237zm-15.908-6.217l1.656-4.236 4.061 1.587-1.656 4.236zm-16.186-6.326l1.655-4.237 4.047 1.582-1.656 4.236zm-16.188-6.327l1.656-4.237 4.046 1.582-1.656 4.236zm-16.188-6.327l1.656-4.237 4.047 1.582-1.656 4.237zm-16.188-6.327l1.656-4.236 4.047 1.581-1.656 4.237zm-16.187-6.326l1.656-4.237 4.046 1.582-1.655 4.236zm-16.188-6.327l1.656-4.237 4.047 1.582-1.656 4.236zm-16.187-6.327l1.655-4.236 4.061 1.586-1.656 4.237zm-16.188-6.327l1.656-4.236 4.047 1.582-1.656 4.236zm-16.188-6.326l1.656-4.237 4.047 1.582-1.656 4.236zm-16.187-6.327l1.656-4.236 4.046 1.581-1.656 4.237zm-16.188-6.327l1.656-4.236 4.046 1.581-1.655 4.237zm-16.187-6.326l1.655-4.237 4.049 1.582-1.656 4.237zm-16.188-6.327l1.656-4.237 4.047 1.582-1.656 4.237zm-16.187-6.327l1.656-4.236 4.059 1.586-1.656 4.237zm-16.188-6.327l1.656-4.236 4.046 1.581-1.656 4.237zm-16.179-6.322l1.656-4.237 4.046 1.582-1.655 4.236zm-16.187-6.327l1.655-4.237 4.048 1.582-1.656 4.237zm-16.188-6.327l1.656-4.236 4.047 1.581-1.656 4.237zm-16.187-6.326l1.656-4.237 4.046 1.582-1.656 4.236zm-16.188-6.327l1.656-4.237 4.046 1.582-1.656 4.236zm-16.188-6.327l1.656-4.236 4.047 1.581-1.655 4.237zm-16.187-6.327l1.655-4.236 4.048 1.582-1.656 4.236zm-16.188-6.327l1.656-4.236 4.064 1.589-1.656 4.236zm-16.188-6.326l1.656-4.237 4.046 1.582-1.656 4.236zm-16.168-6.32l1.655-4.236 4.047 1.581-1.656 4.237z" class="cls-3" data-name="Union 16"/>
            </g>
        </g>
        <g id="Group_57985" data-name="Group 57985">
            <circle id="Ellipse_262" cx="48.877" cy="48.877" r="48.877" class="cls-4" data-name="Ellipse 262" transform="translate(1423.896 191.497)"/>
            <g id="Group_58411" data-name="Group 58411">
                <path id="Path_57344" d="M1465.511 270.461c-8.82.163-16.549-17.664-16.771-26.831-.361-14.977 10.793-18.527 15.124-18.631a17.9 17.9 0 0 1 5.907 1.3 13.155 13.155 0 0 0 3.377.88 10.465 10.465 0 0 0 2.387-.838 19.275 19.275 0 0 1 7.208-1.928h.017c2.124-.051 8.575.259 12.587 5.98l.941 1.341-1.282 1.017c-1.831 1.452-5.171 4.1-5.049 9.185.146 6.021 4.055 8.244 5.934 9.314.829.471 1.686.958 1.713 2.067.018.723-5.385 16.407-13.775 16.61a11.4 11.4 0 0 1-4.812-1.045 9.693 9.693 0 0 0-4.284-.922 10.96 10.96 0 0 0-3.35.993 16.514 16.514 0 0 1-5.815 1.505z" class="cls-5" data-name="Path 57344"/>
                <path id="Path_57345" d="M1483.3 210.743c.409 7.873-5.093 13.474-10.73 13.268-1.077-6.265 5.315-13.138 10.73-13.268z" class="cls-5" data-name="Path 57345"/>
            </g>
        </g>
        <g id="Group_57987" data-name="Group 57987">
            <g id="Group_55030" data-name="Group 55030">
                <path id="Path_55-2" d="M1731.939 338.827h-.224V279.9a20.828 20.828 0 0 0-20.827-20.828h-150.836a20.827 20.827 0 0 0-20.827 20.826v26.074a.969.969 0 0 0-.41-.091h-.376a.967.967 0 0 0-.969.966v12.037a.968.968 0 0 0 .967.968h.378a.983.983 0 0 0 .41-.09v10.692a.969.969 0 0 0-.41-.091h-.376a.968.968 0 0 0-.969.968v24.485a.969.969 0 0 0 .969.969h.376a.969.969 0 0 0 .41-.091v6.078a.969.969 0 0 0-.41-.091h-.376a.969.969 0 0 0-.969.968v24a.969.969 0 0 0 .969.969h.376a.984.984 0 0 0 .41-.091v184.982a20.828 20.828 0 0 0 20.826 20.828h150.836a20.829 20.829 0 0 0 20.828-20.828V383.547h.224a.971.971 0 0 0 .97-.968V339.8a.968.968 0 0 0-.968-.968z" class="cls-6" data-name="Path 55-2"/>
            </g>
            <g id="Group_57986" data-name="Group 57986">
                <rect id="Rectangle_6-2" width="21.951" height="2.795" class="cls-7" data-name="Rectangle 6-2" rx="1.397" transform="translate(1622.15 270.51)"/>
                <circle id="Ellipse_1" cx="3.391" cy="3.391" r="3.391" class="cls-7" data-name="Ellipse 1" transform="translate(1595.857 268.551)"/>
                <circle id="Ellipse_2" cx="3.391" cy="3.391" r="3.391" class="cls-7" data-name="Ellipse 2" transform="translate(1611.357 268.551)"/>
            </g>
            <path id="Screen-2" d="M1707.266 586.083h-144.039a15.956 15.956 0 0 1-15.957-15.952V282.789a15.956 15.956 0 0 1 15.93-15.98h28.071v4.452a7.261 7.261 0 0 0 7.252 7.261h68.092a7.261 7.261 0 0 0 7.253-7.261v-4.452h33.4a15.953 15.953 0 0 1 15.956 15.952V570.1a15.955 15.955 0 0 1-15.929 15.98h-.029z" class="cls-8"/>
        </g>
        <g id="Group_54947" data-name="Group 54947">
            <path id="Line_16" d="M0 0v20.29" class="cls-9" data-name="Line 16" transform="translate(1554.555 220.764)"/>
            <path id="Line_17" d="M20.291 0H0" class="cls-9" data-name="Line 17" transform="translate(1544.409 230.91)"/>
        </g>
        <g id="Group_54949" data-name="Group 54949">
            <path id="Line_20" d="M0 0l.378 20.286" class="cls-10" data-name="Line 20" transform="translate(1854.426 507.547)"/>
            <path id="Line_21" d="M20.286 0L0 .378" class="cls-10" data-name="Line 21" transform="translate(1844.472 517.501)"/>
        </g>
        <g id="Group_54950" data-name="Group 54950">
            <path id="Line_22" d="M0 0l.378 20.286" class="cls-11" data-name="Line 22" transform="translate(1397.74 354.008)"/>
            <path id="Line_23" d="M20.287 0L0 .378" class="cls-11" data-name="Line 23" transform="translate(1387.786 363.962)"/>
        </g>
        <g id="Group_57989" data-name="Group 57989">
            <g id="Group_57988" data-name="Group 57988">
                <path id="Path_56859" d="M1471.326 336.369l-2.432 8.615q-2.715 9.627-5.419 19.257c-.132.472-.309.642-.815.631-1.736-.035-3.473-.013-5.3-.013.431-1.553.832-3.019 1.244-4.481q3.279-11.622 6.549-23.244c.157-.564.36-.8.994-.783 1.686.049 3.38.018 5.179.018z" class="cls-12" data-name="Path 56859"/>
                <path id="Path_56860" d="M1480.494 350.7l-7.872-6.689 3.7-4.369 13.022 11.057-13.019 11.06-3.706-4.359z" class="cls-12" data-name="Path 56860"/>
                <path id="Path_56861" d="M1447.837 350.7l7.868 6.694-3.7 4.365-13.023-11.059 13.023-11.063 3.7 4.367z" class="cls-12" data-name="Path 56861"/>
            </g>
        </g>
        <g id="Group_57996" data-name="Group 57996">
            <path id="Rectangle_27037" d="M0 0h72.466v104.169H0z" class="cls-13" data-name="Rectangle 27037" transform="translate(1561.278 291.326)"/>
            <g id="Group_57990" data-name="Group 57990">
                <path id="Rectangle_27038" d="M0 0h73.253v9.227H0z" class="cls-12" data-name="Rectangle 27038" transform="translate(1643.463 290.399)"/>
                <path id="Rectangle_27039" d="M0 0h73.253v3.488H0z" class="cls-12" data-name="Rectangle 27039" transform="translate(1643.463 307.145)"/>
                <path id="Rectangle_27040" d="M0 0h73.253v3.488H0z" class="cls-12" data-name="Rectangle 27040" transform="translate(1643.463 319.492)"/>
                <path id="Path_56862" d="M1716.717 330.978v3.488h-73.253v-3.488" class="cls-12" data-name="Path 56862"/>
            </g>
            <g id="Group_57991" data-name="Group 57991">
                <path id="Rectangle_27041" d="M0 0h73.253v9.227H0z" class="cls-12" data-name="Rectangle 27041" transform="translate(1643.463 425.963)"/>
                <path id="Rectangle_27042" d="M0 0h73.253v3.488H0z" class="cls-12" data-name="Rectangle 27042" transform="translate(1643.463 442.709)"/>
                <path id="Rectangle_27043" d="M0 0h73.253v3.488H0z" class="cls-12" data-name="Rectangle 27043" transform="translate(1643.463 479.056)"/>
                <path id="Rectangle_27044" d="M0 0h73.253v3.488H0z" class="cls-12" data-name="Rectangle 27044" transform="translate(1643.463 466.013)"/>
                <path id="Rectangle_27045" d="M0 0h73.253v3.488H0z" class="cls-12" data-name="Rectangle 27045" transform="translate(1643.463 455.056)"/>
            </g>
            <g id="Group_57992" data-name="Group 57992">
                <path id="Rectangle_27046" d="M0 0h73.253v9.227H0z" class="cls-12" data-name="Rectangle 27046" transform="translate(1559.985 406.747)"/>
                <path id="Rectangle_27047" d="M0 0h73.253v3.488H0z" class="cls-12" data-name="Rectangle 27047" transform="translate(1559.985 423.493)"/>
                <path id="Rectangle_27048" d="M0 0h73.253v3.488H0z" class="cls-12" data-name="Rectangle 27048" transform="translate(1559.985 459.84)"/>
                <path id="Rectangle_27049" d="M0 0h73.253v3.488H0z" class="cls-12" data-name="Rectangle 27049" transform="translate(1559.985 446.796)"/>
                <path id="Rectangle_27050" d="M0 0h73.253v3.488H0z" class="cls-12" data-name="Rectangle 27050" transform="translate(1559.985 435.84)"/>
                <path id="Rectangle_27051" d="M0 0h73.253v3.488H0z" class="cls-12" data-name="Rectangle 27051" transform="translate(1559.985 471.333)"/>
            </g>
            <g id="Group_57993" data-name="Group 57993">
                <circle id="Ellipse_263" cx="15.067" cy="15.067" r="15.067" class="cls-14" data-name="Ellipse 263" transform="translate(1565.265 494.955)"/>
                <circle id="Ellipse_264" cx="15.067" cy="15.067" r="15.067" class="cls-14" data-name="Ellipse 264" transform="translate(1604.113 494.955)"/>
                <circle id="Ellipse_265" cx="15.067" cy="15.067" r="15.067" class="cls-14" data-name="Ellipse 265" transform="translate(1643.506 494.955)"/>
                <circle id="Ellipse_266" cx="15.067" cy="15.067" r="15.067" class="cls-14" data-name="Ellipse 266" transform="translate(1682.717 494.955)"/>
            </g>
            <g id="Group_57995" data-name="Group 57995">
                <path id="Rectangle_27052" d="M0 0h122.354v73.158H0z" class="cls-4" data-name="Rectangle 27052" transform="translate(1646.138 343.706)"/>
                <g id="Group_57994" data-name="Group 57994">
                    <path id="Rectangle_27053" d="M0 0h107.105v13.797H0z" class="cls-14" data-name="Rectangle 27053" transform="translate(1653.399 353.146)"/>
                    <path id="Rectangle_27054" d="M0 0h30.679v30.679H0z" class="cls-14" data-name="Rectangle 27054" transform="translate(1653.037 373.477)"/>
                    <path id="Rectangle_27055" d="M0 0h30.679v30.679H0z" class="cls-15" data-name="Rectangle 27055" transform="translate(1691.34 373.477)"/>
                    <path id="Rectangle_27056" d="M0 0h30.679v30.679H0z" class="cls-14" data-name="Rectangle 27056" transform="translate(1729.643 373.477)"/>
                </g>
            </g>
            <path id="Rectangle_27057" d="M0 0h151.662v30.331H0z" class="cls-14" data-name="Rectangle 27057" transform="translate(1561.278 537.005)"/>
        </g>
        <g id="Group_58001" data-name="Group 58001">
            <g id="Group_57997" data-name="Group 57997">
                <path id="Path_56863" d="M1820.91 449.972a3.374 3.374 0 0 0 .2-2.436c-2.217-7.69-8.876-22.828-8.876-22.828l9.959-2.581 2.818-.725s5.3 18.449 7.128 26.371a7.619 7.619 0 0 1-.851 5.542c-7.746 13.386-11.708 17.58-16.343 22.243-3.171 3.194-3.738 7.183-4.6 9.159-5.193-4.282-5.319-3.863-5.319-3.863s11.061-20.997 15.884-30.882z" class="cls-16" data-name="Path 56863"/>
            </g>
            <g id="Group_57998" data-name="Group 57998">
                <path id="Path_56864" d="M1793.522 478.857l23.677-19.028s5.553 13.387 1.147 27.423c-2.167 6.9.137 11.809-1.033 15.08-1.091 3.056-9.119 46.5-8.673 49.7s3.982 12.211 5.19 21.627c1.453 11.323.283 48.078 1.386 57.857s-7.938 11.214-8.355 7.9c-3.558-28.286-13.683-72.474-14.91-86.6s.023-39.916 1.571-73.959z" class="cls-17" data-name="Path 56864"/>
                <path id="Path_56865" d="M1805.514 630.329s1.917 10.278 1.3 11.568-2.794 5.028-4.968 6.346c-2.281 1.384-7.3 2.972-7.711 3.586a1.548 1.548 0 0 0 .237 2.1 10.32 10.32 0 0 0 7.051 1.967c6.773-.952 7.543-3.919 11.485-4.3.68-.066 1.913.967 3.814.051a4.462 4.462 0 0 0 2.73-4.266c-.21-2.824-1.737-5.183-2.814-7.293S1815 628.424 1815 628.424" class="cls-17" data-name="Path 56865"/>
                <path id="Path_56866" d="M1793.838 654.4c-.472-.853-.567-2.129-.1-2.429a39.381 39.381 0 0 1 4.261-2.428c1.323-.571 3.411-1.052 2.67-.675s.57 1.886 1.8 1.84c4.235-.158 7.421-2.894 9.844-3.439 3.5-.785 5.052-4.855 5.22-5.517.648.433 2.1 3.774 2.383 4.821a8.308 8.308 0 0 1 .429 3.647 8.483 8.483 0 0 0-.469 3.457 6.653 6.653 0 0 1-2.52.842 9.865 9.865 0 0 1-2.692-.026l-.247-2.191a9.926 9.926 0 0 0-2.156.16 11.741 11.741 0 0 0-3.322 1.455c-.5.565-.908 1.607-1.555 1.914a13.451 13.451 0 0 1-5.58 1.25c-4.545.162-7.16-1.218-7.966-2.681z" class="cls-18" data-name="Path 56866"/>
            </g>
            <g id="Group_57999" data-name="Group 57999">
                <path id="Path_56867" d="M1759.469 652.228c.5-.546 5.89-1.367 8.423-2.4a14.5 14.5 0 0 0 5.938-5.542c.58-1.364.52-8.307.477-11.221-.3-20.08-3.513-69.172-3.931-80.925-.727-20.428 2.137-41.478 10.324-74.177l29.481-22.155s8.038 15.313 5.148 29.848c-1.676 8.433-8.7 9.661-9.916 12.932s-19.452 56.035-19.452 56.035a99.629 99.629 0 0 1 3.4 24.021c.062 10.705-5.119 42.944-6.143 55.237-.131 2.4-.6 8.152.087 9.991.845 2.253 3.03 4.912 2.891 7.742a4.357 4.357 0 0 1-3.363 3.818c-2.079.622-3.223-.588-3.935-.625-4.122-.212-5.293 2.613-12.413 2.538a11.272 11.272 0 0 1-7.039-3.01 1.506 1.506 0 0 1 .023-2.107z" class="cls-17" data-name="Path 56867"/>
                <path id="Path_56868" d="M1758.831 654.735c-.38-.917-.316-2.2.2-2.423a40.8 40.8 0 0 1 4.71-1.765c1.44-.367 3.659-.531 2.846-.268s.35 1.955 1.623 2.094c4.4.48 8.037-1.753 10.609-1.928 3.714-.253 5.115-4.06 5.373-4.691a17.056 17.056 0 0 1 2.574 5.143 8.09 8.09 0 0 1-.019 3.68 8.047 8.047 0 0 0-.922 3.355 7.016 7.016 0 0 1-2.712.455 10.812 10.812 0 0 1-2.779-.429l.023-2.209a10.722 10.722 0 0 0-2.248-.165 7.448 7.448 0 0 0-3.641 1.246c-.608.449-1.253 1.209-1.968 1.382a14.939 14.939 0 0 1-5.783.378c-4.71-.528-7.238-2.29-7.886-3.855z" class="cls-18" data-name="Path 56868"/>
            </g>
            <g id="Group_58000" data-name="Group 58000">
                <path id="Path_56869" d="M1712.408 393.576c-1.462.425-6.248-1.235-7.483-3.209a3.335 3.335 0 0 1-.559-2.124c-.721-.849-1.964-3.851.2-3.225-2.224-1.489-2.789-3.751-3.392-6.283-.2-.848.782-1.1 1.809.579a9.572 9.572 0 0 0 6.452 4.308c.181-.465-.442-.616-.906-1.6-.514-1.092-.176-1.854.312-2.035.37-.137 1.209 1.11 1.5 1.353l3.265 2.772a6.816 6.816 0 0 1 2.367 3.223c.091.247.661 2.754-.414 2.4" class="cls-17" data-name="Path 56869"/>
                <path id="Path_56870" d="M1783.394 416.743c-10.981-.127-30.648-2.007-33.351-2.537-10.65-2.09-37.861-20.744-37.861-20.744s-.518-4.355 3.631-5.56c6.9 5.6 31.611 12.7 34.9 14.7 2.133 1.3 36.68-.116 36.68-.116" class="cls-17" data-name="Path 56870"/>
            </g>
            <path id="Path_56871" d="M1819.971 403.249s4.666 12.576 6.191 22.526l-11.29 1.776v-15.99" class="cls-19" data-name="Path 56871"/>
            <path id="Path_56872" d="M1812.13 455.713c8.138 7.024 11.261 18.675 9.623 31.109-.433 3.291-3.756 12.335-4.27 15.624-1.166 7.484-3.562 18.5-3.422 27.034-10.922 7.921-33.1 7.228-43.139 1.316-1.115-10.314-.907-18.515-.117-32.812 1.192-21.568 10.814-41.678 11.007-43.474" class="cls-18" data-name="Path 56872"/>
            <path id="Path_56873" d="M1780.894 435.124c.414 3.85 0 9.772-.536 16.351a32.737 32.737 0 0 0-.536 4.313 2.454 2.454 0 0 0 .853 1.681c1.169 1.145 3.436 1.852 5.921 2.291 8.089 1.462 20.882.487 24.488 1.194 3.388.682 6.872-.463 6.872-2.535 0-1.437-1.315-2.241-1.438-5.068-.268-6.189-.073-20.274 1.072-26.56 2.388-13.183 3.046-21 1.389-35.747l-24.708-7.018c-1.9.317-1.073 6.116-2.973 6.433-1.389.22-9.211 7.652-11.428 16.424a34.085 34.085 0 0 0-2.851 5.7 10.051 10.051 0 0 0 .024 7.8c1.902 5.189 3.244 8.917 3.851 14.741z" class="cls-19" data-name="Path 56873"/>
            <path id="Path_56874" d="M1782.112 435.124c.414 3.85 0 9.772-.536 16.351a32.737 32.737 0 0 0-.536 4.313 2.458 2.458 0 0 0 .853 1.681v-.024c-.731-1.633 1.023-9.747 1.779-14.3a51.565 51.565 0 0 0-1.073-18.982c-1.608-5.58-2.217-8.236-2.217-8.236s-1.267-1.9-2.144-3.338a10.046 10.046 0 0 0 .024 7.8c1.901 5.183 3.238 8.911 3.85 14.735z" class="cls-19" data-name="Path 56874"/>
            <path id="Path_56875" d="M1784.746 396.2a10.822 10.822 0 0 0-7.283 1.249c-4.764 2.814-14.71 4.47-14.71 4.47s-.764 11.362.463 15.722c0 0 3.3-.52 13.1.543 10.126 1.1 23.644 7.808 23.644 7.808" class="cls-19" data-name="Path 56875"/>
            <path id="Path_56876" d="M1784.677 357.785c2.421-4.638 6.261-11.2 15.443-10.288s17.045 6.7 16.934 13.579-4.771 15.168-6.566 19.928-1.034 11.837-1.034 11.837l-20.354-.732s.529-6.22-.713-8.571c-.694-1.315-3.422-3.78-6.584-6.334-1.381-1.116-2.5-3.445-1.67-7.078 1.237-5.432 1.681-7.819 2.473-9.412.57-1.144 1.543-1.914 2.071-2.929z" class="cls-17" data-name="Path 56876"/>
            <path id="Path_56877" d="M1785.049 394.841c1.233-1.462 3.125-2.191 4.217-3.764a8.494 8.494 0 0 0 1.452-5.51 10.232 10.232 0 0 0-1.217-3.117c-2.213-4.463-2.354-7.348.807-10.955a12.575 12.575 0 0 0 2.584-3.9c.478-1.338.849-2.8-.45-3.607a1.732 1.732 0 0 0-2.345.023c-.5.452-1.954 4.713-2.21 1.789-.244-2.8-1.306-3.506 1.15-8.53.291-.6 1.65-2.937 1.449-3.472-3.157.6-4.235 1.433-5.526 3.448-1.413-1.581 2.709-13.145 15.408-12.829 3.208.08 6.522.29 9.376 1.738s6.032 4.005 5.84 6.568c4.5.866 5.129 5.452 5.479 7.16a22.515 22.515 0 0 1 .267 7.433c-.476 3.649-1.833 7.132-2.554 10.745a15.749 15.749 0 0 0 .413 8.993c1.117 2.69 3.783 4.154 5.137 6.777a11.816 11.816 0 0 1-.151 10.789c-1.753 3.322-3.949 5.505-3.374 9.586a13.044 13.044 0 0 1-4.3 12.448 13.435 13.435 0 0 1-9.7 2.629 22.446 22.446 0 0 1-7.956-2.511c-4.744-2.576-8.973-4.239-12.039-11.083-1.736-3.875.806-4.415-.743-8.387-.867-2.226-2.722-4.071-2.959-6.542a8.3 8.3 0 0 1 1.806-5.746c.044-.058.09-.114.139-.173z" class="cls-18" data-name="Path 56877"/>
        </g>
        <g id="Group_58025" data-name="Group 58025">
            <g id="Group_58005" data-name="Group 58005">
                <path id="Path_56878" d="M1415.2 464.781c.1 1 1.47 11.476 12.239 11.476 11.306 0 9.412-11.193 9.412-11.193l.014-.071a11.236 11.236 0 0 0-3.547-.169v-5.3l-12.833-7.179h-.466v12.366a23.241 23.241 0 0 0-4.819.07z" class="cls-16" data-name="Path 56878"/>
                <g id="Group_58004" data-name="Group 58004">
                    <g id="Group_58003" data-name="Group 58003">
                        <g id="Group_58002" data-name="Group 58002">
                            <path id="Path_56879" d="M1421.431 428.687a14.671 14.671 0 0 0-3.857 7.151c-1.233 5.437-.072 11.189 1.5 16.428a8.274 8.274 0 0 0 1.129 2.555 9.215 9.215 0 0 0 1.407 1.42q3.424 2.982 6.843 5.97c1.544 1.351 11.047 2.477 12.861 1.18 6.989-5 8.334-19.476 6.935-26.878-2.316-12.28-18.099-16.67-26.818-7.826z" class="cls-16" data-name="Path 56879"/>
                        </g>
                    </g>
                    <path id="Path_56880" d="M1425.357 444.4c-.093-1.182-1.309-2.476-2.528-1.71-1.263.795-.966 2.893-.443 4.049.411.906 1.784 1.9 2.713 1.055.779-.706-.432-1.539-.471-2.184-.036-.58 1.124-.995.649-1.617" class="cls-20" data-name="Path 56880"/>
                    <path id="Path_56881" d="M1425.133 449.867a3.612 3.612 0 0 1-3.978-2.363 13.59 13.59 0 0 1-.487-3.8 9.113 9.113 0 0 0-.312 4.191c.33 2.584 1.236 5.046 3.265 5.078s1.512-3.106 1.512-3.106z" class="cls-20" data-name="Path 56881"/>
                    <path id="Path_56882" d="M1426.7 448.028a.506.506 0 0 0 .142.043c.789.11 1.1-.844 1.221-1.442a26.327 26.327 0 0 0 .279-4.217 3.228 3.228 0 0 1 .128-1.127c.444-1.015 1.624-1.674 1.984-2.722.42-1.219-.763-2.436-.294-3.77.719-2.044 3.344-2.514 5.242-2.492a59.509 59.509 0 0 1 8.437 1c2.968.461 6.762.9 9.376-.979 3.152-2.262 4.468-8.157 2.117-11.384a7.636 7.636 0 0 0-5.845-2.746c-2.257-.051-4.166 1.3-6.236 1.972-1.65.539-3.246-1.039-4.789-1.347-1.938-.387-2.761 1.729-4.476 1.787-1.666.056-3.3-1.245-4.92-1.541-3.229-.589-3.038 2.654-5.2 3.762-1.346.688-3.086.272-4.448.971-1.035.532-1.18 1.466-1.406 2.524a24.471 24.471 0 0 1-.506 2.841 6.43 6.43 0 0 1-1.44 1.887 6.919 6.919 0 0 0-1.2 2.283 14.243 14.243 0 0 0-.6 5.8 39.454 39.454 0 0 0 2.426 9.542c.707 1.993.97 4.067 2.057 5.953.292.507 1.589 1.987 2.071.885a1.636 1.636 0 0 0 .069-.763c-.143-2.054-2.056-15.291 2.958-13.7a3.561 3.561 0 0 1 2.152 2.209 8.608 8.608 0 0 1 .442 3.662 5.786 5.786 0 0 0-.006.543.615.615 0 0 0 .265.566z" class="cls-18" data-name="Path 56882"/>
                </g>
            </g>
            <path id="Path_56883" d="M1433.317 463.611a17.274 17.274 0 0 1-9.464-5.421 10.392 10.392 0 0 0 9.806 7.993z" class="cls-20" data-name="Path 56883"/>
            <g id="Group_58007" data-name="Group 58007">
                <path id="Rectangle_27058" d="M1415.8 567.078h8.161V645.2a1.626 1.626 0 0 1-1.626 1.626h-4.909a1.626 1.626 0 0 1-1.626-1.626v-78.122z" class="cls-21" data-name="Rectangle 27058"/>
                <path id="Rectangle_27059" d="M1397.435 568.2h44.884v.5a6.314 6.314 0 0 1-6.314 6.311h-32.256a6.314 6.314 0 0 1-6.314-6.311v-.5z" class="cls-21" data-name="Rectangle 27059"/>
                <g id="Group_58006" data-name="Group 58006">
                    <path id="Rectangle_27060" d="M1415.8 637.537h8.161v17.958a1.626 1.626 0 0 1-1.626 1.626h-4.909a1.626 1.626 0 0 1-1.626-1.626v-17.958z" class="cls-21" data-name="Rectangle 27060"/>
                    <path id="Path_56884" d="M1462.229 652.344a4.776 4.776 0 1 1-4.777-4.777 4.777 4.777 0 0 1 4.777 4.777z" class="cls-21" data-name="Path 56884"/>
                    <path id="Path_56885" d="M1387.078 652.344a4.777 4.777 0 1 1-4.777-4.777 4.777 4.777 0 0 1 4.777 4.777z" class="cls-21" data-name="Path 56885"/>
                    <path id="Rectangle_27061" d="M0 0h16.419v14.348H0z" class="cls-21" data-name="Rectangle 27061" transform="translate(1411.667 631.455)"/>
                    <path id="Rectangle_27062" d="M1383.276 642.427h73.2a5.751 5.751 0 0 1 5.749 5.751v1h-84.7v-1a5.751 5.751 0 0 1 5.751-5.751z" class="cls-21" data-name="Rectangle 27062"/>
                </g>
            </g>
            <path id="Path_56886" d="M1387.813 510.319a3.326 3.326 0 0 1 3.44 3.211v.3c-.56 9.721 1.5 33.436 10.555 41.528 11.071 9.892 42.449 8.545 42.449 8.545s5.182 6.36-5.182 7.773-39.571.471-46.638-6.124c-6.84-6.384-10.9-23.11-7.84-52.223a3.35 3.35 0 0 1 3.219-3.014z" class="cls-21" data-name="Path 56886"/>
            <g id="Group_58009" data-name="Group 58009">
                <g id="Group_58008" data-name="Group 58008">
                    <path id="Path_56887" d="M1446.6 630.175l-3.731 8.508 11.431 5.017 3.745-8.536z" class="cls-22" data-name="Path 56887"/>
                    <path id="Path_56888" d="M1392.687 535.614c.706 1.413 51.506.028 56.3.466 0 0 31.092 14.839 35.558 28.732a15.224 15.224 0 0 1 .438 5.455c-1.244 19.56-23.517 66.395-23.517 66.395l-3.42-1.5-11.447-4.989-1.626-.706s17.666-52.644 14.133-55.471-43.571-9.893-57.463-13.652-8.956-24.73-8.956-24.73z" class="cls-18" data-name="Path 56888"/>
                    <path id="Path_56889" d="M1490.187 632.364l-.893 12.782h12.479l.893-12.81z" class="cls-23" data-name="Path 56889"/>
                    <path id="Path_56890" d="M1449.244 535.642l.453.2s52.05 7.307 60.53 21.906c5.511 9.5-5.157 78.892-5.157 78.892l-18.415.042s2.754-57.806 1.836-61.028c-1.033-3.675-2.8-5-3.5-5.385a15.221 15.221 0 0 0-.438-5.455c-4.466-13.893-35.558-28.732-35.558-28.732a.9.9 0 0 0 .249-.44z" class="cls-18" data-name="Path 56890"/>
                    <path id="Path_56891" d="M1392.92 551.584c.373.777 8.455-5.007 22.876-10.3 16.628-6.1 32.008-4.239 33.189-5.2a.9.9 0 0 0 .255-.438 31.3 31.3 0 0 0 .72-7.292c.029-.594.029-1.23.043-1.88l-.537.042-.594-3.151-43.485-16.511a170.95 170.95 0 0 1-2.925-18.825l-3.491-.48c-2.333 17.637-10.584 54.613-6.051 64.035z" class="cls-24" data-name="Path 56891"/>
                    <path id="Path_56892" d="M1403.507 509.115c1.158 5.568 4.155 16.648 10.034 18.132 7.674 1.951 22.514 1.852 36.419 1.1.029-.594.029-1.23.043-1.88l-.537.042-.594-3.151-43.485-16.5a170.95 170.95 0 0 1-2.925-18.825 1.161 1.161 0 0 1-.014.156c-.086 1.452-.68 12.701 1.059 20.926z" class="cls-25" data-name="Path 56892"/>
                    <path id="Path_56893" d="M1447.1 473.657c.778 1.413 1.894 16.535 2.5 31.544l8.889-8.3c-3.775-7.301-11.389-23.244-11.389-23.244z" class="cls-25" data-name="Path 56893"/>
                    <path id="Path_56894" d="M1452.424 516.167c7.5 1.3 14.4 2.417 14.4 2.417l.014.368c8.353-6.671 21.058-25.566 21.058-25.566s-3.8-4.565-4.749-5.766c-.141-.184-20.859 14.076-21.919 13.948-.269-.028-1.329-1.893-2.742-4.663l-8.889 8.3c.141 3.575.254 7.136.325 10.514.835.152 1.665.293 2.502.448z" class="cls-16" data-name="Path 56894"/>
                    <path id="Path_56895" d="M1466.825 518.584l.184 6.19h22.612s-2.247-8.833-8.366-8.833-8.48 3.237-8.48 3.237z" class="cls-16" data-name="Path 56895"/>
                    <path id="Path_56896" d="M1483.318 487.478l-.17.142c.947 1.2 4.749 5.766 4.749 5.766l2.36-1.668a5.87 5.87 0 0 0 5.625-.071c3.152-1.71 1.2-5.793 1.039-6.277.611.172 4.388 3.225 4.981 2.9s1.032-1.4-3.194-5.569-9.949 1.188-10.119 1.188z" class="cls-16" data-name="Path 56896"/>
                    <path id="Path_56897" d="M1495.387 490.938a1.725 1.725 0 0 1-.57 2.372 2.304 2.304 0 0 1-.138.076 16.154 16.154 0 0 1-6.125 1.146c-1.354-.13-2.43-2.025-2.43-2.025l4.1-3.846h3.278z" class="cls-16" data-name="Path 56897"/>
                    <path id="Path_56898" d="M1495.633 491.776c-.243-.838-2.571-.391-4.014-.357-1.063.025-1.645-.253-1.974-1.063s1.215-2.1 1.519-1.7-.557.974-.582 1.512 1.518.715 2.708.715a28.866 28.866 0 0 1 3.241.31z" class="cls-26" data-name="Path 56898"/>
                </g>
            </g>
            <path id="Path_56899" d="M1407.6 514.881l22.145-7.843c1.611 3.01 3.336 5.271 5.046 5.723 2.586.679 8.833 1.852 15.136 2.954.834.156 1.667.3 2.5.452 7.5 1.3 14.4 2.417 14.4 2.417l.014.368v.24l.17 5.582v1.417a156.268 156.268 0 0 0-17 .279c-13.27.947-30.385 1.512-36.052-1.159-2.657-1.258-4.776-5.384-6.443-10.472z" class="cls-16" data-name="Path 56899"/>
            <path id="Path_56900" d="M1429.741 507.038l-22.146 7.844 1 2.959 21.919-9.4z" class="cls-25" data-name="Path 56900"/>
            <path id="Path_56901" d="M1429.741 507.038c1.611 3.01 3.336 5.271 5.046 5.723 2.586.679 8.833 1.852 15.136 2.954a577.28 577.28 0 0 0-.325-10.514c-.608-15.009-1.724-30.131-2.5-31.544-1.272-2.361-4.748-7.491-10.232-8.664l-.014.071s1.894 11.193-9.412 11.193c-10.769 0-12.14-10.472-12.239-11.476-5.54.622-14.034 3.392-15.207 14.529-.24 2.2-.579 5.031-1.017 8.239l3.49.48s1.414 15.688 5.046 26.81l.085.042z" class="cls-24" data-name="Path 56901"/>
            <path id="Path_56902" d="M1429.971 505l-8.843-21.407 6.515 22.271z" class="cls-27" data-name="Path 56902"/>
            <path id="Path_56903" d="M1415.2 464.781h4.819s6.858 7.53 11.267 7.53 2.032-7.487 2.032-7.487h2.151a12.157 12.157 0 0 1 12.077 10.778c.08.7.153 1.371.215 1.974.472 4.555-17.982 7.87-17.982 7.87l-9.5-.531-5.77-11.258-1.15-4.61z" class="cls-24" data-name="Path 56903"/>
            <g id="Group_58013" data-name="Group 58013">
                <g id="Group_58012" data-name="Group 58012">
                    <g id="Group_58011" data-name="Group 58011">
                        <g id="Group_58010" data-name="Group 58010">
                            <path id="Path_56904" d="M1473.351 653.492c-.429 2.3-2.025 3.94-4.327 3.51l-30.7-5.725a1.432 1.432 0 0 1-1.144-1.668l.508-2.723s32.282 5.649 35.674 6.589z" class="cls-18" data-name="Path 56904"/>
                            <path id="Path_56905" d="M1464.22 645.764c-.321-.278-.629-.553-.949-.831-.616-.551-1.221-1.088-1.8-1.607-.307-.276-.615-.551-.9-.81l-1.562-1.4c-.34-.307-.658-.6-.943-.856l-1.254-1.123a.694.694 0 0 0-.913-.019c-1.262 1.061-5.34 3.487-12.727-1.084a.709.709 0 0 0-.979.216l-.027.046-4.466 8.585s32.282 5.649 35.673 6.589c-1.121-.69-5.242-4.256-9.153-7.706z" class="cls-18" data-name="Path 56905"/>
                        </g>
                    </g>
                </g>
            </g>
            <g id="Group_58017" data-name="Group 58017">
                <g id="Group_58016" data-name="Group 58016">
                    <g id="Group_58015" data-name="Group 58015">
                        <g id="Group_58014" data-name="Group 58014">
                            <path id="Path_56906" d="M1521.693 653.191c-.057 2.342-1.372 4.212-3.713 4.155l-31.215-.762a1.431 1.431 0 0 1-1.4-1.46v-.005l.068-2.769s32.77.434 36.268.822z" class="cls-18" data-name="Path 56906"/>
                            <path id="Path_56907" d="M1511.447 647.016c-.361-.223-.709-.446-1.069-.669l-2.038-1.3c-.348-.223-.7-.446-1.018-.656l-1.765-1.128a97.756 97.756 0 0 1-1.068-.7l-1.416-.909a.7.7 0 0 0-.905.127c-1.077 1.248-4.716 4.293-12.736.957a.71.71 0 0 0-.933.371l-.019.048-3.042 9.187s32.77.434 36.268.822c-1.212-.503-5.848-3.366-10.259-6.15z" class="cls-18" data-name="Path 56907"/>
                        </g>
                    </g>
                </g>
            </g>
            <g id="Group_58019" data-name="Group 58019">
                <path id="Path_56908" d="M1543.9 526.191l16.67-44.461h-47.459l-16.67 44.461z" class="cls-28" data-name="Path 56908"/>
                <path id="Path_56909" d="M1493.505 526.191h2.934l16.67-44.461-2.664.119-15.419 40.243z" class="cls-28" data-name="Path 56909"/>
                <path id="Path_56910" d="M1558.016 521.386h-59.753" class="cls-1" data-name="Path 56910"/>
                <g id="Group_58018" data-name="Group 58018">
                    <path id="Path_56911" d="M1494.425 526.191h-31.36l.085-2.8h31.917" class="cls-28" data-name="Path 56911"/>
                </g>
                <ellipse id="Ellipse_267" cx="3.747" cy="2.725" class="cls-8" data-name="Ellipse 267" rx="3.747" ry="2.725" transform="rotate(-77.213 1080.436 -701.476)"/>
            </g>
            <g id="Group_58024" data-name="Group 58024">
                <g id="Group_58020" data-name="Group 58020">
                    <path id="Rectangle_27063" d="M0 0h7.55v124.044H0z" class="cls-29" data-name="Rectangle 27063" transform="translate(1360.821 534.67)"/>
                </g>
                <g id="Group_58021" data-name="Group 58021">
                    <path id="Rectangle_27064" d="M0 0h7.55v124.044H0z" class="cls-29" data-name="Rectangle 27064" transform="translate(1401.805 534.67)"/>
                </g>
                <g id="Group_58022" data-name="Group 58022">
                    <path id="Rectangle_27065" d="M0 0h7.55v124.044H0z" class="cls-29" data-name="Rectangle 27065" transform="translate(1533.106 534.67)"/>
                </g>
                <g id="Group_58023" data-name="Group 58023">
                    <path id="Rectangle_27066" d="M0 0h7.55v124.044H0z" class="cls-29" data-name="Rectangle 27066" transform="translate(1574.091 534.67)"/>
                </g>
                <rect id="Rectangle_27067" width="242.949" height="8.951" class="cls-29" data-name="Rectangle 27067" rx="4.149" transform="translate(1349.595 526.19)"/>
            </g>
            <path id="Path_56912" d="M1458.487 496.9l.678 1.311-9.565 9.889v-2.9z" class="cls-30" data-name="Path 56912"/>
        </g>
    </g>
</svg>
