<svg xmlns="http://www.w3.org/2000/svg" xmlns:xlink="http://www.w3.org/1999/xlink" width="390.025" height="400.524" viewBox="0 0 390.025 400.524">
  <defs>
    <linearGradient id="linear-gradient" x1="0.5" x2="0.5" y2="1" gradientUnits="objectBoundingBox">
      <stop offset="0" stop-color="#0076ff"/>
      <stop offset="1" stop-color="#00d8ff"/>
    </linearGradient>
    <linearGradient id="linear-gradient-2" x1="0.5" x2="0.5" y2="1" gradientUnits="objectBoundingBox">
      <stop offset="0" stop-color="#fc575e"/>
      <stop offset="1" stop-color="#f7b42c"/>
    </linearGradient>
  </defs>
  <g id="Group_71296" data-name="Group 71296" transform="translate(-1203.328 -271.475)">
    <g id="OBJECTS" transform="translate(1247.643 242.103)">
      <g id="Group_18" data-name="Group 18" transform="translate(25.685 29.373)">
        <g id="Group_1" data-name="Group 1" transform="translate(-70)">
          <path id="Path_1" data-name="Path 1" d="M391.586,148.953s2.868-8.275,11.468-8.487,5.514,5.092,14.556,4.243,5.734-11.033,19.849-13.154,20.069,17.4,20.069,17.4Z" transform="translate(-67.503 -42.458)" fill="#ffedea"/>
          <path id="Path_2" data-name="Path 2" d="M230.576,42.486s2.14-6.18,8.564-6.338,4.118,3.8,10.87,3.169,4.282-8.24,14.823-9.823S279.82,42.486,279.82,42.486Z" transform="translate(-40.803 -29.373)" fill="#ffedea"/>
          <path id="Path_3" data-name="Path 3" d="M25.685,109.9s1.913-5.522,7.653-5.664,3.68,3.4,9.714,2.831S46.88,99.7,56.3,98.284,69.694,109.9,69.694,109.9Z" transform="translate(-25.685 -34.45)" fill="#ffedea"/>
        </g>
        <g id="Group_17" data-name="Group 17" transform="translate(0.562 39.705)">
          <g id="Group_16" data-name="Group 16">
            <g id="Group_2" data-name="Group 2" transform="translate(64.866)">
              <rect id="Rectangle_2" data-name="Rectangle 2" width="184.05" height="360.819" rx="28.467" fill="#e5edfd"/>
              <g id="Rectangle_3" data-name="Rectangle 3" fill="none" stroke="#868686" stroke-width="1.75">
                <rect width="184.05" height="360.819" rx="28.467" stroke="none"/>
                <rect x="0.875" y="0.875" width="182.3" height="359.069" rx="27.592" fill="none"/>
              </g>
            </g>
            <g id="Group_15" data-name="Group 15" transform="translate(0 45.456)">
              <g id="Group_4" data-name="Group 4" transform="translate(78.517 182.656)">
                <rect id="Rectangle_5" data-name="Rectangle 5" width="108.528" height="93.063" rx="7.926" fill="#ffedea"/>
                <g id="Group_3" data-name="Group 3" transform="translate(15.182 13.023)">
                  <rect id="Rectangle_6" data-name="Rectangle 6" width="27.404" height="27.404" rx="3.152" fill="#c4c4c4"/>
                  <line id="Line_2" data-name="Line 2" x2="24.769" transform="translate(36.758 8.646)" fill="none" stroke="#000" stroke-linecap="round" stroke-linejoin="round" stroke-width="1.3"/>
                  <line id="Line_3" data-name="Line 3" x2="39.944" transform="translate(36.758 17.466)" fill="none" stroke="#000" stroke-linecap="round" stroke-linejoin="round" stroke-width="1.3"/>
                  <line id="Line_4" data-name="Line 4" x2="27.404" transform="translate(0 38.812)" fill="none" stroke="#c4c4c4" stroke-linecap="round" stroke-linejoin="round" stroke-width="1.3"/>
                  <line id="Line_5" data-name="Line 5" x2="76.701" transform="translate(0 47.919)" fill="none" stroke="#c4c4c4" stroke-linecap="round" stroke-linejoin="round" stroke-width="1.3"/>
                  <line id="Line_6" data-name="Line 6" x2="76.701" transform="translate(0 57.952)" fill="none" stroke="#c4c4c4" stroke-linecap="round" stroke-linejoin="round" stroke-width="1.3"/>
                </g>
              </g>
              <g id="Group_5" data-name="Group 5" transform="translate(-20 17.315)">
                <circle id="Ellipse_1" data-name="Ellipse 1" cx="21.98" cy="21.98" r="21.98" transform="translate(0 42.76) rotate(-76.579)" fill="#ffa65a"/>
                <path id="Path_4" data-name="Path 4" d="M45.323,169.164l6.9,5.11L64.041,162.01" transform="translate(-27.696 -141.636)" fill="none" stroke="#fff" stroke-linecap="round" stroke-linejoin="round" stroke-width="2.136"/>
              </g>
              <g id="Group_7" data-name="Group 7" transform="translate(13.943 102.028)">
                <rect id="Rectangle_7" data-name="Rectangle 7" width="83.201" height="60.882" rx="5.185" transform="translate(0)" fill="url(#linear-gradient)"/>
                <path id="Path_119449" data-name="Path 119449" d="M36.415,23.6q-.366-.418-.772-.839.283-.3.549-.6c3.341-3.755,4.752-7.522,3.445-9.785-1.253-2.171-4.981-2.818-9.65-1.911q-.689.135-1.372.3-.131-.45-.277-.9C26.755,5.1,24.2,2,21.583,2c-2.506,0-4.929,2.908-6.475,7.406q-.229.666-.423,1.34-.456-.112-.916-.208c-4.925-1.01-8.89-.343-10.195,1.923-1.251,2.171.056,5.724,3.18,9.308q.466.531.957,1.041c-.387.4-.751.793-1.093,1.189-3.049,3.534-4.282,7.027-3.033,9.19,1.29,2.235,5.2,2.966,9.96,2.029q.579-.114,1.151-.258.208.731.46,1.451c1.54,4.406,3.949,7.218,6.446,7.218,2.581,0,5.166-3.024,6.733-7.616.125-.362.239-.739.352-1.126q.739.183,1.488.325c4.585.868,8.226.187,9.473-1.977,1.288-2.238-.042-5.988-3.235-9.637ZM5.115,13.348c.8-1.395,4.044-1.94,8.3-1.066q.408.083.83.187a42.594,42.594,0,0,0-.878,5.574,43.476,43.476,0,0,0-4.377,3.522Q8.53,21.093,8.1,20.6C5.418,17.53,4.361,14.657,5.115,13.348Zm8.091,11.923c-1.062-.806-2.05-1.63-2.947-2.458.9-.824,1.884-1.644,2.945-2.448q-.058,1.226-.056,2.454T13.205,25.271Zm0,8.2a15.064,15.064,0,0,1-5.5.2A3.676,3.676,0,0,1,5.127,32.3c-.76-1.311.231-4.117,2.839-7.139q.491-.568,1.016-1.107a42.648,42.648,0,0,0,4.386,3.538,43.3,43.3,0,0,0,.887,5.645q-.52.131-1.051.237ZM27.983,16.739q-1.047-.66-2.119-1.276t-2.138-1.172c1.234-.518,2.448-.962,3.62-1.322a37.92,37.92,0,0,1,.637,3.77ZM16.792,9.982c1.324-3.851,3.285-6.2,4.8-6.2,1.609,0,3.7,2.535,5.066,6.654q.133.4.25.812a42.625,42.625,0,0,0-5.258,2.019A41.757,41.757,0,0,0,16.4,11.223q.181-.624.391-1.241Zm-.833,2.964a38.1,38.1,0,0,1,3.6,1.336q-2.19,1.128-4.263,2.458c.167-1.328.389-2.6.662-3.794ZM15.3,28.89q1.034.664,2.1,1.276,1.087.624,2.2,1.2a37.874,37.874,0,0,1-3.63,1.384q-.43-1.911-.67-3.857Zm11.356,6.548a15.061,15.061,0,0,1-2.577,4.856,3.676,3.676,0,0,1-2.473,1.557c-1.517,0-3.451-2.258-4.767-6.028q-.233-.668-.429-1.349a41.856,41.856,0,0,0,5.266-2.1,43.293,43.293,0,0,0,5.3,2.038q-.15.518-.323,1.028Zm.753-2.756c-1.184-.366-2.414-.818-3.668-1.345q1.059-.556,2.133-1.176,1.1-.637,2.148-1.305A37.782,37.782,0,0,1,27.409,32.683Zm.93-9.872q0,1.9-.119,3.788c-1.026.7-2.109,1.374-3.235,2.023s-2.233,1.243-3.324,1.782q-1.721-.824-3.376-1.778t-3.214-2.017q-.146-1.894-.146-3.792t.142-3.79a50.305,50.305,0,0,1,6.573-3.794q1.7.826,3.337,1.771T28.2,19Q28.339,20.9,28.339,22.81Zm1.99-10.6c4-.776,7.014-.254,7.77,1.055.806,1.395-.348,4.471-3.235,7.714q-.239.269-.5.539A41.756,41.756,0,0,0,29.907,18a41.712,41.712,0,0,0-.843-5.514q.645-.158,1.266-.281ZM30.059,20.3A37.806,37.806,0,0,1,33.1,22.769a37.716,37.716,0,0,1-3.033,2.514q.048-1.236.048-2.473Q30.117,21.553,30.059,20.3Zm8.053,12.05c-.758,1.313-3.68,1.861-7.6,1.12q-.674-.127-1.382-.3a41.772,41.772,0,0,0,.806-5.582,41.5,41.5,0,0,0,4.448-3.57q.368.381.7.758A15.057,15.057,0,0,1,38,29.425,3.676,3.676,0,0,1,38.112,32.345ZM19.756,19.563a3.717,3.717,0,1,0,5.079,1.361A3.717,3.717,0,0,0,19.756,19.563Z" transform="translate(19.98 7.626)" fill="#fff"/>
              </g>
              <g id="Group_11" data-name="Group 11" transform="translate(86.062)">
                <rect id="Rectangle_8" data-name="Rectangle 8" width="141.6" height="93.063" rx="7.926" fill="#fff"/>
                <g id="Group_10" data-name="Group 10" transform="translate(11.643 22.189)">
                  <g id="Group_8" data-name="Group 8">
                    <rect id="Rectangle_9" data-name="Rectangle 9" width="24.029" height="24.029" rx="2.764" fill="#9bbdf9"/>
                    <rect id="Rectangle_10" data-name="Rectangle 10" width="24.029" height="24.029" rx="2.764" transform="translate(30.612)" fill="#9bbdf9"/>
                    <rect id="Rectangle_11" data-name="Rectangle 11" width="24.029" height="24.029" rx="2.764" transform="translate(61.223)" fill="#9bbdf9"/>
                    <rect id="Rectangle_12" data-name="Rectangle 12" width="24.029" height="24.029" rx="2.764" transform="translate(91.835)" fill="url(#linear-gradient-2)"/>
                  </g>
                  <g id="Group_9" data-name="Group 9" transform="translate(0 32.413)">
                    <rect id="Rectangle_13" data-name="Rectangle 13" width="24.029" height="24.029" rx="2.764" fill="#9bbdf9"/>
                    <rect id="Rectangle_14" data-name="Rectangle 14" width="24.029" height="24.029" rx="2.764" transform="translate(30.612)" fill="#9bbdf9"/>
                    <rect id="Rectangle_15" data-name="Rectangle 15" width="24.029" height="24.029" rx="2.764" transform="translate(61.223)" fill="#9bbdf9"/>
                    <rect id="Rectangle_16" data-name="Rectangle 16" width="24.029" height="24.029" rx="2.764" transform="translate(91.835)" fill="#9bbdf9"/>
                  </g>
                </g>
              </g>
              <g id="Group_13" data-name="Group 13" transform="translate(115.027 102.028)">
                <rect id="Rectangle_17" data-name="Rectangle 17" width="92.636" height="60.882" rx="5.185" fill="#fff"/>
                <rect id="Rectangle_18" data-name="Rectangle 18" width="70.927" height="13.841" rx="2.764" transform="translate(11.674 6.906)" fill="url(#linear-gradient)"/>
                <g id="Group_12" data-name="Group 12" transform="translate(12.6 29.812)">
                  <line id="Line_7" data-name="Line 7" x2="32.324" fill="none" stroke="#000" stroke-linecap="round" stroke-linejoin="round" stroke-width="1.3"/>
                  <line id="Line_8" data-name="Line 8" x2="69.075" transform="translate(0 7.872)" fill="none" stroke="#000" stroke-linecap="round" stroke-linejoin="round" stroke-width="1.3"/>
                  <line id="Line_9" data-name="Line 9" x2="69.075" transform="translate(0 16.554)" fill="none" stroke="#000" stroke-linecap="round" stroke-linejoin="round" stroke-width="1.3"/>
                </g>
              </g>
              <g id="Group_14" data-name="Group 14" transform="translate(203.41 202.469)">
                <rect id="Rectangle_19" data-name="Rectangle 19" width="59.821" height="53.436" rx="6.312" fill="#ffa65a"/>
                <path id="Path_6" data-name="Path 6" d="M299.8,365.389l-1.965-.345a10.172,10.172,0,0,0-1.013-2.447l1.145-1.634a1.509,1.509,0,0,0-.169-1.935l-1.177-1.176a1.508,1.508,0,0,0-1.934-.138l-1.634,1.146a10.138,10.138,0,0,0-2.447-1.014l-.338-2.009a1.51,1.51,0,0,0-1.459-1.252h-1.7a1.511,1.511,0,0,0-1.49,1.252l-.344,1.959a10.159,10.159,0,0,0-2.448,1.014l-1.627-1.1a1.509,1.509,0,0,0-1.934.169L278.1,359.06a1.507,1.507,0,0,0-.169,1.934l1.146,1.634a10.158,10.158,0,0,0-1.014,2.448l-1.959.344a1.509,1.509,0,0,0-1.252,1.49v1.665a1.509,1.509,0,0,0,1.252,1.489l1.959.345a10.153,10.153,0,0,0,1.014,2.447l-1.146,1.634a1.507,1.507,0,0,0,.169,1.934l1.176,1.176a1.507,1.507,0,0,0,1.934.17l1.634-1.146a10.161,10.161,0,0,0,2.448,1.014l.344,1.959a1.508,1.508,0,0,0,1.49,1.252h1.689a1.508,1.508,0,0,0,1.49-1.252l.344-1.959a10.146,10.146,0,0,0,2.448-1.014l1.6,1.121a1.507,1.507,0,0,0,1.934-.169L297.8,376.4a1.508,1.508,0,0,0,.169-1.934l-1.145-1.647a10.173,10.173,0,0,0,1.013-2.447l1.965-.345a1.507,1.507,0,0,0,1.252-1.489v-1.665A1.508,1.508,0,0,0,299.8,365.389Zm-11.855,7.536a5.22,5.22,0,1,1,5.22-5.22v.03A5.22,5.22,0,0,1,287.949,372.925Z" transform="translate(-258.041 -340.999)" fill="#fff"/>
              </g>
            </g>
          </g>
        </g>
      </g>
    </g>
  </g>
</svg>
