<?xml version="1.0" encoding="UTF-8"?>
<!-- Generator: Adobe Illustrator 25.2.3, SVG Export Plug-In . SVG Version: 6.00 Build 0)  -->
<svg version="1.1" id="Layer_1" xmlns="http://www.w3.org/2000/svg" xmlns:xlink="http://www.w3.org/1999/xlink" x="0px" y="0px" viewBox="0 0 65 70" style="enable-background:new 0 0 65 70;" xml:space="preserve">
<style type="text/css">
	.st0{fill:#3952FF;}
</style>
<g>
	<g>
		<path class="st0" d="M48,28.9c0.7,0,1.3-0.6,1.3-1.4c0-0.8-0.6-1.4-1.3-1.4c-0.8,0-1.4,0.6-1.4,1.4C46.7,28.3,47.3,28.9,48,28.9z     M10.7,35c0.7-0.8,0.4-1.8-0.5-2.1c-0.6-0.2-1,0.1-1.4,0.5c-1.6,1.7-2.4,3.8-2.4,6.1c0,0.6,0,1.2,0.2,1.8c0.3,1.7,1.1,3.2,2.3,4.4    c0.6,0.6,1.3,0.7,1.8,0.2c0.5-0.5,0.5-1.2,0-1.8c-0.1-0.1-0.2-0.2-0.3-0.3C9,42.1,8.5,40.2,9,38.1C9.3,36.9,9.9,35.9,10.7,35z     M17.6,53.4c-1.9,0-3.5,1.5-3.5,3.5c0,1.9,1.6,3.5,3.5,3.5c1.9,0,3.5-1.6,3.5-3.5C21,54.9,19.5,53.4,17.6,53.4z M17.5,57.9    c-0.6,0-1-0.5-1-1c0-0.6,0.5-1,1.1-1c0.6,0,1,0.5,1,1.1C18.6,57.5,18.1,57.9,17.5,57.9z M21.7,5.2c-2.8,0-5.5,0-8.3,0    c-0.9,0-1.4,0.5-1.4,1.2c0,0.8,0.5,1.2,1.4,1.2c1.4,0,2.7,0,4.1,0c1.4,0,2.8,0,4.2,0c0.9,0,1.4-0.5,1.4-1.2    C23.1,5.7,22.5,5.2,21.7,5.2z M60.1,51.6c-0.4-3.1-1.6-5.9-3.7-8.2c-3.5-3.6-7.1-7.2-10.7-10.7c-1-1-2.3-1.5-3.8-1.4    c-2,0.1-3.5,1.1-4.2,3c-0.1,0.3-0.3,0.4-0.6,0.3c-0.7-0.3-1.3-0.4-2-0.4c-0.6,0-0.7-0.1-0.7-0.7c0-1.2,0-2.5,0-3.7    c0-0.9,0-0.9,0.9-0.9c3,0,6,0,8.9,0c0.2,0,0.5,0,0.7,0c0.7-0.1,1.2-0.6,1.2-1.3c0-0.9-0.5-1.4-1.5-1.4c-3.1,0-6.2,0-9.4,0    c-0.8,0-0.8,0-0.8-0.8c0-4,0-14.5,0-18.5c0-2.7-1.7-5.6-4.9-5.8H5.7C5.2,1.1,4.6,1.1,4.1,1.3c-2.1,1-3.2,2.7-3.3,5    c-0.1,2.1,0,4.2,0,6.4c0,0.8,0,1.6,0,2.3c0.1,0.8,0.7,1.4,1.5,1.4c0.7,0,1.3-0.6,1.3-1.5c0-0.7,0-1.5,0-2.2c0-0.7,0.1-0.8,0.8-0.8    c1.4,0,2.8,0,4.1,0c7.4,0,14.7,0,22.1,0c0.8,0,0.8,0,0.8,0.8c0,5.2,0,17,0,22.1c0,0.4,0,0.7-0.2,1c-0.3,0.4-0.5,0.8-0.7,1.3    c-0.1,0.3-0.3,0.4-0.6,0.2c-0.2-0.1-0.5-0.2-0.7-0.2c-2.2-0.6-4.5,0.4-5.5,2.4c-0.3,0.6-0.3,0.6-0.8,0.1c-1.1-1.1-2.2-2.2-3.3-3.3    c-1.2-1.2-2.6-1.8-4.3-1.7c-2.4,0.1-4.3,2.1-4.4,4.4c-0.1,1.8,0.6,3.2,1.9,4.4c1.5,1.5,3.1,3.1,4.6,4.6c0.1,0.1,0.3,0.2,0.4,0.5    c-0.1,0.1-0.3,0.1-0.5,0.1c-4.2,0-8.5,0-12.7,0c-0.1,0-0.2,0-0.3,0c-0.4,0-0.6-0.2-0.6-0.5c0-0.2,0-0.4,0-0.7c0-5.1,0-10.3,0-15.4    c0-0.3,0-0.5,0-0.8c-0.1-0.7-0.6-1.2-1.3-1.3c-0.6,0-1.3,0.4-1.4,1.1c-0.1,0.3-0.1,0.5-0.1,0.8c0,9.1,0,18.1,0,27.2    c0,2.5,1.4,4.5,3.7,5.4C5.4,64.9,6.2,65,7.1,65c3.2,0,6.4,0,9.6,0c1.1,0,2.1,0,3.2,0c0.4,0,0.6,0.1,0.7,0.5c0.7,2,1.9,3.3,4.1,3.5    H25c0.1-0.1,0.3-0.1,0.4-0.1c3.2,0,6.5,0,9.7,0c0.1,0,0.3,0,0.4,0.1h10.6c0.7-0.1,1.4-0.1,2.1-0.2c1.4-0.3,2.7-0.8,3.9-1.5    c3.1-1.7,5.4-4.2,6.9-7.5C60.1,57.1,60.4,54.4,60.1,51.6z M31.1,9.4c-4.5,0-9.1,0-13.6,0c-4.5,0-8.9,0-13.4,0    c-0.5,0-0.7-0.1-0.6-0.6c0-0.7,0-1.4,0-2.2c0-1.9,1.2-3.2,3.1-3.2c7.3,0,14.6,0,21.9,0c1.9,0,3.1,1.2,3.1,3.1c0,0.8,0,1.5,0,2.3    C31.7,9.3,31.5,9.4,31.1,9.4z M20.8,61.8c-0.1,0.4-0.3,0.5-0.7,0.5c-4.5,0-9,0-13.5,0c-1.8,0-3.1-1.2-3.1-3.1c0-2.5,0-4.9,0-7.4    c0-0.4,0.1-0.5,0.5-0.5c5.5,0,10.9,0,16.4,0c0.2,0,0.4,0,0.6,0.2c2.2,2.2,4.5,4.5,6.8,6.8c-0.9,0-1.6,0-2.4,0    C23.2,58.5,21.4,59.8,20.8,61.8z M51.2,64.7c-2.1,1.2-4.3,1.8-6.7,1.8c-3,0-5.9,0-8.9,0c-3.3,0-6.6,0-9.8,0c-1.1,0-2-0.3-2.5-1.3    c-0.5-1.1-0.5-2.2,0.1-3.2c0.4-0.8,1.2-1.1,2-1.2c1.5,0,3,0,4.4,0c0.3,0,0.4,0.1,0.6,0.3c0.5,0.5,1,1,1.4,1.4    c0.7,0.6,1.4,0.7,1.9,0.2c0.5-0.5,0.5-1.2-0.2-1.9c-5.2-5.2-10.5-10.5-15.7-15.7c-1.2-1.2-2.3-2.3-3.5-3.5    c-0.3-0.3-0.6-0.7-0.8-1.2c-0.3-0.9-0.3-1.8,0.4-2.5c0.7-0.7,1.6-0.8,2.5-0.4c0.5,0.2,0.9,0.5,1.2,0.9c4.3,4.3,8.6,8.6,12.8,12.8    c0.1,0.1,0.1,0.1,0.2,0.2c0.7,0.7,1.4,0.8,2,0.3c0.5-0.5,0.5-1.3-0.2-2c-1.9-1.9-3.8-3.8-5.8-5.8c-0.4-0.4-0.7-0.8-0.9-1.3    c-0.3-0.9-0.2-1.7,0.5-2.4c0.7-0.7,1.5-0.7,2.4-0.4c0.5,0.2,0.9,0.5,1.3,0.9c1.9,1.9,3.8,3.8,5.7,5.7c0.2,0.2,0.5,0.5,0.8,0.6    c0.6,0.1,1-0.1,1.3-0.6c0.3-0.5,0.2-1.1-0.3-1.5c-1.2-1.3-2.5-2.5-3.7-3.7c-0.3-0.3-0.6-0.6-0.8-1c-0.4-1-0.3-2,0.4-2.7    c0.7-0.7,1.7-0.8,2.7-0.3c0.4,0.2,0.7,0.4,1,0.7c1.2,1.2,2.5,2.5,3.7,3.7c0.6,0.6,1.4,0.7,1.9,0.2c0.5-0.5,0.5-1.3-0.2-1.9    c-0.6-0.6-1.1-1.1-1.7-1.7c-0.4-0.4-0.7-0.8-0.8-1.4c-0.2-0.9-0.1-1.6,0.6-2.2c0.7-0.6,1.5-0.7,2.3-0.4c0.5,0.1,0.8,0.4,1.2,0.8    c3.2,3.2,6.4,6.4,9.6,9.6C59.8,50.6,58.6,60.3,51.2,64.7z M2.1,22c0.2,0,0.5,0,0.7,0c0.2,0,9.7,0,9.9,0c0.8,0,1.4-0.6,1.4-1.5    c0-0.8-0.6-1.5-1.4-1.5c-0.4,0-10.2,0-10.6,0c-0.7,0.1-1.2,0.7-1.2,1.5C0.8,21.4,1.3,22,2.1,22z M2.1,27.4c1.7,0,16.7,0,18.4,0    c0.8,0,1.3-0.7,1.3-1.5c0-0.8-0.5-1.4-1.3-1.4c-0.8,0-14.9,0-15.7,0c-0.9,0-1.7,0-2.6,0c-0.8,0-1.3,0.6-1.4,1.4    C0.8,26.7,1.3,27.4,2.1,27.4z"/>
	</g>
</g>
</svg>