<?xml version="1.0" encoding="UTF-8"?>
<!-- Generator: Adobe Illustrator 25.2.3, SVG Export Plug-In . SVG Version: 6.00 Build 0)  -->
<svg version="1.1" id="Layer_1" xmlns="http://www.w3.org/2000/svg" xmlns:xlink="http://www.w3.org/1999/xlink" x="0px" y="0px" viewBox="0 0 65 70" style="enable-background:new 0 0 65 70;" xml:space="preserve">
<style type="text/css">
	.st0{fill:#3952FF;}
</style>
<g>
	<g>
		<path class="st0" d="M37.4,7.4c0.7,0,1.2-0.5,1.2-1.2c0-0.7-0.5-1.2-1.2-1.2c-0.7,0-1.3,0.6-1.3,1.2C36.2,6.8,36.8,7.4,37.4,7.4z     M64,11.2c0-0.2,0-0.3,0-0.5c-0.1-2.8-2.3-5.2-5-5.7c-0.8-0.1-1.7-0.1-2.5-0.1c-4.3,0-8.6,0-12.8,0c-0.1,0-0.2,0-0.4,0    c-0.9,0-1.5,0.5-1.4,1.3c0,0.7,0.6,1.2,1.4,1.2c4.8,0,9.5,0,14.3,0c2.6,0,4.1,1.5,4.1,4.1c0,11,0,32.1,0,43.1    c0,0.5-0.1,0.7-0.6,0.7c-9.5,0-19,0-28.4,0c-0.6,0-0.7-0.2-0.7-0.7c0-7.1,0-19.6,0-26.7c0-2.5-1.5-4-4-4c-4.6,0-9.2,0-13.8,0    c-0.4,0-0.6-0.1-0.6-0.6c0-2.5,0-9.5,0-11.9c0-2.4,1.6-3.9,4-3.9c4.7,0,9.5,0,14.2,0c0.2,0,0.4,0,0.6,0c0.6-0.1,1-0.6,1-1.3    c0-0.6-0.4-1.1-1-1.2c-0.2,0-0.3,0-0.5,0c-4.8,0-9.6,0-14.4,0c-3.7,0-6.3,2.7-6.3,6.4c0,2.3,0,9.1,0,11.4c0,1.1,0,1.1-1.1,1.1    c-2.3,0-3.8,1.6-3.8,3.9c0,1.7,0,8.9,0,10.7c0,0.9,0,0.9-0.9,0.9c-2,0-3.2,0.9-3.9,2.8c0,0.1-0.1,0.1-0.1,0.1v19.9    c0.2,0.1,0.2,0.3,0.2,0.5c0.6,1.5,1.9,2.5,3.4,2.5c7.8,0,15.6,0,23.5,0c1.4,0,2.5-0.7,3.2-2c0.2-0.4,0.5-0.5,0.9-0.5    c8.4,0,16.8,0,25.3,0c0.6,0,1.2,0,1.8-0.2c2.8-0.7,4.7-3.1,4.7-6.1C64,44.6,64,22.9,64,11.2z M29.3,58.7c0,0.9,0,1.7,0,2.6    c0,0.8-0.5,1.3-1.2,1.3c-3.3,0-6.7,0-10,0c0.3-1,0.2-1.9,0.2-2.9h-2.5c0,0.4,0,0.9,0,1.3c0,1.1-0.4,1.5-1.6,1.5c-3,0-6.1,0-9.1,0    c-1.1,0-1.6-0.4-1.6-1.5c0-5.9,0-11.9,0-17.8c0-1.1,0.4-1.5,1.6-1.5c3,0,6.1,0,9.2,0c1.2,0,1.6,0.4,1.6,1.6c0,0.5,0,0.9,0,1.4h2.5    c0-0.5,0-0.9,0-1.4c0-2.5-1.5-4.1-4-4.1c-1.8,0-3.5,0-5.3,0c-0.4,0-0.5,0-0.5-0.5c0-1.9,0-9.3,0-11.1c0-0.9,0.5-1.4,1.4-1.4    c6,0,12.1,0,18.1,0c1,0,1.4,0.5,1.4,1.5C29.3,36.3,29.3,50.2,29.3,58.7z M57.8,60.2c-2.7,0-5.3,0-8,0c-5.8,0-11.6,0-17.4,0    c-0.5,0-0.7-0.1-0.6-0.6c0.1-0.6-0.2-1.4,0.1-1.7c0.3-0.4,1.2-0.1,1.8-0.1c9,0,17.9,0,26.9,0h0.7C60.7,59.2,59.4,60.1,57.8,60.2z     M56.5,42.2c0.5-0.2,0.8-0.6,0.9-1.1c0-0.3,0-0.6,0.1-0.9c0-1.5-0.1-1.8-1.5-2.3c-0.4-0.2-0.5-0.4-0.8-0.8c-0.4-0.8-0.4-1.5,0-2.3    c0.3-0.5,0.2-1.1-0.3-1.5c-0.4-0.4-0.8-0.9-1.2-1.2s-0.9-0.4-1.4-0.3c-0.2,0.1-0.4,0.2-0.5,0.3c-0.4,0.3-0.8,0.2-1.2,0    c-0.8-0.3-1.3-0.7-1.6-1.6c-0.2-0.6-0.7-0.9-1.3-1H46c-0.6,0-1.1,0.4-1.2,0.9c-0.1,0.2-0.2,0.4-0.3,0.6c-0.1,0.4-0.4,0.6-0.8,0.9    c-0.8,0.4-1.5,0.4-2.3,0c-0.5-0.3-1.1-0.2-1.6,0.3c-0.4,0.4-0.8,0.7-1.1,1.1c-0.4,0.4-0.5,1.1-0.3,1.6c0.4,0.7,0.4,1.4,0,2.2    c-0.3,0.4-0.4,0.7-0.9,0.9c-1.2,0.4-1.4,0.7-1.4,2.1v0.4c0,1.3,0.2,1.6,1.4,2c0.4,0.2,0.7,0.4,1,0.9c0.4,0.8,0.4,1.4,0,2.2    c-0.3,0.5-0.2,1.1,0.3,1.6c0.4,0.4,0.8,0.8,1.1,1.1c0.4,0.4,1,0.4,1.5,0.3c0.2-0.1,0.4-0.2,0.5-0.3c0.4-0.3,0.7-0.2,1.1,0    c0.9,0.3,1.3,0.8,1.6,1.6c0.2,0.6,0.6,0.9,1.2,0.9h1.7c0.5-0.1,1-0.3,1.1-0.8c0.3-1,0.9-1.5,1.8-1.8c0.3-0.1,0.5-0.1,0.8,0    c0.4,0.2,0.8,0.4,1.3,0.4c1,0.1,2.5-1.7,2.5-2.6c0-0.4-0.2-0.7-0.4-1c-0.3-0.4-0.2-0.8,0-1.2C55.2,42.9,55.7,42.5,56.5,42.2z     M54.6,41.3c-0.4,0.2-0.6,0.4-0.7,0.8c-0.2,0.6-0.4,1.2-0.7,1.8C53,44.2,53,44.6,53.1,45c0.1,0.2,0.2,0.4,0.3,0.7    c0.3,0.4,0.2,0.7-0.2,1.1c-0.4,0.3-0.6,0.4-1,0.2c-0.1-0.1-0.2-0.1-0.4-0.2c-0.6-0.4-1.2-0.4-1.8,0.1c-0.4,0.3-0.9,0.4-1.4,0.5    c-0.4,0.1-0.6,0.3-0.7,0.6c-0.1,0.3-0.3,0.5-0.4,0.9c-0.1,0.5-0.4,0.5-0.8,0.5s-0.8,0-0.8-0.5c0-0.1,0-0.1-0.1-0.2    c-0.2-0.9-0.7-1.4-1.6-1.6c-0.3,0-0.6-0.2-0.9-0.4c-0.6-0.4-1.1-0.4-1.7-0.1c-0.1,0-0.2,0.1-0.3,0.1c-0.7,0.4-1,0.3-1.5-0.4    c-0.1-0.2-0.1-0.3,0-0.4c0.6-1,0.4-1.8,0-3c-0.4-1.1-1-1.8-2.1-2c-0.2-0.1-0.3-0.2-0.3-0.4c-0.1-0.9-0.1-1,0.8-1.2    c0.8-0.3,1.2-0.6,1.4-1.5c0.1-0.4,0.4-0.9,0.5-1.2s0.3-0.7,0.1-1.1c-0.1-0.3-0.2-0.5-0.4-0.8c-0.3-0.4-0.2-0.6,0.2-1    s0.6-0.4,1.1-0.2c0.3,0.2,0.5,0.3,0.7,0.4c0.4,0.2,0.6,0.2,1-0.1c0.5-0.4,1.1-0.6,1.8-0.8c0.4-0.1,0.6-0.3,0.7-0.6    c0.1-0.3,0.3-0.5,0.4-0.8c0.1-0.4,0.4-0.5,0.8-0.5c0.4,0,0.8,0.1,0.9,0.6c0.1,0.3,0.2,0.5,0.4,0.8c0.1,0.3,0.4,0.5,0.6,0.6    c0.7,0.2,1.3,0.4,1.9,0.8c0.3,0.2,0.6,0.2,0.9,0.1c0.3-0.1,0.4-0.2,0.7-0.3c0.6-0.3,1.1-0.2,1.4,0.4c0,0.1,0.1,0.1,0.1,0.2    c-0.2,0.4-0.4,0.8-0.5,1.1c-0.2,0.4-0.2,0.8,0.1,1.2c0.4,0.5,0.5,1.1,0.7,1.6c0.1,0.4,0.4,0.7,0.8,0.9c0.3,0.1,0.4,0.2,0.7,0.3    c0.5,0.1,0.6,0.4,0.6,0.9c0,0.4-0.1,0.5-0.5,0.7C55.2,41.1,54.9,41.2,54.6,41.3z M46.9,34.7c-0.4,0-0.8,0.3-0.8,0.6    c0,0.4,0.4,0.6,0.8,0.6h0.3c2.4,0.1,4.5,2.7,3.9,5.1c-0.4,1.6-2,3.1-3.5,3.2c-1.7,0.2-3.6-0.9-4.3-2.4s-0.6-3.4,0.6-4.6    c0.4-0.5,0.9-1,0.5-1.3s-0.7-0.3-1.2,0.3c-1.6,1.5-2,3.9-1.2,5.9c0.8,2.1,2.8,3.4,5.4,3.4c1.9-0.1,3.6-1.1,4.6-3.2    c1-2,0.7-4-0.8-5.8C50,35.4,48.6,34.8,46.9,34.7z M18.7,46.7c-0.6-0.1-1.3,0.2-1.6,1.1c-0.9,2.6-1.6,5.4-2.5,8    c-0.4,1.1-0.1,1.8,0.6,2c0.6,0.4,1.4-0.3,1.8-1.4c0.9-2.6,1.6-5.2,2.5-7.9c0.1-0.3,0.1-0.6,0.1-0.9C19.6,47.1,19.2,46.9,18.7,46.7    z M11.4,52.8c-0.4-0.3-0.4-0.4,0-0.8c0.4-0.6,1.1-1.2,1.7-1.9c0.5-0.5,0.6-1.1,0.1-1.5c-0.4-0.4-1-0.4-1.5,0.1l-2.9,2.9    c-0.5,0.5-0.5,1,0,1.5c1,1,2,2,2.9,3c0.3,0.3,0.5,0.4,0.9,0.4c0.4,0,0.8-0.1,0.9-0.6c0.1-0.4,0.1-0.9-0.1-1.2    C12.7,54.1,12,53.4,11.4,52.8z M22.3,48.7c-0.5-0.5-1.1-0.5-1.5-0.1c-0.4,0.4-0.4,1,0.1,1.5c0.6,0.6,1.3,1.3,1.9,1.9    c0.4,0.4,0.3,0.5,0,0.8c-0.7,0.7-1.3,1.4-1.9,2c-0.4,0.4-0.4,0.8-0.3,1.2c0.1,0.4,0.5,0.6,0.9,0.6c0.4,0,0.6-0.1,0.9-0.4    c0.9-1,1.9-1.9,2.9-2.9c0.6-0.6,0.6-1.1,0-1.6C24.3,50.6,23.3,49.7,22.3,48.7z M13.2,31.3h10.8c0.5,0,0.9-0.4,0.9-0.9v-0.3    c0-0.5-0.4-0.9-0.9-0.9H13.2c-0.5,0-0.9,0.4-0.9,0.9v0.3C12.3,30.9,12.7,31.3,13.2,31.3z M25,34.9v-0.3c0-0.5-0.4-0.9-0.9-0.9    H13.2c-0.5,0-0.9,0.4-0.9,0.9v0.3c0,0.5,0.4,0.9,0.9,0.9h10.8C24.6,35.8,25,35.4,25,34.9z M26.2,13.3v0.4c0,0.5,0.4,0.9,0.9,0.9    h12.5c0.5,0,0.9-0.4,0.9-0.9v-0.4c0-0.5-0.4-0.9-0.9-0.9H27.1C26.6,12.4,26.2,12.8,26.2,13.3z M55.2,12.4H42.7    c-0.5,0-0.9,0.4-0.9,0.9v0.4c0,0.5,0.4,0.9,0.9,0.9h12.5c0.5,0,0.9-0.4,0.9-0.9v-0.4C56.1,12.8,55.7,12.4,55.2,12.4z M19.7,14.6    H24c0.5,0,0.9-0.5,0.9-1.1c0-0.6-0.4-1.1-0.9-1.1h-4.3c-0.5,0-0.9,0.5-0.9,1.1C18.8,14.1,19.2,14.6,19.7,14.6z M55.2,20.2    c0.5,0,0.9-0.4,0.9-0.9v-0.4c0-0.5-0.4-0.9-0.9-0.9h-2.5c-0.5,0-0.9,0.4-0.9,0.9v0.4c0,0.5,0.4,0.9,0.9,0.9H55.2z M19.7,20.2H32    c0.5,0,0.9-0.5,0.9-1.1c0-0.6-0.4-1.1-0.9-1.1H19.7c-0.5,0-0.9,0.5-0.9,1.1C18.8,19.7,19.2,20.2,19.7,20.2z M34.2,18.9v0.4    c0,0.5,0.4,0.9,0.9,0.9h14.5c0.5,0,0.9-0.4,0.9-0.9v-0.4c0-0.5-0.4-0.9-0.9-0.9H35.1C34.6,18.1,34.2,18.5,34.2,18.9z"/>
	</g>
</g>
</svg>